<?xml version="1.0" encoding="UTF-8"?>
<svg id="Layer_2" data-name="Layer 2" xmlns="http://www.w3.org/2000/svg" viewBox="0 0 360.21 70.27" fill="currentColor">
      <path class="cls-1" d="M4.57,12.24c-.02-.67-.1-1.1-.22-1.3-.12-.19-.35-.31-.68-.36-.96-.14-1.7-.29-2.23-.43-.53-.14-.94-.36-1.22-.65-.14-.24-.22-.5-.22-.79,0-.38.14-.86.43-1.44s.65-1.18,1.08-1.8c.77-1.15,1.28-1.9,1.55-2.23.26-.33.56-.5.9-.5.29,0,.55.1.79.29.14.1.84.38,2.09.86l2.09.86c1.01.53,1.9.77,2.66.72.82-.1,1.44-.29,1.87-.58s.8-.62,1.12-1.01c.31-.38.56-.58.76-.58.24,0,.36.26.36.79,0,.72-.19,1.54-.58,2.45-.29.62-.67,1.28-1.15,1.98-.48.7-.91,1.16-1.3,1.4-.24.19-.36.79-.36,1.8l.07,2.74c0,.53-.05,1.37-.14,2.52-.05.43-.07,1.06-.07,1.87,0,.86.02,1.51.07,1.94l.07.72c-.05.62-.06,1.2-.04,1.73.02.53.04.98.04,1.37v1.44c.1.58.14,1.34.14,2.3,0,.53-.02,1.13-.07,1.8-.05.67-.1,1.18-.14,1.51v1.8c-.05,1.2-.05,2.38,0,3.53.05.38.07.86.07,1.44,0,.43-.02.83-.07,1.19-.05.36-.07.76-.07,1.19v2.77c0,.84.06,1.44.18,1.8.12.36.37.61.76.76,1.3.53,2.09.89,2.38,1.08.24.24.36.48.36.72,0,.53-.55,1.63-1.66,3.31-.77,1.15-1.28,1.9-1.55,2.23-.26.34-.56.5-.9.5-.29,0-.55-.1-.79-.29-1.15-.77-2.16-1.34-3.02-1.73-.43-.24-1.01-.43-1.73-.58-.72-.14-1.3-.19-1.73-.14-.82.1-1.44.29-1.87.58-.43.29-.8.62-1.12,1.01-.31.38-.56.58-.76.58-.24,0-.36-.26-.36-.79,0-.72.19-1.54.58-2.45.24-.53.71-1.15,1.4-1.87.7-.72,1.28-1.22,1.76-1.51.29-.19.43-1.25.43-3.17v-3.89c0-.33.05-.79.14-1.37.1-.58.14-1.01.14-1.3,0-.38-.07-.82-.22-1.3-.14-.43-.22-.86-.22-1.3,0-.48.04-.94.11-1.37.07-.43.11-.89.11-1.37-.1-.72-.25-1.27-.47-1.66-.22-.38-.54-.79-.97-1.22-.82-.86-1.51-1.49-2.09-1.87-.58-.38-.91-.65-1.01-.79-.19-.24-.01-.55.54-.94.55-.38,1.24-.7,2.05-.94.14-.05.41-.07.79-.07.72,0,1.1-.12,1.15-.36.19-.82.29-2.45.29-4.9.05-.19.01-.38-.11-.58-.12-.19-.18-1.39-.18-3.6,0-1.05-.01-1.92-.04-2.59Z"/>
      <path class="cls-1" d="M16.63,21.74c.19-.33.55-.79,1.08-1.37l1.22-1.58c.58-.82,1-1.37,1.26-1.66.26-.29.66-.43,1.19-.43s1.37.38,2.52,1.15c1.15.77,2.04,1.7,2.66,2.81.14.29.31.43.5.43s.44-.18.76-.54c.31-.36.58-.71.79-1.04.22-.34.37-.58.47-.72,1.01-1.44,1.99-2.16,2.95-2.16.38,0,1.27.32,2.66.97,1.39.65,2.5,1.33,3.31,2.05.29.19.59.43.9.72.31.29.56.43.76.43.43,0,1.13-.67,2.09-2.02,1.01-1.44,1.99-2.16,2.95-2.16.43,0,1.44.54,3.02,1.62,1.58,1.08,2.76,2.08,3.53,2.99.72.82,1.08,1.94,1.08,3.38,0,.48-.02,1-.07,1.55-.05.55-.07,1.16-.07,1.84,0,.19.06.56.18,1.12.12.55.16,1.07.11,1.55-.1.82-.14,2.64-.14,5.47l-.07.65-.07.86c0,.34.02.68.07,1.04.05.36.07.78.07,1.26,0,1.2.02,2.08.07,2.63.05.55.14,1.02.29,1.4.34,1.01.89,1.92,1.66,2.74.77.82,1.15,1.27,1.15,1.37,0,.29-.18.66-.54,1.12-.36.46-.59.76-.68.9-.53.67-.91,1.18-1.15,1.51-.53.77-.94,1.3-1.22,1.58-.29.29-.7.43-1.22.43-.62,0-1.16-.23-1.62-.68-.46-.46-1-1.19-1.62-2.2l-1.15-1.66c-.48-.62-.8-1.28-.97-1.98-.17-.7-.25-1.52-.25-2.48,0-.91.02-1.63.07-2.16.05-.33.07-.82.07-1.44v-1.44c0-.19-.02-.54-.07-1.04-.05-.5-.07-1.14-.07-1.91v-1.08l-.07-5.26c0-1.49-.31-2.71-.94-3.67-.62-.96-1.56-1.8-2.81-2.52-.53-.29-.91-.43-1.15-.43-.19,0-.32.11-.4.32-.07.22-.11.56-.11,1.04,0,.19.01.56.04,1.12.02.55.01,1.09-.04,1.62-.1.58-.14,2.16-.14,4.75,0,1.97.05,3.38.14,4.25.05.43.07.96.07,1.58,0,1.78.01,3.05.04,3.82.02.77.13,1.37.32,1.8.34,1.01.89,1.92,1.66,2.74.77.82,1.15,1.27,1.15,1.37,0,.29-.18.66-.54,1.12-.36.46-.59.76-.68.9-.53.67-.91,1.18-1.15,1.51-.53.77-.94,1.3-1.22,1.58s-.7.43-1.22.43c-.72,0-1.54-.49-2.45-1.48-.91-.98-1.73-1.97-2.45-2.95-.72-.98-1.18-1.62-1.37-1.91-.34-.38-.5-.77-.5-1.15,0-.24.19-.7.58-1.37.38-.67.6-1.44.65-2.3.05-.33.07-.82.07-1.44v-1.44c0-.19-.02-.54-.07-1.04-.05-.5-.07-1.14-.07-1.91v-1.08l-.07-5.26c0-1.63-.24-2.92-.72-3.85-.48-.94-1.46-1.71-2.95-2.34-.38-.14-.67-.22-.86-.22-.38,0-.62.18-.72.54-.1.36-.12.92-.07,1.69,0,.77-.02,1.32-.07,1.66,0,.29.06.72.18,1.3.12.58.16,1.1.11,1.58-.1.77-.14,1.66-.14,2.66,0,1.15-.05,2.3-.14,3.46-.05.53-.04,1.06.04,1.58.07.53.11,1.06.11,1.58,0,1.2.01,2.09.04,2.66.02.58.13,1.03.32,1.37.58,1.1,1.46,2.33,2.66,3.67.24.24.26.53.07.86-.19.34-.58.86-1.15,1.58-.58.67-.96,1.18-1.15,1.51-.53.77-.94,1.3-1.22,1.58-.29.29-.7.43-1.22.43-.38,0-1.14-.56-2.27-1.69-1.13-1.13-2.12-2.29-2.99-3.49-.48-.62-.72-1.32-.72-2.09,0-.29.05-.82.14-1.58.1-.53.19-1.3.29-2.3.05-.48.06-1.06.04-1.73-.02-.67-.04-1.17-.04-1.51,0-.19-.01-.48-.04-.86-.02-.38-.04-.96-.04-1.73v-1.08c.05-.43.06-1,.04-1.69-.02-.7-.04-1.23-.04-1.62-.05-.48-.07-1.13-.07-1.94,0-1.34-.02-2.51-.07-3.49-.05-.98-.14-1.64-.29-1.98-.29-.53-.77-1-1.44-1.4-.67-.41-1.08-.68-1.22-.83-.24-.24-.26-.53-.07-.86Z"/>
      <path class="cls-1" d="M55.59,21.74c.19-.33.55-.79,1.08-1.37l1.22-1.58c.1-.14.29-.43.58-.86.29-.43.59-.76.9-.97.31-.22.64-.32.97-.32.48,0,1.22.32,2.23.97,1.01.65,1.9,1.45,2.66,2.41.14.1.29.2.43.32s.29.18.43.18c.19,0,.36-.08.5-.25.14-.17.28-.37.4-.61.12-.24.3-.53.54-.86,1.01-1.44,1.99-2.16,2.95-2.16,2.83,0,4.9,2.09,6.19,6.26.91,3.07,1.37,7.03,1.37,11.88,0,.48.01.82.04,1.01.02.19.04.31.04.36l-.07.65c-.05.43-.02.94.07,1.51.1.62.1,1.18,0,1.66-.38,2.35-.94,4.25-1.66,5.69-.72,1.44-2.04,3-3.96,4.68-1.44,1.25-2.66,2.18-3.67,2.81-1.01.62-1.92.89-2.74.79v4.75c0,1.2-.3,2.33-.9,3.38-.6,1.06-1.43,2.23-2.48,3.53-.82.96-1.51,1.87-2.09,2.74-.1.14-.36.5-.79,1.08s-.74.86-.94.86c-.48,0-.72-.36-.72-1.08,0-.48.07-1.06.22-1.73.19-1.25.29-2.3.29-3.17,0-.24.02-.84.07-1.8.05-.96.07-2.35.07-4.18l-.07-5.54-.07-2.45c-.05-.77-.25-1.55-.61-2.34-.36-.79-.56-1.26-.61-1.4-.48-.86-.74-1.51-.79-1.94-.05-.29.26-.67.94-1.15.1-.1.26-.25.5-.47.24-.22.41-.44.5-.68.14-.38.22-.82.22-1.3l-.07-1.44c-.1-.67-.14-1.15-.14-1.44l-.07-2.52.07-2.45v-4.54l.07-.86c.1-1.15-.02-2.13-.36-2.95-.29-.53-.77-1-1.44-1.4-.67-.41-1.08-.68-1.22-.83-.24-.24-.26-.53-.07-.86ZM66.03,46.01c.24.67.74,1.25,1.51,1.73.48.34.94.5,1.37.5,1.3,0,2.21-1.92,2.74-5.76.1-1.15.14-2.04.14-2.66,0-3.17-.48-6.58-1.44-10.22-.58-1.87-1.13-3.23-1.66-4.07-.53-.84-1.08-1.4-1.66-1.69-.19-.1-.32-.14-.4-.14s-.16.05-.25.14c-.19.19-.31.48-.36.86,0,.72-.02,1.37-.07,1.94-.05.58-.07,1.06-.07,1.44,0,.29.04.67.11,1.15.07.48.08.96.04,1.44l-.14,1.3c0,2.88-.05,5.47-.14,7.78-.05.67-.07,1.49-.07,2.45,0,1.87.12,3.14.36,3.82Z"/>
      <path class="cls-1" d="M82.51,32.76c0-2.74.16-4.85.47-6.34.31-1.49.92-2.82,1.84-4,.91-1.18,2.38-2.53,4.39-4.07.53-.43,1.27-.83,2.23-1.19.96-.36,1.78-.54,2.45-.54.72,0,1.57.32,2.56.97.98.65,1.93,1.5,2.84,2.56.48.48.85.89,1.12,1.22.26.34.4.6.4.79,0,.24-.26.7-.79,1.37-.62.77-.96,1.2-1.01,1.3l-2.3,3.17c-1.3,1.78-2.64,3.55-4.03,5.33-.24.34-.68.88-1.33,1.62-.65.75-1.19,1.44-1.62,2.09-.43.65-.65,1.17-.65,1.55.05,1.01.13,1.76.25,2.27.12.5.25.89.4,1.15s.24.44.29.54c.24.58,1,1.34,2.27,2.3,1.27.96,2.68,1.66,4.21,2.09.72.19,1.37.29,1.94.29.72,0,1.33-.14,1.84-.43.5-.29.83-.38.97-.29.29.19.43.46.43.79,0,.67-.7,1.68-2.09,3.02-.34.29-.9.8-1.69,1.55-.79.75-1.46,1.27-2.02,1.58-.55.31-1.09.47-1.62.47-.77,0-2.03-.53-3.78-1.58-1.75-1.06-3.35-2.18-4.79-3.38-.96-.82-1.69-1.81-2.2-2.99-.5-1.18-.76-2.36-.76-3.56l-.07-3.17c0-.62-.02-1.15-.07-1.58l-.07-2.66v-2.23ZM90.47,31.43c.89-.94,1.57-1.74,2.05-2.41.34-.43.91-1.42,1.73-2.95.14-.24-.08-.67-.68-1.3-.6-.62-1.27-1.16-2.02-1.62-.74-.46-1.26-.64-1.55-.54-.48.19-.77.62-.86,1.3-.1.67-.14,1.43-.14,2.27v1.76c0,.72-.02,1.32-.07,1.8-.05.48-.07.89-.07,1.22,0,.29.05.72.14,1.3.1.38.59.11,1.48-.83Z"/>
      <path class="cls-1" d="M117,25.49c-.86-.67-1.49-1.13-1.87-1.37-.53-.33-.91-.5-1.15-.5s-.36.22-.36.65c0,.29.02.65.07,1.08.05.43.07.98.07,1.66,0,.29.01.82.04,1.58.02.77.01,1.46-.04,2.09-.14,1.25-.22,2.02-.22,2.3v1.8c0,.43.01.76.04.97.02.22.04.35.04.4v3.82c0,1.2.01,2.09.04,2.66.02.58.13,1.03.32,1.37.58,1.1,1.46,2.33,2.66,3.67.24.24.26.53.07.86-.19.34-.58.86-1.15,1.58-.58.67-.96,1.18-1.15,1.51-.53.77-.94,1.3-1.22,1.58-.29.29-.7.43-1.22.43-.43,0-1.49-.98-3.17-2.95l-2.09-2.23c-1.01-1.01-1.51-1.85-1.51-2.52,0-.29.19-.77.58-1.44.38-.67.6-1.34.65-2.02.05-.48.06-1.06.04-1.73-.02-.67-.04-1.17-.04-1.51,0-.19-.01-.48-.04-.86-.02-.38-.04-.96-.04-1.73v-1.08c0-.24-.02-.49-.07-.76-.05-.26-.07-.59-.07-.97,0-.34.02-.62.07-.86v-3.46c0-1.15-.02-2.15-.07-2.99-.05-.84-.14-1.4-.29-1.69-.29-.53-.77-1-1.44-1.4-.67-.41-1.08-.68-1.22-.83-.24-.24-.26-.53-.07-.86.19-.33.55-.79,1.08-1.37l1.22-1.58c.1-.14.29-.43.58-.86.29-.43.59-.76.9-.97.31-.22.64-.32.97-.32.48,0,1.16.26,2.05.79.89.53,1.72,1.22,2.48,2.09.38.48.67.72.86.72.14,0,.32-.13.54-.4.22-.26.47-.61.76-1.04.67-.96,1.21-1.55,1.62-1.76.41-.22.97-.32,1.69-.32.53,0,1.18.18,1.94.54.77.36,1.54.97,2.3,1.84.86.91,1.3,1.73,1.3,2.45,0,.58-.38,1.32-1.15,2.23-.82,1.06-1.46,1.84-1.94,2.34-.48.5-.91.76-1.3.76-.19,0-.89-.46-2.09-1.37Z"/>
      <path class="cls-1" d="M126.72,20.38l1.22-1.58c.1-.14.29-.43.58-.86.29-.43.59-.76.9-.97.31-.22.64-.32.97-.32.38,0,1.1.49,2.16,1.48,1.06.98,2.09,2.03,3.1,3.13.43.48.65,1.1.65,1.87,0,.43-.06,1.03-.18,1.8-.12.77-.18,1.51-.18,2.23,0,.38.06.95.18,1.69.12.75.16,1.36.11,1.84-.14,1.25-.22,2.23-.22,2.95l-.07,3.17c-.05.24-.07.53-.07.86s.04.72.11,1.15c.07.43.11.82.11,1.15,0,1.2.01,2.09.04,2.66.02.58.13,1.03.32,1.37.58,1.1,1.46,2.33,2.66,3.67.24.24.26.53.07.86-.19.34-.58.86-1.15,1.58-.58.67-.96,1.18-1.15,1.51-.53.77-.94,1.3-1.22,1.58-.29.29-.7.43-1.22.43-.38,0-1.27-.68-2.66-2.05-1.39-1.37-2.52-2.63-3.38-3.78-.34-.48-.5-.91-.5-1.3,0-.29.16-.83.47-1.62.31-.79.49-1.6.54-2.41.05-.48.06-1.06.04-1.73-.02-.67-.04-1.17-.04-1.51,0-.19-.01-.48-.04-.86-.02-.38-.04-.96-.04-1.73v-1.8l-.07-4.54c0-1.3-.02-2.35-.07-3.17-.05-.82-.14-1.39-.29-1.73-.29-.53-.89-1.2-1.8-2.02-.67-.58-1.01-.98-1.01-1.22,0-.34.38-.94,1.15-1.8ZM128.56,4.97c.7-.82,1.16-1.49,1.4-2.02.34-.62.62-.94.86-.94.19,0,.43.41.72,1.22.05.14.34.52.86,1.12.53.6.91,1.04,1.15,1.33.29.19.59.44.9.76.31.31.54.52.68.61.29.19.43.43.43.72,0,.34-.19.72-.58,1.15-.14.14-.55.7-1.22,1.66-.29.48-.75,1.11-1.37,1.87-.19.19-.42.53-.68,1.01-.26.48-.56.72-.9.72-.24,0-.44-.18-.61-.54-.17-.36-.25-.78-.25-1.26,0-.19-.22-.48-.65-.86-.43-.38-.74-.67-.94-.86-.77-.62-1.32-1.14-1.66-1.55-.34-.41-.5-.78-.5-1.12s.14-.65.43-.94c.58-.58,1.21-1.27,1.91-2.09Z"/>
      <path class="cls-1" d="M140.83,39.82c0-3.26.41-5.87,1.22-7.81.82-1.94,1.97-3.52,3.46-4.72.58-.43,1.2-.65,1.87-.65.82,0,1.85.31,3.1.94.1.05.32.14.68.29.36.14.66.23.9.25.24.03.41-.01.5-.11.33-.34.5-.77.5-1.3,0-.48-.16-.98-.47-1.51-.31-.53-.76-.94-1.33-1.22-1.49-.77-3.1-1.42-4.82-1.94-.48-.14-.86-.08-1.15.18-.29.26-.67.73-1.15,1.4-.38.53-.74,1.01-1.08,1.44-.24.24-.48.36-.72.36-.38,0-.76-.2-1.12-.61-.36-.41-.54-.83-.54-1.26,0-.33.1-.6.29-.79.77-.96,1.97-2.3,3.6-4.03,1.34-1.58,2.95-2.38,4.82-2.38,1.49,0,2.74.23,3.74.68,1.01.46,2.62,1.5,4.82,3.13.91.67,1.55,1.31,1.91,1.91.36.6.54,1.45.54,2.56v7.78l-.07,4.39.07,1.58c.05.29.07.82.07,1.58,0,1.2.02,2.08.07,2.63.05.55.14,1.02.29,1.4.29.72.74,1.39,1.37,2.02.24.19.46.38.65.58.19.19.35.37.47.54.12.17.18.35.18.54,0,.53-.11.98-.32,1.37-.22.38-.53.83-.94,1.33-.41.5-.73.92-.97,1.26-.1.14-.3.44-.61.9-.31.46-.61.77-.9.94-.29.17-.6.23-.94.18-.72-.14-1.36-.46-1.91-.94-.55-.48-1.12-1.08-1.69-1.8-.48-.58-.85-.95-1.12-1.12-.26-.17-.49-.13-.68.11-1.2,1.58-2.09,2.65-2.66,3.2-.58.55-1.2.83-1.87.83-1.49,0-3.17-1.06-5.04-3.17-.86-1.01-1.51-2.09-1.94-3.24-.43-1.15-.74-2.59-.94-4.32-.1-1.63-.14-2.76-.14-3.38ZM150.59,46.01c.79.24,1.21.38,1.26.43.43.19.79.29,1.08.29s.46-.16.5-.47c.05-.31.07-1.07.07-2.27,0-1.63.02-2.76.07-3.38,0-.14-.02-.85-.07-2.12-.05-1.27-.07-3.11-.07-5.51,0-1.3-.34-1.94-1.01-1.94-.34,0-.77.16-1.3.47-.53.31-.84.49-.94.54-.77.48-1.43,1.42-1.98,2.81-.55,1.39-.83,2.86-.83,4.39,0,1.44.29,2.78.86,4.03.77,1.58,1.55,2.5,2.34,2.74Z"/>
      <path class="cls-1" d="M173.52.65c0,.43-.12,1.01-.36,1.73-.43,1.63-.65,2.88-.65,3.74,0,.29.01.85.04,1.69.02.84.04,2.29.04,4.36,0,2.74-.02,5.11-.07,7.13,0,.24.06.65.18,1.22.12.58.16,1.13.11,1.66-.14,1.25-.22,2.47-.22,3.67l.07,10.3-.14.65c-.05.24-.07.53-.07.86s.04.72.11,1.15c.07.43.11.82.11,1.15,0,1.2.02,2.08.07,2.63.05.55.14,1.02.29,1.4.29.72.74,1.39,1.37,2.02.24.19.46.38.65.58.19.19.35.37.47.54.12.17.18.35.18.54,0,.53-.11.98-.32,1.37-.22.38-.53.83-.94,1.33-.41.5-.73.92-.97,1.26-.53.77-.94,1.3-1.22,1.58-.29.29-.7.43-1.22.43-.72,0-2.09-1.34-4.1-4.03-.62-.86-1.04-1.87-1.26-3.02-.22-1.15-.28-2.52-.18-4.1.05-.48.06-1.06.04-1.73-.02-.67-.04-1.17-.04-1.51,0-.19-.01-.48-.04-.86-.02-.38-.04-.96-.04-1.73,0-.24-.02-1.92-.07-5.04-.05-3.12-.05-4.87,0-5.26.05-.43.07-.98.07-1.66l-.07-2.88c0-3.02-.1-5.88-.29-8.57-.05-.53-.07-1.08-.07-1.66,0-1.15.3-2.24.9-3.28.6-1.03,1.48-2.24,2.63-3.64l1.22-1.44c1.82-2.16,2.9-3.24,3.24-3.24.38,0,.58.22.58.65Z"/>
      <path class="cls-1" d="M206.96,51.95c-1.03-.46-2.24-.61-3.64-.47-.91.1-1.82.48-2.74,1.15-.91.67-1.44,1.01-1.58,1.01-.19,0-.29-.19-.29-.58,0-.53.19-1.2.58-2.02.38-.82.98-1.63,1.8-2.45.53-.53,1.13-1.08,1.8-1.66.72-.67,1.18-1.18,1.37-1.51.67-1.54,1.32-3.74,1.94-6.62,0-.1.22-.84.65-2.23l1.37-4.32c.1-.34.08-.86-.04-1.58-.12-.72-.3-1.32-.54-1.8-.38-.82-.78-1.38-1.19-1.69-.41-.31-.8-.53-1.19-.65-.38-.12-.62-.23-.72-.32-.14-.19-.07-.44.22-.76.29-.31.68-.58,1.19-.79s1.04-.32,1.62-.32c.38,0,.77.03,1.15.07.38.05.74.07,1.08.07.48,0,.74-.1.79-.29.33-1.49.82-3.14,1.44-4.97.43-1.34.84-2.71,1.22-4.1.29-1.39.43-2.42.43-3.1,0-.86-.17-1.54-.5-2.02-.96-1.44-1.99-2.04-3.1-1.8-.24.05-.53.17-.86.36-.34.19-.6.22-.79.07-.24-.14-.3-.36-.18-.65.12-.29.38-.7.79-1.22.41-.53.76-.98,1.04-1.37,1.39-1.97,3.02-2.95,4.9-2.95.72,0,1.32.1,1.8.29,2.69.91,4.66,2.88,5.9,5.9l.29.72c.1.24.23.58.4,1.01.17.43.35.91.54,1.44l1.01,3.31c.62,1.97,1.32,4.63,2.09,7.99l.43,1.87c.38,2.02.77,3.53,1.15,4.54.72,1.97,1.42,5.02,2.09,9.14.38,2.11.62,3.31.72,3.6.33,1.25.86,2.29,1.58,3.13.72.84,1.54,1.26,2.45,1.26.43,0,.65.24.65.72,0,.86-.62,2.11-1.87,3.74-1.3,1.78-2.54,2.66-3.74,2.66-.24,0-.5-.05-.79-.14-.91-.19-1.87-1.1-2.88-2.74-.19-.33-.49-.83-.9-1.48-.41-.65-.78-1.52-1.12-2.63-.19-.72-.48-1.8-.86-3.24-.38-1.44-.65-2.28-.79-2.52-.62-1.3-1.1-2.11-1.44-2.45-.34-.34-.94-.5-1.8-.5-.67,0-2.06-.1-4.18-.29l-2.02-.22c-.38-.05-.89-.07-1.51-.07s-1.08.07-1.37.22c-.29.14-.53.41-.72.79-.19.67-.4,1.28-.61,1.84-.22.55-.35.97-.4,1.26-.29,1.2-.43,2.06-.43,2.59,0,.43.08.72.25.86.17.14.47.26.9.36,1.1.19,2.22.47,3.35.83,1.13.36,1.84.66,2.12.9.14.1.29.22.43.36.14.14.22.34.22.58,0,.62-.6,1.75-1.8,3.38-1.2,1.78-2.16,2.66-2.88,2.66-.24,0-.48-.07-.72-.22-1.34-.86-2.53-1.52-3.56-1.98ZM215.71,30.82c.58,0,1.56.17,2.95.5.72.14,1.26-.12,1.62-.79.36-.67.44-1.32.25-1.94-.14-.62-.28-1.16-.4-1.62-.12-.46-.23-.88-.32-1.26-.38-1.15-.65-2.09-.79-2.81-.1-.38-.29-1.32-.58-2.81-.29-1.49-.59-2.68-.9-3.56-.31-.89-.61-1.14-.9-.76-.14.14-.46,1.22-.94,3.24,0,.05-.1.65-.29,1.8-.19,1.15-.7,2.59-1.51,4.32-.53,1.11-.92,2.28-1.19,3.53-.26,1.25-.44,2.04-.54,2.38,0,.1.1.21.29.32.19.12.43.11.72-.04,1.15-.33,1.99-.5,2.52-.5Z"/>
      <path class="cls-1" d="M249.26,25.49c-.86-.67-1.49-1.13-1.87-1.37-.53-.33-.91-.5-1.15-.5s-.36.22-.36.65c0,.29.02.65.07,1.08.05.43.07.98.07,1.66,0,.29.01.82.04,1.58.02.77.01,1.46-.04,2.09-.14,1.25-.22,2.02-.22,2.3v1.8c0,.43.01.76.04.97.02.22.04.35.04.4v3.82c0,1.2.01,2.09.04,2.66.02.58.13,1.03.32,1.37.58,1.1,1.46,2.33,2.66,3.67.24.24.26.53.07.86-.19.34-.58.86-1.15,1.58-.58.67-.96,1.18-1.15,1.51-.53.77-.94,1.3-1.22,1.58-.29.29-.7.43-1.22.43-.43,0-1.49-.98-3.17-2.95l-2.09-2.23c-1.01-1.01-1.51-1.85-1.51-2.52,0-.29.19-.77.58-1.44.38-.67.6-1.34.65-2.02.05-.48.06-1.06.04-1.73-.02-.67-.04-1.17-.04-1.51,0-.19-.01-.48-.04-.86-.02-.38-.04-.96-.04-1.73v-1.08c0-.24-.02-.49-.07-.76-.05-.26-.07-.59-.07-.97,0-.34.02-.62.07-.86v-3.46c0-1.15-.02-2.15-.07-2.99-.05-.84-.14-1.4-.29-1.69-.29-.53-.77-1-1.44-1.4-.67-.41-1.08-.68-1.22-.83-.24-.24-.26-.53-.07-.86.19-.33.55-.79,1.08-1.37l1.22-1.58c.1-.14.29-.43.58-.86.29-.43.59-.76.9-.97.31-.22.64-.32.97-.32.48,0,1.16.26,2.05.79.89.53,1.72,1.22,2.48,2.09.38.48.67.72.86.72.14,0,.32-.13.54-.4.22-.26.47-.61.76-1.04.67-.96,1.21-1.55,1.62-1.76.41-.22.97-.32,1.69-.32.53,0,1.18.18,1.94.54.77.36,1.54.97,2.3,1.84.86.91,1.3,1.73,1.3,2.45,0,.58-.38,1.32-1.15,2.23-.82,1.06-1.46,1.84-1.94,2.34-.48.5-.91.76-1.3.76-.19,0-.89-.46-2.09-1.37Z"/>
      <path class="cls-1" d="M275.54,47.3c0,.67-.7,1.68-2.09,3.02-.34.29-.9.8-1.69,1.55-.79.75-1.46,1.27-2.02,1.58-.55.31-1.09.47-1.62.47-.77,0-2.03-.53-3.78-1.58-1.75-1.06-3.35-2.18-4.79-3.38-.96-.82-1.69-1.81-2.2-2.99-.5-1.18-.76-2.36-.76-3.56l-.07-3.17c0-.62-.02-1.15-.07-1.58l-.07-2.66v-2.23c0-2.74.16-4.85.47-6.34.31-1.49.92-2.82,1.84-4,.91-1.18,2.38-2.53,4.39-4.07.53-.43,1.27-.83,2.23-1.19.96-.36,1.78-.54,2.45-.54.72,0,1.57.32,2.56.97.98.65,1.93,1.5,2.84,2.56.48.48.86.9,1.15,1.26.29.36.43.64.43.83,0,.24-.24.64-.72,1.19-.48.55-.86,1.02-1.15,1.4-.67.82-1.22,1.4-1.66,1.76-.43.36-.82.54-1.15.54-.29,0-.58-.14-.86-.43-.48-.48-1.25-1.13-2.3-1.94-1.06-.82-2.06-1.54-3.02-2.16-.43-.33-.71-.08-.83.76-.12.84-.18,2.05-.18,3.64,0,4.99.02,8.35.07,10.08.05,1.54.14,2.6.29,3.2.14.6.28,1.02.4,1.26.12.24.2.41.25.5.19.43.71,1.08,1.55,1.94.84.86,1.87,1.62,3.1,2.27,1.22.65,2.48.97,3.78.97.72,0,1.33-.14,1.84-.43s.83-.38.97-.29c.29.19.43.46.43.79Z"/>
      <path class="cls-1" d="M277.88,8.32c.6-1.03,1.48-2.24,2.63-3.64l1.22-1.44c1.82-2.16,2.9-3.24,3.24-3.24.38,0,.58.22.58.65s-.12,1.01-.36,1.73c-.43,1.63-.65,2.88-.65,3.74,0,.29.01.85.04,1.69.02.84.04,2.29.04,4.36,0,2.74-.02,5.11-.07,7.13,0,.43.07.86.22,1.3.43,0,1.08-.6,1.94-1.8,1.01-1.44,1.99-2.16,2.95-2.16.43,0,1.19.37,2.27,1.12,1.08.75,2,1.57,2.77,2.48.77.91,1.38,2.05,1.84,3.42s.66,2.75.61,4.14c0,.29.06.72.18,1.3.12.58.16,1.1.11,1.58-.14,1.25-.22,2.02-.22,2.3v1.8c0,.48.01.82.04,1.01.02.19.04.31.04.36l-.07.65-.07.86c0,.34.02.68.07,1.04.05.36.07.78.07,1.26,0,1.2.02,2.08.07,2.63s.14,1.02.29,1.4c.34,1.01.89,1.92,1.66,2.74.77.82,1.15,1.27,1.15,1.37,0,.29-.18.66-.54,1.12-.36.46-.59.76-.68.9-.58.67-.96,1.18-1.15,1.51-.53.77-.94,1.3-1.22,1.58s-.7.43-1.22.43c-.62,0-1.16-.23-1.62-.68-.46-.46-1-1.19-1.62-2.2l-1.15-1.66c-.48-.62-.8-1.28-.97-1.98-.17-.7-.25-1.52-.25-2.48,0-.91.02-1.63.07-2.16.05-.33.07-.82.07-1.44v-1.44c0-.1-.04-.32-.11-.68-.07-.36-.11-.88-.11-1.55,0-.72.02-1.32.07-1.8.05-.33.07-.72.07-1.15,0-.29-.03-.55-.07-.79-.05-.24-.07-.6-.07-1.08v-2.23c0-1.01-.25-1.98-.76-2.92-.5-.94-1.12-1.69-1.84-2.27-.72-.58-1.34-.86-1.87-.86-.43,0-.72.19-.86.58-.29.72-.43,1.68-.43,2.88,0,.86.1,2.26.29,4.18.05.53.1,1.15.14,1.87s.07,1.51.07,2.38l-.14.65c-.05.24-.07.53-.07.86s.04.72.11,1.15c.07.43.11.82.11,1.15,0,1.2.02,2.08.07,2.63.05.55.14,1.02.29,1.4.29.72.74,1.39,1.37,2.02.24.19.46.38.65.58.19.19.35.37.47.54.12.17.18.35.18.54,0,.53-.11.98-.32,1.37-.22.38-.53.83-.94,1.33-.41.5-.73.92-.97,1.26-.53.77-.94,1.3-1.22,1.58s-.7.43-1.22.43c-.72,0-2.09-1.34-4.1-4.03-.62-.86-1.04-1.87-1.26-3.02-.22-1.15-.28-2.52-.18-4.1.05-.48.06-1.06.04-1.73-.02-.67-.04-1.17-.04-1.51,0-.19-.01-.48-.04-.86-.03-.38-.04-.96-.04-1.73,0-.24-.03-1.92-.07-5.04-.05-3.12-.05-4.87,0-5.26.05-.43.07-.98.07-1.66l-.07-2.88c0-3.02-.1-5.88-.29-8.57-.05-.53-.07-1.08-.07-1.66,0-1.15.3-2.24.9-3.28Z"/>
      <path class="cls-1" d="M300.88,20.38l1.22-1.58c.1-.14.29-.43.58-.86.29-.43.59-.76.9-.97.31-.22.64-.32.97-.32.38,0,1.1.49,2.16,1.48,1.05.98,2.09,2.03,3.1,3.13.43.48.65,1.1.65,1.87,0,.43-.06,1.03-.18,1.8-.12.77-.18,1.51-.18,2.23,0,.38.06.95.18,1.69.12.75.16,1.36.11,1.84-.14,1.25-.22,2.23-.22,2.95l-.07,3.17c-.05.24-.07.53-.07.86s.04.72.11,1.15c.07.43.11.82.11,1.15,0,1.2.01,2.09.04,2.66.02.58.13,1.03.32,1.37.58,1.1,1.46,2.33,2.66,3.67.24.24.26.53.07.86-.19.34-.58.86-1.15,1.58-.58.67-.96,1.18-1.15,1.51-.53.77-.94,1.3-1.22,1.58s-.7.43-1.22.43c-.38,0-1.27-.68-2.66-2.05-1.39-1.37-2.52-2.63-3.38-3.78-.34-.48-.5-.91-.5-1.3,0-.29.16-.83.47-1.62.31-.79.49-1.6.54-2.41.05-.48.06-1.06.04-1.73-.03-.67-.04-1.17-.04-1.51,0-.19-.01-.48-.04-.86-.02-.38-.04-.96-.04-1.73v-1.8l-.07-4.54c0-1.3-.02-2.35-.07-3.17-.05-.82-.14-1.39-.29-1.73-.29-.53-.89-1.2-1.8-2.02-.67-.58-1.01-.98-1.01-1.22,0-.34.38-.94,1.15-1.8ZM302.72,4.97c.7-.82,1.16-1.49,1.4-2.02.33-.62.62-.94.86-.94.19,0,.43.41.72,1.22.05.14.33.52.86,1.12.53.6.91,1.04,1.15,1.33.29.19.59.44.9.76.31.31.54.52.68.61.29.19.43.43.43.72,0,.34-.19.72-.58,1.15-.14.14-.55.7-1.22,1.66-.29.48-.74,1.11-1.37,1.87-.19.19-.42.53-.68,1.01-.26.48-.56.72-.9.72-.24,0-.44-.18-.61-.54-.17-.36-.25-.78-.25-1.26,0-.19-.22-.48-.65-.86-.43-.38-.74-.67-.94-.86-.77-.62-1.32-1.14-1.66-1.55-.34-.41-.5-.78-.5-1.12s.14-.65.43-.94c.58-.58,1.21-1.27,1.91-2.09Z"/>
      <path class="cls-1" d="M312.76,21.82c.19-.33.55-.79,1.08-1.37l1.22-1.58c.1-.14.29-.43.58-.86.29-.43.59-.76.9-.97.31-.22.64-.32.97-.32.48,0,1.24.34,2.27,1.01,1.03.67,1.91,1.46,2.63,2.38.53.67.92,1.26,1.19,1.76.26.5.37,1.12.32,1.84,0,.14-.14.65-.43,1.51-.29.86-.43,1.83-.43,2.88,0,.19.06.57.18,1.12.12.55.16,1.07.11,1.55-.14,1.25-.22,2.47-.22,3.67v.36c0,.43.01.76.04.97.02.22.04.35.04.4l-.14.65c-.05.24-.07.53-.07.86s.04.72.11,1.15c.07.43.11.82.11,1.15.05,2.45.46,4.18,1.22,5.18.77,1.01,1.63,1.51,2.59,1.51.77,0,1.27-.29,1.51-.86.24-.58.41-1.68.5-3.31.05-.33.07-.82.07-1.44v-1.44c0-1.63-.05-2.98-.14-4.03-.05-.53-.06-1.12-.04-1.76.02-.65.04-1.24.04-1.76v-1.66c0-2.59-.26-4.42-.79-5.47-.29-.53-.77-1-1.44-1.4-.67-.41-1.08-.68-1.22-.83-.24-.24-.26-.53-.07-.86.19-.33.55-.79,1.08-1.37l1.22-1.58c.1-.14.29-.43.58-.86.29-.43.59-.76.9-.97.31-.22.64-.32.97-.32.48,0,1.24.34,2.27,1.01,1.03.67,1.91,1.46,2.63,2.38.58.67.86,1.92.86,3.74,0,.72-.05,1.61-.14,2.66l-.07,1.58c0,.19.06.57.18,1.12.12.55.16,1.07.11,1.55-.05.34-.11.8-.18,1.4-.07.6-.11,1.48-.11,2.63,0,3.46-.53,6.44-1.58,8.96-1.06,2.52-3.05,5.17-5.98,7.96-.58.53-1.22.98-1.94,1.37-.72.38-1.34.58-1.87.58-1.44,0-3.24-1.22-5.4-3.67-1.97-2.21-2.95-4.54-2.95-6.98v-3.74c0-.19-.01-.48-.04-.86-.02-.38-.04-.96-.04-1.73l-.07-6.26c0-1.34-.02-2.51-.07-3.49-.05-.98-.14-1.64-.29-1.98-.29-.53-.77-1-1.44-1.4-.67-.41-1.08-.68-1.22-.83-.24-.24-.26-.53-.07-.86Z"/>
      <path class="cls-1" d="M341.06,32.76c0-2.74.16-4.85.47-6.34.31-1.49.92-2.82,1.84-4,.91-1.18,2.38-2.53,4.39-4.07.53-.43,1.27-.83,2.23-1.19.96-.36,1.77-.54,2.45-.54.72,0,1.57.32,2.56.97.98.65,1.93,1.5,2.84,2.56.48.48.85.89,1.12,1.22.26.34.4.6.4.79,0,.24-.26.7-.79,1.37-.62.77-.96,1.2-1.01,1.3l-2.3,3.17c-1.3,1.78-2.64,3.55-4.03,5.33-.24.34-.68.88-1.33,1.62-.65.75-1.19,1.44-1.62,2.09-.43.65-.65,1.17-.65,1.55.05,1.01.13,1.76.25,2.27.12.5.25.89.4,1.15.14.26.24.44.29.54.24.58,1,1.34,2.27,2.3,1.27.96,2.68,1.66,4.21,2.09.72.19,1.37.29,1.94.29.72,0,1.33-.14,1.84-.43s.83-.38.97-.29c.29.19.43.46.43.79,0,.67-.7,1.68-2.09,3.02-.34.29-.9.8-1.69,1.55-.79.75-1.46,1.27-2.02,1.58-.55.31-1.09.47-1.62.47-.77,0-2.03-.53-3.78-1.58-1.75-1.06-3.35-2.18-4.79-3.38-.96-.82-1.69-1.81-2.2-2.99-.5-1.18-.76-2.36-.76-3.56l-.07-3.17c0-.62-.03-1.15-.07-1.58l-.07-2.66v-2.23ZM349.01,31.43c.89-.94,1.57-1.74,2.05-2.41.34-.43.91-1.42,1.73-2.95.14-.24-.08-.67-.68-1.3-.6-.62-1.27-1.16-2.02-1.62-.74-.46-1.26-.64-1.55-.54-.48.19-.77.62-.86,1.3-.1.67-.14,1.43-.14,2.27v1.76c0,.72-.03,1.32-.07,1.8-.05.48-.07.89-.07,1.22,0,.29.05.72.14,1.3.1.38.59.11,1.48-.83Z"/>
</svg>