<svg xmlns="http://www.w3.org/2000/svg" viewBox="0 0 32 32" shape-rendering="crispEdges">
<style>
g{fill:#000}
@media (prefers-color-scheme:dark){g{fill:#fff}}
.s16{display:none}
@media (max-width:24px){.s16{display:inline}.s32{display:none}}
</style>
<g class="s32"><rect x="10" y="3" width="12" height="1"/><rect x="11" y="4" width="10" height="1"/><rect x="12" y="5" width="8" height="1"/><rect x="13" y="6" width="6" height="3"/><rect x="10" y="9" width="12" height="2"/><rect x="13" y="11" width="6" height="1"/><rect x="10" y="12" width="12" height="2"/><rect x="13" y="14" width="6" height="1"/><rect x="10" y="15" width="12" height="2"/><rect x="13" y="17" width="6" height="9"/><rect x="12" y="26" width="8" height="1"/><rect x="11" y="27" width="10" height="1"/><rect x="10" y="28" width="12" height="1"/></g>
<g class="s16"><rect x="10" y="4" width="12" height="2"/><rect x="12" y="6" width="8" height="2"/><rect x="14" y="8" width="4" height="2"/><rect x="10" y="10" width="12" height="2"/><rect x="14" y="12" width="4" height="2"/><rect x="10" y="14" width="12" height="2"/><rect x="14" y="16" width="4" height="2"/><rect x="10" y="18" width="12" height="2"/><rect x="14" y="20" width="4" height="6"/><rect x="12" y="26" width="8" height="2"/><rect x="10" y="28" width="12" height="2"/></g>
</svg>
