<svg class="transition-all" xmlns="http://www.w3.org/2000/svg" fill="none" viewBox="0 0 48 48"><g fill="currentColor" fill-rule="evenodd" clip-path="url(#a)" clip-rule="evenodd"><path d="M29.23 15.9c6.25.13 12.51.24 18.77.36.01.1-.12.15-.19.2l-1.3 1.08c-.16.12-.4.36-.54.4-.19.05-.53-.01-.82-.03-3.95-.15-8.2-.35-12.05-.51-.05.11.08.24.1.37 4.07.3 8.13.63 12.18.96.03.1-.1.15-.16.2-.51.52-1.1 1.12-1.66 1.61-3.44-.61-6.93-1.2-10.37-1.82-.05.08-.01.24-.02.36 3.2.7 6.47 1.34 9.7 2.02.06.1-.09.16-.14.21-.49.45-1.04.99-1.54 1.43l-8.04-2.66-.1.28c2.36 1.08 4.83 2.04 7.2 3.1.04.1-.1.13-.16.19-.37.33-.72.63-1.16.98-.14.1-.35.34-.5.35-.2 0-.54-.3-.74-.42-1.67-1-3.44-2.14-5.01-3.13-.09.05-.1.18-.19.23 1.4 1.22 2.86 2.42 4.36 3.64.13.1.63.44.63.51 0 .06-.35.3-.42.35-.32.24-.6.4-.95.59-.17.08-.36.25-.54.23-.15-.02-.42-.35-.56-.51-1-1.15-1.93-2.32-2.9-3.52-.12-.17-.25-.53-.53-.38.72 1.16 1.52 2.3 2.26 3.53.24.4.56.79.66 1.28-.72.05-1.5.14-2.27.07-.72-1.35-1.19-2.94-1.81-4.39-.1 0-.15.06-.26.05.33 1.32.83 2.67 1.21 4.01a10.8 10.8 0 0 1-1.84-.89 169.3 169.3 0 0 0-.44-3.07c-.08-.04-.2-.02-.3-.03-.07.8.04 1.62.02 2.45-.01.1-.11-.06-.14-.1a5.87 5.87 0 0 1-1.14-1.11c-.03-.27.04-.55.1-.82.03-.23.17-.56-.1-.67-.23.2-.29.57-.4.88-.11-.28-.47-.56-.49-.95 0-.22.25-.65-.16-.63-.5.02.01.9.12 1.12.39.85.96 1.86 1.51 2.35-.48.33-.94.7-1.59.86-.44-.69-.66-1.53-.95-2.35-.3-.82-.59-1.64-.86-2.45.43-.5.88-1 1.37-1.44.84.45 2 .82 3.1.74 1.1-.07 1.84-.74 1.94-1.86.12-1.4-.96-2-1.96-2.38.04-.27-.01-.63.07-.86M18 16.1c.15.1.03.5.07.72-1 .5-2.3 1.13-2.33 2.56-.03 1.23.88 2.24 2.33 2.15 1.26-.09 2.21-.7 3.07-1.2.55.42.92 1 1.36 1.52-.62 1.6-1.2 3.23-1.92 4.73-.12-.06-.22-.18-.35-.28a9.12 9.12 0 0 0-1.23-.76c.36-.5.78-.98 1.14-1.5.35-.5.78-1.04.82-1.77-.21-.07-.37.07-.5.17.11.7-.4.93-.58 1.42-.11-.28-.18-.61-.27-.91-.13.04-.24.12-.35.18l.09.66c.03.21.13.47.1.65-.05.21-.45.53-.6.68-.23.24-.4.45-.6.6l.19-2.33c-.1-.05-.26.04-.38.05-.17.76-.33 1.47-.48 2.24-.06.25-.06.55-.14.77-.1.25-.61.53-.84.67-.33.22-.64.39-.94.59.43-1.43 1.03-2.88 1.5-4.34-.12-.06-.26-.08-.4-.11-.68 1.48-1.3 3-1.98 4.5-.63-.05-1.28-.08-1.8-.24.78-1.58 1.85-3.07 2.75-4.61-.04-.11-.15-.14-.18-.26-1.22 1.47-2.33 3.05-3.5 4.57-.59-.3-1.18-.6-1.68-1 1.4-1.6 3.08-2.92 4.52-4.48-.03-.11-.15-.14-.23-.2-1.41 1.01-3.08 2.35-4.6 3.51-.15.13-.52.46-.67.47-.23 0-.75-.53-.9-.65-.32-.26-.6-.47-.78-.73 2.24-1.17 4.42-2.4 6.65-3.59-.03-.12-.06-.23-.07-.37-2.57 1.03-5.1 2.1-7.63 3.15a37.18 37.18 0 0 1-1.93-1.75c3.15-.78 6.28-1.59 9.42-2.38.05-.1.04-.27.1-.37-3.05.54-6.52 1.15-9.75 1.75-.23.04-.5.13-.63.11-.15-.02-.33-.28-.47-.42-.43-.43-.89-.9-1.23-1.3 4.07-.37 8.15-.73 12.23-1.08.1-.09.14-.25.21-.37-3.86.17-8.15.45-12.21.63-.3.02-.6.09-.8.05-.28-.07-.69-.72-.86-.93-.28-.36-.57-.68-.74-1 6-.06 12.02-.1 18-.17"></path><path d="M28.04 17.77c.04.16.03.36.05.54-.6.22-1.05.58-1.21 1.23-.16.07-.33.1-.54.12.18-1.1-.61-1.6-1.44-1.84v-.33c1.04.1 2.11.17 3.14.28Zm-8.76-.35c-.16.22-.24.53-.37.77.65.39 1.31.77 1.93 1.19.35-.66.63-1.4 1.61-1.42v-.35c-1.06-.06-2.1-.14-3.17-.19Zm.65.96c-.1-.05-.15-.2-.13-.34l.01-.08a.6.6 0 0 1 .14-.06c.22-.06.36.07.36.2 0 .14-.1.27-.38.28Z"></path><path d="M24.48 21.22c-.22-.59-.44-1.17-.68-1.75.53-.4 1.06-.8 1.63-1.16.37.14.8.72.63 1.19-.1.27-.5.61-.77.9-.3.34-.59.66-.81.82m-1.14-1.82c-.2.7-.42 1.35-.66 1.99-.53-.62-1.07-1.21-1.6-1.82.14-.55.4-.98.86-1.21.5.31.93.69 1.4 1.04Zm-3.48-.41c-.48.23-1.19.36-1.07 1.11-.18-.12-.3-.24-.49-.42-.12-.11-.42-.3-.4-.5.02-.14.84-.66 1.2-.64.33.03.5.35.76.45m8.54 1.16c.03-.28.17-.64-.05-.8-.26-.17-.74 0-1.1-.1.09-.23.43-.65.77-.7.1-.03.34.03.56.06.3.04.66 0 .72.21.07.27-.23.62-.35.77a1.9 1.9 0 0 1-.56.56m-4.82-.28c.02 0 .02.01.02.03.66 1.96 1.32 4 2.05 5.9.24.62.43 1.28.84 1.79-.3.39-.7.68-1.1 1l.85 1.75c-.18.3-.44.5-.7.72-.21-.66-.45-1.3-.68-1.93-.1.04-.16.11-.23.18.2.64.37 1.33.58 1.96-.17.21-.4.49-.6.59-.13-.74-.33-1.4-.47-2.13-.1-.01-.1.07-.19.05.07.58.2 1.15.3 1.72.04.2.12.44.1.59-.03.18-.33.46-.44.6-.17.22-.31.4-.49.56l-.86-1.21c.2-.77.42-1.52.65-2.26-.03-.08-.12-.12-.14-.21-.26.73-.5 1.47-.72 2.24-.2-.07-.38-.35-.56-.52.25-.7.54-1.37.8-2.07l-.17-.14c-.33.64-.57 1.37-.86 2.05-.17-.16-.3-.36-.42-.56.26-.68.54-1.34.84-1.98-.42-.4-.87-.78-1.3-1.17.7-1.05 1.12-2.34 1.58-3.61.46-1.3.89-2.64 1.33-3.94"></path><path d="M20.56 27.91c.33.25.66.5.96.77a20 20 0 0 1-.45.82c-.19.34-.61.73-.44 1.2.13.34.78.51.44 1.02-.27.4-1 .57-1.33.93.07-.3.26-.7.4-1-.04-.14-.17-.18-.21-.3-.15.16-.33.4-.51.65-.17.22-.44.48-.45.72 0 .41.46.49.6.82-.57-.05-1.54-.05-1.46-.73.03-.23.24-.38.35-.56.29-.45.47-1.07.68-1.4-.13-.03-.31-.02-.45-.04-.2.26-.31.62-.53.86-.05-.55-.24-1.08-.23-1.6.3-.3 1.06-.08 1.42.02.63-.5.84-1.41 1.21-2.17m6.02.06c.33.4.73 1.4 1.07 1.85.4.52 1.14-.06 1.63-.24.27.18.1.73.05 1.22l-.12.98c-.18-.3-.5-1.72-1.03-1 .25.36.46.71.7 1.07.23.33.6.62.63 1.14-.39.29-1.16.19-1.8.23.27-.21.57-.38.85-.58-.12-.67-.58-.98-.89-1.45l-.3.3c.18.28.36.56.56.82-.51-.04-1.18-.13-1.5-.44-.1-.61.66-.9.63-1.36 0-.13-.2-.36-.3-.49l-.98-1.33c.22-.28.54-.46.8-.72"></path></g><defs><clipPath id="a"><path fill="currentColor" d="M0 0h48v48H0z"></path></clipPath></defs></svg>