<?xml version="1.0" encoding="UTF-8"?>
<svg id="Layer_2" data-name="Layer 2" xmlns="http://www.w3.org/2000/svg" viewBox="0 0 744 620.6" fill="currentColor">
  <defs>
    <style>
      .cls-1 {
        stroke-width: 0px;
      }
    </style>
  </defs>
  <g id="svg8">
    <g id="g6">
      <path id="path4" class="cls-1" d="M363.7,22.01c-4.3,12.5-10.5,30.3-13.8,39.7-3.3,9.3-7.2,20.8-8.8,25.5s-5.7,16.3-9,25.8c-3.4,9.6-6.1,17.6-6.1,17.8,0,.3,2.1-.9,4.7-2.7,6-4.2,17.8-9.9,20.3-9.9,2,0,2,.9,2,54.5,0,42.9-.3,54.5-1.2,54.5-3.8,0-22.4,3.3-31.1,5.5l-10.1,2.6-3.4-2.5c-1.8-1.3-8.2-6-14-10.5-14.9-11.4-37.8-28.6-43.5-32.8l-4.8-3.6,3.3-2.8c1.8-1.6,6.6-5.1,10.6-7.8l7.3-4.9-4.8-1.1c-2.6-.6-12.7-2.8-22.3-5-49.6-11.4-70.4-16-70.8-15.7-.1.2,5.5,11.1,12.6,24.2,7.1,13.2,14.8,27.5,17.2,31.9,2.3,4.4,5.9,10.9,7.9,14.6,2,3.6,4.7,8.6,6.1,11.2,2.9,5.5,3.5,5.8,4.4,1.7.8-4.3,6.6-18,7.6-18,.5,0,4,2.4,7.8,5.2,3.9,2.9,8.3,6.2,9.8,7.3,2.2,1.6,7.2,5.4,14.9,11.2.6.5,4.3,3.3,8.3,6.3,7.9,6,8.5,7.1,4.5,8.9-2.5,1.2-18,11-20.6,13.1-.7.5-4.6,3.6-8.7,6.9s-10.9,9.1-15,13l-7.5,7-49.6.1c-27.3,0-49.8-.3-50.2-.6-1.4-1.4,4.1-13.8,9.9-22.2,5-7.2,5.1-7.2-5.8-3.1-4.6,1.7-16.2,5.8-25.8,9.1s-23.8,8.2-31.5,10.8c-7.7,2.7-23.2,8.1-34.5,12-11.3,4-22.6,7.9-25.2,8.8-2.7.9-4.8,1.8-4.8,2.2,0,.3,25.1,9.2,55.8,19.9,30.6,10.6,59.9,20.8,65,22.7,10.9,4,12.3,4.2,9.5,1.2-5.1-5.6-14.2-24.6-12.6-26.2.4-.3,23-.6,50.4-.6h49.8l5.8,5.8c5.2,5.1,9.1,8.5,19.9,17.6,1.8,1.4,3.6,2.6,4.2,2.6s1.2.4,1.4.8c.4,1,16.7,11.7,20.2,13.4,3.9,1.7,3.3,2.8-4.6,8.8-4,3-7.7,5.8-8.3,6.3-5.5,4.2-15.2,11.5-16.9,12.7-1.1.8-4.9,3.6-8.4,6.2-3.5,2.7-6.7,4.8-7.2,4.8-1,0-6.8-13.6-7.6-18-1-4.6-1.6-3.9-7.8,7.7-6.9,13.2-11.7,22.1-28,52.2-7,12.8-12.5,23.5-12.4,23.7.2.2,2.2-.1,4.3-.6,34.7-8,92.5-21,93.4-21,.3,0-2.8-2.2-6.9-4.9s-9-6.2-10.9-7.8l-3.3-2.8,15.2-11.5c8.3-6.3,17.3-13.1,20-15,2.6-1.9,10.1-7.6,16.6-12.6,6.6-4.9,12.4-9.3,13.1-9.7s5.6.4,10.9,1.8c5.4,1.3,14.8,3.2,21.1,4.2l11.3,1.7v54.3c0,53.6,0,54.3-2,54.3-3.1,0-14.9-5.8-20.9-10.3-3-2.2-5.1-3.5-4.7-2.9.7,1.1,9.6,26.2,13.8,38.7,1.1,3.3,4.6,13.6,7.9,23,3.3,9.3,7.8,22.2,10,28.5s4.3,12.2,4.6,13c.4.8.7,1.7.7,2,1.7,8,10.6,29.9,10.6,25.9,0-.6,5-15.3,11.1-32.7,6.1-17.3,11.2-32.4,11.4-33.4s.7-2.3,1.1-2.9c.3-.6,3-8.1,5.9-16.7,3-8.6,7.8-22.5,10.8-30.9l5.4-15.1-5.1,3.7c-6,4.5-17.5,10.1-20.5,10.1h-2.1l.2-54.2.3-54.3,13.5-2.3c7.4-1.2,16.8-3.1,20.8-4.2s7.9-1.7,8.6-1.3c.7.5,14.6,10.9,31,23.3,16.3,12.4,30.6,23,31.8,23.7l2.1,1.1-2.4,2.4c-3.5,3.4-7.7,6.5-13.8,10.2l-5.3,3.3,7.3,1.7c18.5,4.2,70.4,16,79.9,18.1,12.8,2.8,12.2,3.8,5.4-8.6-3.1-5.7-7.7-14.2-10.1-18.9-2.5-4.7-7.1-13.2-10.3-19s-8.3-15.4-11.5-21.4c-9.4-17.7-10.4-19.2-10.5-14.9-.1,3.2-6.8,18.8-8.2,19.1-.7.1-4-1.9-7.3-4.6-3.3-2.6-8.5-6.5-11.5-8.7s-6-4.4-6.6-5c-.6-.5-5.9-4.6-11.7-8.9-11.9-8.8-12.2-9.5-7.1-11.9,10.1-4.9,29.7-19.5,43.4-32.6l7.4-7.1h49.8c27.3,0,49.9.4,50.2.8.9,1.5-5.9,16.8-9.8,22.1-5,6.7-4.6,6.8,6.5,2.7,5.2-1.9,16.8-6,25.9-9.1s20.8-7.2,26-9c5.2-1.9,15.6-5.5,23-8,28-9.6,46-16,46-16.5,0-.3-8.2-3.4-18.2-6.9-10.1-3.5-27.3-9.4-38.3-13.3-19-6.6-41.5-14.3-59-20.3-4.4-1.5-9.5-3.4-11.3-4.2-4.6-2-5.7-1.3-2.7,1.9,1.4,1.5,2.5,3,2.5,3.4,0,.3.9,1.8,2,3.4,2.5,3.5,8,17.2,7.4,18.2-.3.4-23,.8-50.4.8h-49.9l-3.3-3.4c-12.2-12.5-31.6-27.5-45.1-34.9-3.2-1.8-5.6-3.7-5.5-4.4.3-1.2,46.5-36.3,47.8-36.3,1,0,6.8,13.7,7.6,18,.9,4.4,1.6,3.8,6-4.4,9.8-18.4,18.1-33.9,22.9-42.6,2.9-5.2,7-12.9,9.2-17,2.3-4.1,5.5-10.1,7.3-13.3,4-7.3,4.8-7.1-10.5-3.6-7.2,1.6-22.9,5.2-35,7.9s-27.8,6.3-35,8c-7.1,1.6-13.4,3-14,3-.5,0,2.6,2.3,7,5.1s9.2,6.4,10.8,7.9l2.7,2.7-17,12.9c-9.4,7.1-18.4,13.8-20,14.9-1.5,1.1-8.1,6.1-14.7,11.1-6.5,4.9-12.3,9.3-12.9,9.7-.6.3-5.6-.5-11.2-1.8-8.8-2.2-27.3-5.5-30.9-5.5-1,0-1.3-11.6-1.3-54.5v-54.5h2.3c2.9,0,13.7,5.3,19.9,9.7,2.6,1.9,4.8,3.2,4.8,2.9,0-.4-18.8-54.7-24.2-69.6-1-3-2.7-8-3.8-11C383.9,31.91,372.8.61,372.2.01c-.4-.4-4.2,9.5-8.5,22ZM347.8,267.91c1.6,4.3,7.6,20.3,13.3,35.5,11,29.7,11.1,29.8,13,24,1.9-5.9,24.7-66.3,25.2-66.8,2.5-2.5,37,8.9,54.4,18,15.3,7.9,24.7,14.6,37.7,26.7l4.9,4.6-1.8,2.4c-2.6,3.4-20.8,17.8-28.7,22.7-65.5,40.7-147.1,35.2-206.6-13.8-4.3-3.6-8.7-7.6-9.7-8.9l-1.9-2.5,7-6.3c22.7-20.8,65-41.3,89.1-43.2.6-.1,2.4,3.4,4.1,7.6Z"/>
    </g>
  </g>
</svg>