<?xml version="1.0" encoding="UTF-8"?>
<svg id="Layer_2" data-name="Layer 2" xmlns="http://www.w3.org/2000/svg" viewBox="0 0 157.5 127.14" fill="currentColor">
  <defs>
    <style>
      .cls-1 {
        stroke-width: 0px;
      }
    </style>
  </defs>
  <g id="Layer_1-2" data-name="Layer 1">
    <g>
      <path class="cls-1" d="M3.04.45c3.22.6,6.03,2.69,8.97,4.04,3,1.37,6.02,2.69,9.03,4.04,6.35,2.84,12.83,5.26,19.75,6.4,3.9.64,7.75,1.61,11.64,2.33,3.9.72,7.83,1.27,11.73,1.98,2.06.37,4.07,1,5.51,2.69,1.23,1.45,1.61,3.12,1.42,5.04-.4,3.97-3.19,6-6.11,8-1.62,1.11-3.35,2.15-4.7,3.55-2.7,2.8-1.86,6.98,1.74,8.96,2.42,1.33,5,2.3,7.89,1.79.13-.02.57.59.52.84-.46,2.35-1.01,4.67-1.49,7.01-1.02,4.87-2,9.75-3.02,14.62-.91,4.33-1.84,8.66-2.76,13-.61,2.88-1.23,5.75-1.78,8.64-.55,2.9-1.88,3.7-4.42,3.78-4.99.16-9.99.07-14.98.02-.8,0-1.67-.21-2.38-.57-1.11-.57-2.09-1.44-1.99-2.83.1-1.43.5-2.8,1.98-3.52,1.98-.96,4.03-1.82,5.89-2.97,2.58-1.61,3.88-4.04,3.34-7.13-.45-2.57-1.96-3.42-4.71-3.06-3.89.51-7.77,1.15-11.67,1.64-5.32.66-10.3-.7-15.08-2.85-1.92-.86-3.68-2.07-4.58-4.1-1.15-2.59,0-4.51,2.85-4.61,2.69-.09,5.41-.08,8.05-.54,1.97-.34,3.89-1.21,5.7-2.11,2.93-1.46,5.84-3.05,7.95-5.64.82-1,1.47-2.23,1.86-3.46.5-1.55-.62-2.84-2.27-2.79-3.37.11-6.73.43-10.1.44-6.17,0-11.75-1.75-16.55-5.8-2.6-2.19-5.33-4.23-7.27-7.09-1.18-1.74-1.22-3.45.2-4.65.75-.64,1.58-.86,2.52-.6,2.49.69,4.99,1.34,7.46,2.09,2.03.61,4.1.44,6.09.13,2.62-.4,5.21-1.11,7.75-1.88,1.04-.32,2.02-1.05,2.86-1.78,1.11-.96,1.13-2.57-.1-3.37-1.45-.94-3.09-1.77-4.76-2.15-5.11-1.15-9.31-3.77-13.19-7.19-3.41-3.01-6.37-6.39-8.69-10.26-1.02-1.7-1.96-3.5-2.51-5.42C.34,4.09-.68.98.72.38c.2-.09.43-.09.65-.09.57,0,1.13.06,1.68.17Z"/>
      <path class="cls-1" d="M157.33,3.19c-.34,1.58-1.15,3.34-1.46,4.17-1.08,2.87-2.89,5.31-4.83,7.63-1.45,1.74-3.07,3.34-4.67,4.94-4.13,4.11-8.93,7.03-14.7,8.22-.95.19-1.89.55-2.76.98-1.07.54-2.01,1.23-2.11,2.63-.11,1.52.9,2.31,1.98,2.76,2.13.87,4.33,1.59,6.56,2.15,1.7.43,3.51.76,5.25.68,2.14-.1,4.27-.6,6.37-1.06,1.45-.31,2.87-.79,4.27-1.3,1.34-.49,2.43-.13,3.32.84.87.96.76,2.15.3,3.23-.34.82-.82,1.64-1.42,2.29-3.61,3.93-7.59,7.46-12.47,9.69-2.2,1-4.73,1.38-7.16,1.72-2.27.32-4.6.3-6.9.26-1.85-.03-3.7-.34-5.55-.44-1.08-.06-2.35-.27-2.93.99-.59,1.3-.45,2.74.46,3.8,1.34,1.57,2.73,3.21,4.42,4.35,2.36,1.59,4.93,2.97,7.58,4.02,2.04.81,4.32,1.05,6.52,1.36,1.33.19,2.71.09,4.07.02,1.41-.07,2.53.46,3.22,1.61.72,1.21.25,2.47-.4,3.56-1.33,2.22-3.58,3.28-5.84,4.22-3.03,1.25-6.21,1.87-9.47,2.22-3.47.37-6.84-.16-10.22-.69-1.98-.31-3.93-.76-5.92-1.01-3.8-.47-4.85,2.35-4.36,5.41.57,3.55,3.44,5.14,6.41,6.51,1.24.57,2.59,1.07,3.58,1.95,2.23,1.97,1.38,5.13-1.5,5.96-.67.19-1.4.27-2.1.27-4.67.02-9.35.01-14.02.01-3.02,0-4.44-1.23-5.04-4.19-1.41-6.91-2.86-13.82-4.29-20.72-1.52-7.29-3.05-14.58-4.55-21.87-.13-.65-.44-1.12.91-1.08,3.84.11,7.51-.8,9.88-4.19,1.4-2,1.34-4.45-.6-6.35-1.7-1.67-3.71-3.04-5.68-4.4-2.43-1.68-4.47-3.54-5.09-6.64-.73-3.65.75-6.63,4.27-7.76,2.56-.82,5.26-1.21,7.91-1.71,3.7-.69,7.43-1.24,11.13-1.97,4.46-.88,8.94-1.71,13.32-2.89,3.47-.93,6.89-2.16,10.19-3.59,4.08-1.76,8.13-3.59,12.17-5.44,1.98-.9,3.96-1.81,5.94-2.71,1.36-.62,3.85-2.36,5.34-1.37,1.04.69.88,1.84.65,2.89Z"/>
      <path class="cls-1" d="M76.44,127.14c-1.15-.32-2.35-.54-3.45-.98-5.21-2.07-8.39-5.92-9.68-11.34-.71-2.99-.21-5.95.44-8.9,1.06-4.86,2.06-9.74,3.08-14.61.91-4.34,1.81-8.67,2.71-13.01,1.01-4.83,2.03-9.67,3.04-14.5.91-4.37,1.8-8.75,2.76-13.12.27-1.23.23-2.54,1.31-3.57,1.58-1.5,4.34-.74,4.82,1.17.65,2.54,1.17,5.12,1.7,7.68,1.01,4.84,1.98,9.68,2.98,14.51,1.16,5.64,2.33,11.29,3.51,16.92,1.16,5.52,2.36,11.04,3.51,16.56.48,2.3,1.11,4.62,1.21,6.95.15,3.44-.72,6.74-2.78,9.57-2.59,3.56-6.02,5.85-10.46,6.49-.06,0-.1.11-.16.16h-4.56Z"/>
    </g>
  </g>
</svg>