<?xml version="1.0" encoding="utf-8"?>
<!-- Generator: Adobe Illustrator 27.8.1, SVG Export Plug-In . SVG Version: 6.00 Build 0)  -->
<svg version="1.1" id="Layer_1" xmlns="http://www.w3.org/2000/svg" xmlns:xlink="http://www.w3.org/1999/xlink" x="0px" y="0px"
	 viewBox="0 0 2000 1650" style="enable-background:new 0 0 2000 1650;" xml:space="preserve">
<style type="text/css">
	.st0{fill:currentColor;}
</style>
<path class="st0" d="M1785.2,428.3c-94.6-77.7-184-175.3-184-260c0-84.7,80-167.7,80-167.7c-152.5-1.2-127.9-4.1-234.2,29.8
	c-106.3,33.9-195.1,127.9-221.4,132.6c-26.3,4.7-50.8,12.9-86.5,26.9s-73.6,3.5-220.8,13.4c-134.8,9.1-370.4,59.3-409.3,67.7
	c-3.6,0.8-7.2,1.2-10.9,1.2c-17.4-0.1-73,0.4-114.3,8.2c-39.9,7.5-79,31.6-92.9,40.8c-3.6,2.4-7.6,3.9-11.9,4.6
	c-12.7,2-44,7.3-95.6,17.7c-69.5,14-184,46.7-183.4,54.9c0.6,8.2,14.6,30.4,99.3,83.5c84.7,53.2,219.1,112.8,219.1,112.8l22.2-1.8
	l15.8,35.6c5.8-17.5,36.2-44.4,36.2-44.4l5.8,36.2c19.9-25.1,55.5-36.8,55.5-36.8l1.8,41.5l52-36.2l-2.3,31.5l52-19.3l1.2,29.8
	l45-19.3c0,0,59.6,19.9,61.3,38.6c1.8,18.7-54.3,18.7-54.3,18.7l5.8,18.7l-36.2-4.7l14.6,21.6l-40.3-1.2l9.9,24l-40.9-9.9l8.8,29.2
	L503,727.4l-1.8,32.7c-14-0.6-15.2,22.2-15.2,22.2s73,9.9,141.4-22.2c68.3-32.1,132.6-8.2,181.7-1.8c49.1,6.4,192.2,11.7,192.2,11.7
	s4.1,106.3,57.2,192.8c53.2,86.5,158.9,164.2,158.9,164.2s-26.9-105.2-17.5-176.4c9.3-71.3,102.8-127.9,102.8-127.9
	c104.6,77.7,127.9,133.2,136.1,215c8.2,81.8-47.3,177-181.1,281c-133.8,104-265.2,91.7-375,88.2c-109.8-3.5-206.8-88.2-239.5-126.8
	c-32.7-38.6-12.3-60.8,15.8-200.4c28-139.6,8.2-177,8.2-177s-33.3,36.8-61.3,79.5c-28,42.6-85.9,125.6-180.5,133.2
	S24,781.7,24,781.7c1.2,32.7,59.6,139,92.3,202.7s170.6,244.2,222.6,289.8c52,45.6,107.5,67.8,139.6,85.9
	c32.1,18.1,77.1,78.3,192.2,154.2c115.1,76,349.3,133.8,452.7,135c103.4,1.2,187.5,7,358.1-56.7c170.6-63.7,281.6-157.2,372.7-262.9
	c91.1-105.7,136.7-267,145.5-421.2C2008.3,754.3,1879.8,506,1785.2,428.3z M299.4,373.4c0,0,86.2-47.3,108.9-50.8
	c22.8-3.5,58.4,0,58.4,0S391.1,357.3,299.4,373.4z M945.5,350.7c-28.9,239.7-112.6,347.5-112.6,347.5
	C896.8,518.5,945.5,350.7,945.5,350.7z M1007.7,371.3c0,0,11,129.3-102.1,313.3C905.6,684.6,978.3,478.2,1007.7,371.3z M970.9,684.6
	c0,0,73.6-191.9,101.2-292.3C1072.1,392.3,1058.1,571.6,970.9,684.6z"/>
</svg>
