<svg xmlns="http://www.w3.org/2000/svg" fill="currentColor" viewBox="0 0 200 200"><path d="m175 103.18-15.09-13.11v5.21h-40.88l15.39-15.43 3.68 3.68 1.42-19.97-19.92 1.43 3.67 3.68-15.39 15.43V43.13h5.2L100 28 86.92 43.13h5.19V84.1L76.72 68.67l3.68-3.68-19.92-1.43 1.42 19.97 3.67-3.68 15.39 15.43H40.09v-5.21L25 103.18l15.09 13.11v-5.21h40.87l-15.39 15.43-3.67-3.68-1.42 19.96 19.92-1.42-3.68-3.68 15.61-15.64v40.82h-5.2L100.21 178l13.08-15.13h-5.19v-40.4l15.18 15.22-3.68 3.68 19.92 1.43-1.42-19.97-3.67 3.68-15.4-15.43h40.88v5.21L175 103.18z"></path></svg>