<?xml version="1.0" encoding="UTF-8"?>
<svg id="Layer_2" data-name="Layer 2" xmlns="http://www.w3.org/2000/svg" viewBox="0 0 485.17 486.67">
  <defs>
    <style>
      .cls-1 {
        stroke-width: 0px;
      }
    </style>
  </defs>
  <g id="Layer_1-2" data-name="Layer 1">
    <path class="cls-1" d="M241.82,486.67c-6.66-7.89-13.33-15.77-19.98-23.67-3.38-4.02-6.7-8.08-10.06-12.11-2.75-3.3-5.54-6.56-8.25-9.89-.65-.8-1.01-1.82-1.73-3.17,4.72,0,8.77-.23,12.77.1,1.95.16,2.42-.62,2.47-2.05.11-3.08.06-6.16.05-9.23,0-1.45-.72-2.25-2.2-2.42-5.92-.67-11.85-1.31-17.76-2.09-1.63-.21-3.3-.67-4.75-1.41-.61-.31-1.11-1.73-.95-2.51,2.01-10.1,4.18-20.17,6.23-30.26.97-4.78,1.73-9.6,2.65-14.39.87-4.55,1.88-9.08,2.7-13.64.37-2.06.56-4.18.61-6.27.15-7.03.16-14.06.31-21.09.05-2.07.4-4.13.61-6.19-.21-.13-.42-.25-.63-.38-.73.62-1.7,1.1-2.16,1.87-4.83,8.13-9.55,16.33-14.37,24.47-2.36,3.99-4.86,7.89-7.31,11.82-2.03,3.26-4.17,6.45-6.06,9.79-.89,1.57-1.3,3.41-1.96,5.12-.28.73-.66,1.43-1.33,2.09-1.57-6.23-3.25-12.24-6.49-17.55-8.94,8.94-17.63,17.65-26.54,26.56,2.49,2.49,5.09,5.03,7.61,7.65.88.91,1.57,2.02,2.7,3.51-3.97.29-7.08.53-10.19.75-7.76.54-15.53,1.08-23.29,1.6-5.67.38-11.33.76-17,1.12-3.93.25-7.86.46-12.48.74,1.29-21,3.08-41.53,4.48-62.63,1.04.44,2.08.61,2.71,1.21,2.54,2.42,5.01,4.92,7.39,7.5,1.33,1.45,2.43,1.42,3.75.08,4.67-4.74,9.35-9.46,14.05-14.15,5.29-5.27,10.6-10.52,15.93-15.75,2.68-2.63,2.51-2.53,1.19-5.92-2.84-7.31-5.58-14.66-8.1-22.08-1.6-4.7-2.94-9.52-3.98-14.38-.59-2.74-.52-5.67-.38-8.5.12-2.6-.53-3.55-3.11-3.57-11.42-.08-22.84-.24-34.26-.28-7.8-.02-15.61.14-23.42.16-3.34,0-6.68-.16-10.01-.22-3.19-.06-3.3.1-3.27,3.18.04,3.95,0,7.91,0,12.68-1.72-1.16-3.08-1.89-4.22-2.87-8.95-7.74-17.84-15.54-26.77-23.31-5.22-4.54-10.45-9.07-15.69-13.58-1.8-1.55-1.74-1.91-.04-3.34,4.15-3.47,8.19-7.09,12.34-10.56,6.77-5.67,13.62-11.25,20.4-16.93,2.35-1.97,4.57-4.11,6.86-6.16,2.12-1.9,4.27-3.77,6.88-6.07.28,1.46.58,2.33.58,3.2,0,3.24-.13,6.47-.16,9.71-.03,3.02.52,3.56,3.45,3.56,18.64.04,37.28.1,55.92.09,2.52,0,5.05-.42,7.57-.65.09,0,.21,0,.25-.06,1.58-2.11,3.31-4.03,5.78-5.18.17-.08.07-.96-.08-1.42-1.27-4.05-.98-7.68,2.24-10.87,2.17-2.15,4.05-4.59,6.13-6.84.71-.76,1.54-1.73,2.46-1.92,4.34-.93,4.02-4.08,3.89-7.33-.12-3.16-.11-6.33,0-9.5.08-2.28-.67-4-2.32-5.59-6.69-6.46-13.3-12.99-19.91-19.52-3.18-3.14-6.33-6.32-9.45-9.52-1.48-1.52-2.52-1.5-4.07.19-2.75,3.02-5.85,5.71-9.25,8.96-.43-1.27-.81-1.93-.85-2.61-.59-9.89-1.12-19.79-1.7-29.68-.52-8.83-1.06-17.67-1.62-26.5-.04-.61-.28-1.2-.37-1.8-.23-1.53.2-2.26,1.98-2.14,10.4.72,20.8,1.3,31.2,2.02,9.51.66,19.01,1.45,28.97,2.21-.24.91-.21,1.98-.72,2.52-2.28,2.36-4.71,4.59-7.11,6.83-1.78,1.66-1.8,2.94-.08,4.63,1.31,1.29,2.59,2.6,3.86,3.93,2.32,2.45,3.51,2.3,5.2-.55,1.56-2.63,3.12-5.28,4.89-7.77,2.73-3.87,7.02-4.96,11.32-6.01,9.73-2.39,19.39-5.12,29.19-7.16,6.24-1.3,12.67-1.71,19.04-2.32,3.41-.33,3.94-.94,3.82-4.31-.12-3.49.22-7,.27-10.51.06-4.54.03-9.09.04-13.64,0-1.49.04-2.99.05-4.48,0-1.92-.95-2.58-2.84-2.47-2.95.18-5.91.19-8.87.25-1.28.03-2.56,0-4.16,0,.18-.64.17-1.27.48-1.63,10.64-12.21,21.32-24.39,31.96-36.59,2.76-3.16,5.42-6.39,8.13-9.59.53,0,1.06,0,1.58,0,1.05,1.38,2.03,2.84,3.18,4.14,7.36,8.32,14.78,16.59,22.15,24.91,4.65,5.25,9.24,10.55,13.82,15.85.53.61.89,1.35,1.33,2.03-.85.33-1.69.93-2.54.94-3.51.02-7.02-.08-10.53-.26-1.77-.09-2.69.56-2.7,2.34-.03,10.02-.06,20.04-.07,30.06,0,1.45.53,2.65,2.15,2.85,4.78.58,9.59.95,14.34,1.69,5.79.91,11.53,2.09,17.28,3.19,1.93.37,2.64,1.64,2.13,3.48-2.14,7.89-4.34,15.77-6.47,23.66-.18.65-.02,1.39-.02,2.7,1.72-1.11,2.94-1.86,4.13-2.67,1.94-1.32,3.87-2.68,5.8-4.03,4.52-3.15,9.17-6.14,13.52-9.51,3.56-2.75,10.66-2.07,13.22,1.78,1.89,2.84,3.52,5.85,5.37,8.71,1.38,2.14,2.34,2.2,4.14.45,2.39-2.31,4.75-4.66,7.16-6.94,2.48-2.35,2.43-3.03-.13-5.42-2.43-2.26-4.74-4.66-7.07-7.03-.44-.45-.69-1.08-1.15-1.84,1.99-.28,3.6-.62,5.22-.73,8.46-.56,16.92-1.04,25.38-1.61,9.59-.65,19.18-1.37,28.77-2.05,2.31-.16,3.03.47,2.97,2.86-.11,4.34-.25,8.68-.56,13.01-.61,8.63-1.33,17.25-2.01,25.87-.23,2.91-.48,5.82-.73,8.74-.31,3.58-.59,7.15-.96,10.72-.08.8-.45,1.57-.68,2.36-.7-.42-1.53-.72-2.09-1.29-2.63-2.7-5.22-5.46-7.77-8.24-1.08-1.18-2.1-1.12-3.15-.07-4.53,4.51-9.06,9.03-13.58,13.56-7.31,7.33-14.64,14.64-21.87,22.05-.82.84-1.39,2.24-1.49,3.43-.22,2.8-.18,5.62,0,8.43.04.73.83,1.56,1.48,2.08,1.27,1.02,2.88,1.68,4.02,2.81,1.92,1.9,3.57,4.06,5.36,6.09,2.98,3.38,5.01,6.98,2.73,11.59-.7,1.42-.2,2.56,1.08,3.02,1.76.62,3.5.97,3.74,3.31.04.36.95.84,1.5.91,3.46.45,6.92,1.05,10.39,1.13,7.68.17,15.37,0,23.05.08,9.69.1,19.39.2,29.07.55,4.57.17,4.56-1.29,4.52-4.72-.04-3.66-.01-7.33-.01-11.42.9.42,1.65.61,2.17,1.06,2.18,1.89,4.27,3.87,6.42,5.79,10,8.93,19.97,17.9,30.04,26.76,2.73,2.4,5.76,4.47,8.65,6.7v2.11c-3.32,2.79-6.66,5.55-9.96,8.37-7.32,6.25-14.63,12.52-21.93,18.81-4.71,4.06-9.38,8.17-14.1,12.22-.44.38-1.12.47-1.83.75,0-4.53-.08-8.65.03-12.77.06-2.29-1.4-3.89-3.59-3.63-1.47.17-2.95.38-4.43.37-8.35-.1-16.7-.3-25.05-.4-12.71-.16-25.42-.27-38.13-.39-2.49-.02-2.82.69-2.71,3.37.12,2.87.36,5.91-.43,8.6-3.13,10.65-5.62,21.54-10.85,31.48-.97,1.85-.63,3.46,1.07,5.1,4.93,4.73,9.67,9.67,14.41,14.59,4.56,4.73,9.02,9.57,13.55,14.33,1.6,1.68,3.29,3.28,4.99,4.97,4.02-3.77,7.8-7.31,11.58-10.85,1.12,9.23,1.69,17.97,2.28,26.71.45,6.65.96,13.29,1.38,19.94.29,4.64.5,9.29.72,13.94.06,1.25-.26,2.32-1.86,2.27-1.88-.07-3.77-.08-5.64-.24-6.95-.6-13.89-1.32-20.85-1.88-7.59-.62-15.19-1.11-22.79-1.66-2.36-.17-4.73-.27-7.08-.51-1.31-.13-2.6-.48-4.33-.82,3.9-3.93,7.37-7.43,10.89-10.98-.95-1.09-1.49-1.79-2.1-2.4-3.76-3.79-7.56-7.53-11.29-11.34-4.11-4.19-8.17-8.43-12.24-12.66-1.38-1.43-2.5-1.05-3.34.51-1.66,3.06-3.27,6.15-4.84,9.26-.62,1.23-1.32,2.5-1.53,3.83-.52,3.18-.96,6.4-1.09,9.62-.23,5.65-1.9,10.7-5.17,15.34-3.88,5.5-7.41,11.24-11.28,16.75-2.34,3.33-5.54,5.65-9.74,6.12-5.57.61-11.14,1.17-16.72,1.65-1.99.17-3.12.88-3.07,3.04.06,2.72-.02,5.45.02,8.18.05,2.58,1.12,3.13,3.67,2.95,3.64-.26,7.31-.07,11.56-.07-.57,1.23-.79,2.24-1.39,2.93-3.59,4.18-7.27,8.28-10.92,12.42-6.6,7.5-13.24,14.97-19.77,22.52-2.91,3.37-5.61,6.92-8.4,10.39h-1.06ZM228.7,109.57c-.18,0-.35,0-.53,0,0-4.48.12-8.97-.08-13.44-.05-1.09-.96-2.84-1.8-3.07-2.55-.71-5.34-1.38-7.91-1.05-6.13.78-12.16,2.32-18.28,3.21-6.51.95-10.77,4.68-13.71,10.2-1.84,3.45-2.44,3.69-6,2.02-3.63-1.71-7.3-3.77-11.47-2.93-3.47.7-6.89,1.85-10.16,3.21-1.51.63-3.06,1.98-3.85,3.41-2.4,4.34-4.56,8.84-6.58,13.37-.83,1.87-1.5,4-1.52,6.02-.13,12-.18,23.99-1.57,35.95-.84,7.21-.74,14.52-1.15,21.78-.25,4.49-.67,8.97-1.02,13.46-.34,4.27.42,8.03,4.6,10.29,6.71,3.63,13.63,6.78,21.03,8.68,3.76.97,6.25-.41,7.56-4.12,1.43-4.03,2.39-8.23,3.73-12.31.26-.8,1.28-1.35,1.96-2.02.58.66,1.45,1.23,1.7,2,1.08,3.3,1.94,6.68,2.98,10.01.72,2.32,1.35,4.72,2.46,6.86,2.28,4.38,6.57,5.11,10.97,5.39,4.11.26,8.26.3,12.33.83,5.21.68,11.1-2.05,13.48-6.68,2.68-5.21,3.17-10.91,3.19-16.59,0-1.97.3-3.4,1.41-5.04,1.28-1.89,2.46-4.15,2.68-6.35.25-2.52-3.57-5.76-5.95-5.81-2.69-.06-5.9,2.4-6.47,5.1-.21,1.02-.15,2.1-.18,3.15-.04,1.46-.91,2.16-2.22,1.97-4.83-.7-9.6-1.7-13.88-4.22-5.04-2.97-9.33-6.76-12.76-11.54-1.94-2.71-2.03-3.37.2-5.88,4.23-4.76,9.51-8.03,15.48-9.98,3.27-1.06,6.83-1.27,10.28-1.69,1.96-.24,3.06.54,3.05,2.85-.01,1.49.52,3.09,1.18,4.46,1.33,2.81,3.52,4.07,5.79,3.66,3.26-.58,4.85-2.51,5.3-5.93.36-2.74-1.35-4.37-2.8-6.24-.66-.84-1.4-1.93-1.42-2.92-.12-6.41-.05-12.83-.05-19.24,0-10.28,0-20.56,0-30.84ZM256.05,365.45s.02,0,.03,0c0,1.57,0,3.15,0,4.72-.01,10.55-.07,21.1-.02,31.66.02,3.13,2.06,5.57,4.77,6.16,4.27.93,8.55.94,12.75-.25,4.3-1.22,7.25-4.42,10.22-7.51,1.58-1.64,2.97-3.47,4.66-4.97,4.46-3.95,7.61-8.45,8.48-14.6,1.22-8.63,4.63-16.54,10.3-23.17,5.99-7,12.38-13.65,18.69-20.36,4.08-4.34,8.7-8.23,12.42-12.85,4.7-5.83,8.52-12.26,11.72-19.16,5.38-11.59,7.31-23.66,7.01-36.24-.07-2.97-.82-3.53-3.74-3.06-.86.14-1.68.48-2.52.73-2.84.84-5.66,1.76-8.53,2.5-8.51,2.22-17.04,4.36-25.56,6.54-4.67,1.2-6.75,4.48-7.58,9.03-.78,4.29-1.9,8.52-3.05,12.73-.24.9-1.25,1.59-1.9,2.37-.68-.79-1.66-1.47-1.98-2.38-1.21-3.54-2.15-7.16-3.29-10.73-1.75-5.49-5.04-7.54-10.78-6.97-4.18.42-8.41.53-12.57,1.09-5.04.67-10.08,1.68-14.19,4.92-2.81,2.21-4.78,5.16-4.91,8.93-.17,5-.28,10-.32,15-.08,9.83-.11,19.66-.13,29.49-.02,8.78,0,17.56,0,26.34ZM266.63,164.32c.18-.05.52-.21.85-.21,7.33-.06,14.18,1.73,20.18,5.94,2.9,2.03,5.42,4.66,7.9,7.22.58.6.72,2.18.37,3.02-.67,1.59-1.61,3.2-2.84,4.39-6.59,6.44-13.76,11.88-23.47,12.57-2.82.2-4.16.36-3.94-3.28.23-3.84-2.73-6.57-6.61-6.66-2.88-.07-6.95,4.56-5.99,6.98.67,1.68,1.78,3.17,2.59,4.8.53,1.07,1.14,2.21,1.25,3.37.34,3.46.23,6.98.7,10.41,1.48,10.69,6.3,14.26,14.44,14.76,6.16.38,12.42-.59,18.61-1.22,3.21-.32,5.76-1.91,6.78-5.32.97-3.25,2.1-6.45,3.13-9.69.71-2.25,1.28-4.54,2.09-6.75.26-.7,1.11-1.19,1.68-1.77.44.56,1.01,1.06,1.3,1.69.55,1.18,1,2.42,1.38,3.67.97,3.17,1.71,6.42,2.84,9.54,1.45,4,5.7,5.69,9.41,4.09,5.84-2.51,11.69-4.99,17.58-7.36,3.83-1.55,6.64-5.87,6.32-9.9-.32-4.1-.57-8.21-.76-12.32-.31-6.84-.47-13.69-.85-20.53-.39-6.98-1.15-13.94-1.41-20.92-.26-6.94-.07-13.89-.13-20.84,0-.84-.13-1.75-.45-2.52-1.01-2.4-2.13-4.76-3.24-7.12-1.84-3.92-3.24-8.1-6.56-11.17-1.43-1.33-2.85-1.58-4.44-.27-4.59,3.79-9.2,7.56-13.8,11.33-8.86,7.27-17.72,14.54-26.6,21.79-.28.23-.76.2-1.28.32,0-.96-.15-1.78.02-2.51,1.25-5.23,2.6-10.43,3.85-15.66,1.9-7.98,3.62-16,5.69-23.94.61-2.32-.34-3.24-2.09-3.65-5.09-1.2-10.2-2.28-15.33-3.27-3.14-.61-6.37-.82-9.49-1.51-4.32-.96-7.63,1.52-7.72,5.92-.11,5.09-.39,10.18-.46,15.28-.19,14.85-.32,29.7-.45,44.55-.02,2.34-.36,4.37-2.21,6.18-2.59,2.53-2.69,4.91-1.18,8.17,1.1,2.38,3.17,2.82,5.42,3.01,2.2.18,3.84-.89,4.59-2.81.94-2.41,1.49-4.97,2.31-7.81ZM213.09,294.31c.19.14.39.28.58.42.04.41.13.83.11,1.24-.17,4.07-.39,8.15-.52,12.22-.21,6.62-.36,13.24-.54,19.87-.19,7.1-.47,14.2-.57,21.3-.09,6.21-.62,12.32-2.01,18.42-2.27,9.96-3.94,20.06-6.08,30.05-.92,4.27-.36,6.15,4.44,8.34,3.92,1.79,8.11,2.09,12.36,1.94,4.84-.17,6.76-1.93,7.28-6.75.08-.7.05-1.41.05-2.11.04-10.19.07-20.39.13-30.58.11-18.1.21-36.2.38-54.3.05-5.43.55-10.86.43-16.28-.1-4.37-.82-8.58-4.47-11.89-3.01-2.73-6.6-4.02-10.26-4.87-5.01-1.16-10.21-1.46-15.28-2.41-5.82-1.08-10.89.25-13.21,8.22-.95,3.26-2.08,6.46-3.28,9.63-.28.74-1.14,1.27-1.74,1.89-.55-.71-1.38-1.34-1.6-2.14-1.04-3.89-1.9-7.82-2.85-11.73-.77-3.18-.61-6.87-3.96-8.79-2.23-1.28-4.6-2.48-7.06-3.16-9.09-2.52-18.25-4.8-27.37-7.21-1.94-.51-3.83-1.22-5.77-1.73-2.34-.62-4.05.26-4.1,2.32-.08,3.77-.19,7.59.26,11.32.85,7.03,1.84,14.1,4.92,20.6,2.91,6.13,5.43,12.53,9.06,18.21,5.88,9.19,14.13,16.44,21.52,24.4,3.31,3.56,6.44,7.28,9.57,11,1.73,2.06,3.3,1.88,4.49-.6.83-1.72,1.71-3.44,2.73-5.05,1.29-2.05,2.89-3.93,4.12-6.01,3.63-6.16,7.08-12.43,10.74-18.58,4.79-8.04,9.69-16.01,14.62-23.96.75-1.22,1.92-2.18,2.89-3.26ZM248.51,265.83c0-.12.01-.24.02-.36,1.41,0,2.83.14,4.21-.02,8.18-.94,16.36-1.85,24.51-2.98,8.38-1.16,16.8-2.24,25.07-3.98,7.85-1.65,15.58-3.95,23.27-6.26,4.24-1.28,8.36-3.04,12.41-4.88,1.32-.6,2.64-1.91,3.25-3.23,1.78-3.79,3.23-7.74,4.71-11.67.23-.62-.04-1.43-.08-2.15-.8.06-1.74-.14-2.37.21-7.01,3.93-14.62,6.33-22.31,8.32-11.9,3.08-24.16,4.17-36.36,5.35-8.19.79-16.45,1.05-24.68,1.13-9.91.09-19.84-.19-29.75-.47-7.18-.2-14.37-.49-21.52-1.07-8.72-.71-17.45-1.54-26.11-2.78-7.16-1.02-14.39-2.17-21.29-4.27-6.47-1.97-12.52-5.28-18.79-7.93-.86-.36-1.88-.32-2.83-.47.08.88,0,1.81.28,2.63.72,2.14,1.51,4.25,2.42,6.31,1.08,2.44,1.77,5.42,3.61,7.06,2.4,2.13,5.63,3.56,8.74,4.6,7.05,2.37,14.16,4.62,21.38,6.35,10.32,2.48,20.73,4.68,31.17,6.57,6.36,1.15,12.85,1.58,19.29,2.18,7.24.68,14.49,1.21,21.73,1.8Z"/>
  </g>
</svg>