<?xml version="1.0" encoding="UTF-8"?>
<svg id="Layer_2" data-name="Layer 2" xmlns="http://www.w3.org/2000/svg" viewBox="0 0 250.32 260.05">
  <defs>
    <style>
      .cls-1 {
        stroke-width: 0px;
      }
    </style>
  </defs>
  <g id="Layer_1-2" data-name="Layer 1">
    <g>
      <path class="cls-1" d="M59.19,129.61c.63,3,1.11,5.7,1.78,8.36.5,1.97,1.19,3.9,1.87,5.83.58,1.66.4,3.13-.84,4.4-1.54,1.58-3.05,3.2-4.67,4.7-1.35,1.25-2.33.96-3.19-.64-3.01-5.61-4.3-11.76-5.75-17.88-.66-2.79-1.89-5.34-5.07-6.3-4.65-1.41-8.28,2.15-8.06,5.99.05.88,0,1.76,0,2.91-.93-.25-1.7-.35-2.39-.65-6.49-2.81-12.96-5.68-19.45-8.48-3.95-1.7-7.95-3.3-11.9-5-.61-.26-1.49-.79-1.52-1.26-.04-.53.61-1.31,1.16-1.64,2.28-1.34,4.61-2.6,6.97-3.78,2.52-1.26,5.07-2.46,7.65-3.59,1.7-.74,3.47-1.32,5.21-1.96,1.95-.72,3.91-1.44,5.87-2.14,1.84-.65,3.67-1.34,5.55-1.88.81-.23,1.71-.14,2.77-.21-.08.95-.12,1.56-.18,2.16-.38,3.97,2.4,6.79,6.22,7.33,2.82.4,5.6-1.92,5.92-4.98.84-8.04,3.82-15.44,6.87-22.78,2-4.82,5.07-9.11,8.28-13.25.96-1.24.68-4.62-.4-5.79-2.52-2.76-7.77-2.98-10.52-.47-.47.43-1.05.74-1.87,1.31-.93-2.04-1.77-3.8-2.54-5.59-2.19-5.1-4.41-10.19-6.49-15.33-1.72-4.24-3.28-8.55-4.86-12.84-.5-1.35.27-2.07,1.73-1.6,3.06.99,6.12,2.01,9.13,3.13,3.17,1.18,6.29,2.47,9.41,3.76,4.79,1.99,9.55,4.03,14.32,6.06.21.09.44.17.6.32.55.51,1.08,1.05,1.61,1.58-.53.35-1.06.7-1.58,1.05-1.57,1.04-2.82,2.3-2.88,4.34-.07,2.47.64,4.62,2.82,6,2.45,1.54,4.6,1.17,7.37-.77,2.44-1.71,4.97-3.33,7.59-4.76,5.35-2.91,11.02-5.08,16.89-6.67,3.05-.83,6.17-1.35,9.24-2.09,1.64-.4,3.46-.66,4.79-1.57.99-.68,1.83-2.29,1.87-3.52.13-3.8-3.7-6.95-7.51-6.52-.38.04-.76,0-1.63,0,.48-2.04.83-3.89,1.37-5.68.55-1.83,5.66-13.6,7.45-17.72,1.16-2.67,2.11-5.44,3.34-8.08.54-1.17,1.4-2.31,2.4-3.1,1.04-.82,1.75.17,2.17,1.1,1.08,2.43,2.07,4.9,3.17,7.33,3.12,6.86,6.3,13.69,9.38,20.56.86,1.92,1.49,3.94,2.26,6.02-1.82,0-3.34-.13-4.83.03-2.3.24-4.01,2.02-4.56,4.63-.48,2.3-.58,4.69,1.73,6.08,1.14.69,2.69.69,4.03,1.06,4.39,1.19,8.87,2.17,13.14,3.7,4.08,1.46,8.05,3.32,11.89,5.34,2.98,1.56,5.67,3.66,8.52,5.48,1.28.82,2.59,1.64,3.97,2.24,1.68.72,5.16-.97,5.86-2.68.32-.78.8-1.55.9-2.36.3-2.39-.25-4.47-2.51-5.85-1.52-.93-1.56-1.73-.17-2.88.91-.75,9.41-4.43,12.66-5.59,3.87-1.37,7.76-2.68,11.66-3.97,2.57-.85,5.15-1.65,7.76-2.37,2.3-.63,3.09.14,2.35,2.35-.62,1.88-1.58,3.63-2.29,5.49-3.25,8.58-6.45,17.18-9.68,25.76-.15.39-.44.73-.74,1.21-.45-.31-.85-.45-1.06-.73-1.7-2.26-4.14-2.93-6.74-2.97-4.57-.07-7.26,4.38-5.05,8.41,1.44,2.62,3.22,5.06,4.83,7.59,3.13,4.94,5.84,10.11,7.57,15.71,1.11,3.61,1.72,7.37,2.68,11.03.44,1.67,1.01,3.38,1.88,4.86,1.37,2.35,4.44,2.36,6.74,1.59,2.99-1,4.64-3.66,4.07-6.85-.33-1.85.34-2.46,2.12-1.79,3.23,1.22,6.41,2.56,9.59,3.91,3.33,1.42,6.67,2.84,9.93,4.42,4.16,2.03,8.27,4.18,12.36,6.36,1.06.56,1.01,1.47,0,1.9-4.16,1.77-8.32,3.52-12.49,5.26-5.75,2.4-11.5,4.8-17.25,7.18-.91.38-1.86.67-3.08,1.1-.07-1-.15-1.64-.14-2.28.06-7.5-11.89-9.79-13.23-1.78-.94,5.63-1.77,11.32-4.4,16.5-.59,1.17-1.4,2.22-2.32,3.66-1.78-1.53-3.15-2.86-4.67-3.99-2.78-2.06-3.62-4.4-2.37-7.86,1.17-3.22,1.55-6.73,2.34-10.09.29-1.23-.21-1.97-1.32-2.09-2.24-.25-4.51-.47-6.75-.4-.68.02-1.65.92-1.93,1.63-1.73,4.43-3.33,8.91-4.93,13.39-.56,1.57-.25,3,1.02,4.19.58.54,1.04,1.2,1.6,1.76,2.63,2.63,2.98,5.99,1.61,9-2.46,5.38-3.01,10.82-2.42,16.57.4,3.96.23,7.95-2.79,11-1.98,2-4.31,3.66-6.47,5.48-1.16.98-2.28,2.01-3.47,2.95-.86.67-1.76,1.36-2.75,1.79-1.15.5-1.26,1.33-1.19,2.34.27,4.24.61,8.49.78,12.73.26,6.49-.39,12.9-1.74,19.26-.94,4.45-1.98,8.83-3.99,12.95-2.47,5.06-5.64,9.56-10.23,12.93-.4.29-1.31.52-1.51.31-.45-.46-.86-1.22-.84-1.84.13-3.05.51-6.1.62-9.15.17-4.76.21-9.52.27-14.28,0-.58-.18-1.16-.36-2.24-1.83,1.53-3.3,2.81-4.84,4-.58.45-1.32.68-1.99,1.02-.29-.7-.7-1.37-.83-2.1-.3-1.64-.46-3.31-.68-4.97-.18-.1-.35-.19-.53-.29-.69.64-1.42,1.24-2.05,1.94-1.06,1.18-1.99,2.47-3.07,3.62-1.11,1.18-2.03.96-2.37-.63-.58-2.65-.99-5.34-1.49-8.01-.1-.51-.25-1.01-.38-1.52-.23,0-.46,0-.7-.01-.51,3.59-1.02,7.19-1.55,10.89-4.09-.74-4.97-4.68-7.7-6.83-.95,1.66-.79,3.27-.81,4.89,0,.75-.23,1.97-.69,2.15-.68.27-1.77.02-2.45-.4-1.04-.65-1.86-1.64-2.8-2.46-.45-.39-.96-.71-1.85-1.36-.49,9.43-.55,18.36,1.75,27.71-1-.21-1.69-.2-2.2-.49-4.36-2.47-7.53-6.13-10.05-10.38-3.86-6.48-5.73-13.61-6.93-20.99-1.49-9.14-1.4-18.28-.58-27.46.1-1.1-.25-1.67-1.35-1.95-.67-.17-1.32-.6-1.87-1.05-2.1-1.72-4.12-3.53-6.23-5.22-2.66-2.12-5.4-4.1-6.92-7.34-1.14-2.45-1.28-4.99-1.31-7.6-.04-3.5.05-7.02-.33-10.49-.2-1.84-1.13-3.65-1.98-5.35-2.18-4.36-1.79-8.26,1.7-11.51,2.09-1.94,2.59-3.83,1.46-6.46-1.75-4.1-3.25-8.31-4.91-12.45-.19-.47-.65-1.03-1.11-1.17-2.56-.82-5.19-.72-8.32-.54ZM150.69,245.88c.26.07.51.13.77.2.67-1.27,1.49-2.49,2-3.83,1.76-4.68,3.07-9.47,3.67-14.46.99-8.18,1.78-16.34.39-24.55-.41-2.44-1.17-4.44-3.68-5.66-2.82-1.38-3.95-4.11-3.37-6.76.32-1.45,1.16-2.08,2.66-2.04,1.93.05,2.53,1.41,3.14,2.86,1.34,3.15,5.23,4.01,7.79,1.76,1.78-1.57,3.54-3.18,5.33-4.74,2.96-2.58,4.84-5.66,4.63-9.75-.05-.96-.04-1.93-.09-2.89-.29-5.15-.77-10.29,2.26-14.97,1.08-1.66.76-3.59-.39-5.12-.93-1.24-2.11-2.36-3.37-3.25-1.65-1.15-2.39-2.62-2.01-4.5.37-1.81.9-3.62,1.59-5.34,1.37-3.41,3.06-6.69,4.31-10.14,2.2-6.05,3.64-12.09,2.22-18.75-2.11-9.88-6.66-18.27-13.72-25.31-8.7-8.67-19.45-13.57-31.36-15.95-7-1.4-14.03-1.15-21.11.15-9.1,1.68-17.09,5.64-24.33,11.09-6.46,4.86-11.04,11.33-13.9,18.93-2.51,6.69-3.68,13.58-1.9,20.64,1,3.99,2.29,7.92,3.74,11.77,1.32,3.49,3.2,6.76,4.54,10.25,1.13,2.94.22,5.26-2.49,6.57-3.58,1.74-3.81,5.09-2.45,7.94,2.22,4.69,2.41,9.57,2.58,14.59.09,2.88.31,6.03,1.52,8.55,2.01,4.18,5.87,6.98,9.58,9.66,2.53,1.83,4.53,1.09,6.09-1.72.27-.5.59-.97.87-1.46.81-1.41,2.27-1.97,3.93-1.45,1.52.48,1.99,1.65,2.12,3.13.25,2.95-1.47,4.52-3.85,5.54-1.91.81-2.8,2.3-3.1,4.15-.37,2.29-.71,4.61-.68,6.92.06,4.07.43,8.14.66,12.21.46,8.06,2.31,15.77,5.83,23.04.35.73,1.01,1.31,1.53,1.97.17-.08.34-.17.52-.25,0-3.04.04-6.08,0-9.12-.13-7.42-.64-14.85,1.02-22.18.11-.47.57-.87.87-1.3.32.45.79.85.94,1.35.71,2.38,1.18,4.85,2.04,7.17.61,1.65,1.41,3.39,3.44,4.29.26-1.07.47-1.89.66-2.71.74-3.14,1.43-6.29,2.24-9.42.19-.73.77-1.35,1.17-2.02.19.04.39.08.58.12.2.67.44,1.33.58,2.01.45,2.28.75,4.6,1.34,6.83.44,1.67,1.28,3.21,3.24,4.36.29-1.43.55-2.56.74-3.7.54-3.29.95-6.61,1.61-9.88.26-1.29.98-2.53,1.66-3.69.79-1.34,1.84-1.29,2.54.12.73,1.46,1.48,2.97,1.86,4.55.84,3.53,1.42,7.11,2.17,10.66.14.66.59,1.25,1.01,2.09,3.63-3.89,2.64-8.9,4.72-13.01.64.68,1.18,1.37,1.39,2.14.91,3.45,1.7,6.94,2.58,10.4.14.55.45,1.06.88,2.04.89-1.27,1.75-2.08,2.11-3.07.93-2.6,1.63-5.28,2.44-7.93.28-.93.61-1.84.91-2.77.26,0,.51,0,.77.01.25,1.21.65,2.41.72,3.62.41,7.92.75,15.85,1.11,23.77.09,2.07.17,4.14.26,6.21ZM133.65,59.29c-.08,2.28-.17,4.58-.25,6.89-.04,1.24.66,1.83,1.8,2.08,2.2.49,4.41.95,6.58,1.56,4.91,1.37,9.63,3.2,14.05,5.78,1.68.98,3.48,1.75,5.05,2.53,1.93-1.78,3.57-3.29,5.16-4.76-3.83-6.15-26.21-15.92-32.41-14.07ZM89.23,76.41c2.98-1.47,5.45-2.84,8.02-3.93,5.85-2.48,12.12-3.52,18.27-4.9,1.35-.3,1.84-.96,1.84-2.17,0-1.63,0-3.27-.09-4.9-.06-1.18-.66-1.95-1.95-1.84-1.97.17-3.99.16-5.88.65-3.44.89-6.85,1.94-10.18,3.18-4.52,1.68-8.75,3.94-12.57,6.94-1.03.81-1.46,1.8-.65,2.93.99,1.4,2.12,2.7,3.16,4.02ZM191.15,116.44c.11-.96.39-1.82.26-2.61-1.69-10.49-5.49-20.06-12.5-28.2-.7-.81-1.42-.94-2.2-.28-1.31,1.11-2.48,2.38-2.58,4.2-.04.78.08,1.67.43,2.34.63,1.19,1.56,2.22,2.26,3.38,2.15,3.53,4.1,7.14,5.14,11.19.84,3.28,1.82,6.53,2.79,9.97h6.39ZM66,110.36c.84-3.7,1.98-7.46,3.55-10.92s3.54-6.52,5.64-9.56c2.25-3.26,2.25-3.6-.62-6.38-.12-.12-.24-.24-.37-.35-1.21-1.06-1.88-1.05-2.79.23-4.66,6.53-8.8,14.13-10.24,22.11-.37,2.02-.48,4.07-.32,6.12.08,1.01.47,1.71,1.89,1.45.69.01,1.49.08,2.16-.12.66-.19.71-.66.82-1.24.09-.45.18-.9.28-1.34Z"/>
      <path class="cls-1" d="M116.64,169.57c-2.42,1.2-4.35,2.24-6.34,3.12-3.88,1.73-7.79,3.36-12.12,3.69-4.55.34-8-1.4-10.17-5.35-1.76-3.2-2.94-6.64-2.78-10.39.07-1.62.41-3.12,1.7-4.28,1.23-1.11,2.88-1.24,3.91.04,2.17,2.71,5.06,4.51,7.87,6.41,3.05,2.07,6.69,2.32,10.17,3.09,2.07.46,4.08,1.26,6.07,2.03.54.21.92.86,1.7,1.64Z"/>
      <path class="cls-1" d="M166.22,163.19c.07,4.04-1.41,7.56-3.77,10.7-1.98,2.64-7.12,3.89-10.43,3.11-5.18-1.23-9.92-3.47-14.6-5.89-2.09-1.08-2.22-2-.12-3.09,1.72-.89,3.69-1.32,5.59-1.81,2.84-.73,5.77-1.13,8.55-2.05,3.04-1,5.54-3.01,7.75-5.32.99-1.04,1.66-2.55,3.53-2.05,1.5.4,3.16,2.52,3.38,4.35.08.67.08,1.36.12,2.04Z"/>
      <path class="cls-1" d="M118.97,191.09c-.09-.51-.27-1.02-.27-1.53-.03-5.69,2.69-10.15,6.36-14.18.78-.85,1.56-.47,2.18.23,3.43,3.82,5.87,8.15,6.66,13.3.15.96.24,1.93.36,2.9l-.5.27c-.67-.69-1.32-1.38-2-2.05-.92-.91-1.74-1.97-2.8-2.66-2.95-1.92-6.02-.98-8.23,2.33-.37.56-.84,1.05-1.26,1.57-.16-.06-.33-.11-.49-.17Z"/>
    </g>
  </g>
</svg>