<?xml version="1.0" encoding="UTF-8"?>
<svg id="Layer_2" data-name="Layer 2" xmlns="http://www.w3.org/2000/svg" viewBox="0 0 98.16 160.08" fill="currentColor">
  <defs>
    <style>
      .cls-1 {
        stroke-width: 0px;
      }
    </style>
  </defs>
  <g id="Layer_1-2" data-name="Layer 1">
    <g>
      <path class="cls-1" d="M98.16,13.91c-1.41-.02-2.82-.03-4.23-.08-.17,0-.44-.25-.48-.43-.66-2.47-2.64-3.37-4.82-3.81-1.77-.35-3.62-.58-5.42-.48-4.4.23-8.42,1.68-11.35,5.08-1.54,1.79-2.67,3.89-2.86,6.48-.19,2.52.08,9.81.09,10.99.02,2.07.22,4.13.21,6.2-.02,3.55-.13,7.09-.25,10.64-.01.39-.28.83-.56,1.13-1.04,1.11-2.14,2.16-3.21,3.23-.49.49-.9.62-1.61.17-3.08-1.98-6.45-3.36-10.03-4.02-3.64-.67-7.33-.56-10.94.49-2.86.83-5.53,2.07-8.07,3.59-.41.25-.59.21-.87-.08-1.28-1.3-2.58-2.57-3.85-3.87-.82-.84-.97-1.8-.89-3,.18-2.6.09-5.22.1-7.83,0-.36-.02-.72-.02-1.08,0-4.92-.06-9.84.02-14.76.08-5.04-2.4-8.61-6.44-11.12-1.58-.98-3.6-1.37-5.48-1.75-1.81-.37-3.69-.52-5.54-.49-1.92.03-3.89.28-5.47,1.56-.65.53-1.32,1.21-1.58,1.97-.35,1.01-.9,1.27-1.84,1.24-.92-.03-1.84.02-2.76.04V0h98.16v13.91ZM40.01,23.96c.47.45,1.17,1.1,1.85,1.77,2.01,2,4,4.01,6.02,6,.91.9,1.41.94,2.23.18.95-.89,1.99-1.72,2.73-2.77,1.26-1.78,3.1-2.91,4.57-4.45.9-.94,1.04-1.02.11-1.93-2.02-1.97-4.08-3.9-6.1-5.88-.77-.75-1.46-1.57-2.45-2.64-3.06,3.32-5.96,6.48-8.95,9.72Z"/>
      <path class="cls-1" d="M0,146.16c1.16.02,2.32.05,3.47.04.6,0,.92.05,1.13.8.68,2.4,2.73,3.23,4.9,3.76,5.54,1.35,10.43-.26,14.95-3.42,2.55-1.78,4.07-4.23,4.58-7.3.06-.39.06-.79.06-1.19,0-7.52.02-15.03-.01-22.55,0-1.4.48-2.36,1.68-3.14,1.51-.99,2.86-2.23,4.34-3.29.48-.34,1.14-.57,1.72-.59,2.05-.07,4.1-.03,6.15-.03,1.25,0,2.5,0,3.75,0,.92,0,1.84-.02,2.76,0,1.95.06,3.89.25,5.84.21,1.85-.03,3.7-.29,5.55-.44,1.26-.1,2.4.19,3.41,1.02,1.28,1.05,2.63,2.02,3.9,3.08.32.27.63.74.64,1.14.13,3.42.23,6.85.26,10.27.04,4.52.01,9.04,0,13.55,0,3.96,1.75,6.98,4.77,9.47,2.58,2.13,5.56,2.97,8.75,3.5,2.91.47,5.68.12,8.3-1.1,1.31-.61,2.58-1.43,2.8-3.12.07-.5.47-.63.98-.62,1.16.02,2.32-.02,3.47-.04v13.92H0c0-4.64,0-9.28,0-13.92ZM49.48,145.29c.3-.28.51-.46.71-.65,1.53-1.45,3.07-2.89,4.59-4.35,1.09-1.05,2.16-2.14,3.22-3.22.35-.36.81-.71.24-1.28-2.63-2.62-5.24-5.26-7.89-7.87-.72-.71-1.17-.66-1.91.1-.47.48-.83,1.06-1.31,1.53-2.24,2.16-4.51,4.3-6.77,6.45,3.07,3.12,6.09,6.2,9.13,9.29Z"/>
      <path class="cls-1" d="M49.12,105.87c-.89.48.08,1.78-1.03,2-.76.15-1.58.32-1.97-.4-.53.18-.97.47-1.4.45-1.01-.05-2.02-.27-3.03-.36-.33-.03-.68.14-1.02.18-.78.08-1.57.21-2.35.17-.69-.03-.83-.59-.84-1.21-.04-2.12.51-4.14,1.1-6.15.15-.52.26-1.07.34-1.61.06-.46-.16-.67-.64-.55-.61.15-1.22.28-1.84.43-3.33.81-4.93-1.03-5.61-3.42-.46-1.63-.82-3.23-1.8-4.67-1-1.47-.69-3,.28-4.4.71-1.02,1.36-2.05,1.2-3.36-.04-.34-.27-.66-.38-1-.06-.17-.14-.38-.08-.53.64-1.62.07-3.12-.48-4.59-.91-2.45-1.78-4.94-1.85-7.53-.05-1.93.35-3.95.99-5.78.91-2.61,2.35-4.97,4.38-6.96,2.97-2.91,6.56-4.6,10.51-5.65,2.28-.61,4.6-.9,6.94-.7,5,.42,9.62,1.83,13.57,5.16,3.35,2.82,5.45,6.3,6.32,10.54.66,3.21.3,6.36-.89,9.42-.96,2.47-1.64,5.01-1.69,7.69-.02,1.12.39,1.98,1.16,2.75,1.45,1.45,1.59,2.42.8,4.37-.77,1.89-1.5,3.8-2.18,5.73-.87,2.45-3.16,3.72-5.66,3.09-.57-.15-1.14-.31-1.7-.49-.67-.22-.9-.06-.7.66.42,1.51.9,3.02,1.17,4.56.2,1.16.13,2.38.14,3.57,0,.15-.26.42-.41.43-.88.04-1.77.02-2.66.01-.29,0-.58-.05-.87-.01-.5.06-1.01.29-1.5.24-1.27-.12-2.51-.17-3.8-.03-2.17.24-2.19.1-2.53-2.02ZM52.55,89.22c.26.22.45.44.68.57,2.55,1.41,5.19,2.57,8.13,2.95,1.06.14,1.84-.09,2.47-.88,1.03-1.27,1.56-2.74,1.46-4.37-.03-.5-.31-1.16-.69-1.42-1.28-.85-2.62-1.3-4.21-.56-1.59.73-3.3,1.23-4.96,1.81-1.09.38-2.17.75-2.88,1.9ZM33.78,87.33c.22,1.81.69,3.41,1.78,4.69.41.48,1.3.93,1.85.82,2.06-.41,4.1-.99,6.11-1.65.88-.29,1.67-.87,2.45-1.4.62-.43.49-.98-.08-1.35-.45-.29-.98-.5-1.5-.67-.81-.28-1.67-.43-2.46-.76-1.27-.53-2.5-1.16-3.74-1.75-1.29-.62-3.53.14-4.17,1.44-.12.24-.19.5-.24.63ZM51.79,98.74c.11-.06.21-.13.32-.19.07-2.21-.91-4.06-2.17-5.77-.12-.17-.81-.15-1.04.04-1.68,1.33-2.02,3.37-2.61,5.27-.05.15.06.49.16.51.2.05.49.02.64-.11.46-.38.86-.83,1.29-1.24.74-.7,1.15-.7,1.91.03.5.48,1,.97,1.5,1.46Z"/>
      <path class="cls-1" d="M95.68,115.61c-.29.87-.42,1.72-.82,2.4-.73,1.24-2.56,1.69-3.89.94-.83-.47-1.35-.38-1.89.34-.88,1.17-1.85,2.27-2.65,3.48-.58.87-.68,1.9-.47,2.97.13.65.19,1.34.13,2-.11,1.26-.9,1.91-2.2,2.05-1.19.12-2.26-.24-3.32-.72-1.93-.87-3.92-1.64-5.78-2.64-1.71-.93-1.87-1.79-1.06-3.53.2-.43.42-.85.64-1.27,1.01-1.91.42-4.07-.87-5.32-1.39-1.35-2.9-2.57-4.39-3.8-1.85-1.54-3.74-3.03-5.61-4.56-.59-.48-.81-1.1-.84-1.88-.05-1.18-.27-2.34-.39-3.52-.05-.43-.03-.87-.06-1.31-.04-.55.23-.68.73-.61,2.12.3,3.84-.35,5.1-2.12.87-1.21.98-1.22,2.08-.12,1.92,1.92,3.86,3.83,5.76,5.77,1.11,1.13,2.16,2.33,3.26,3.48.92.98,2.09,1.54,3.39,1.8.61.13,1.27.13,1.52-.69.55-1.78,1.99-2.48,3.91-2.09,1.83.37,3.16,1.45,4.26,2.84.95,1.2,1.81,2.49,2.6,3.8.41.68.57,1.51.85,2.31Z"/>
      <path class="cls-1" d="M12.77,125.62c.39-1.95-.43-3.46-1.7-4.84-.5-.55-.9-1.2-1.35-1.79-.37-.5-.79-.56-1.35-.24-1.14.66-2.34.88-3.44-.02-1.25-1.02-1.74-2.27-1.36-4,.31-1.42,1.25-2.34,1.98-3.43.53-.78,1.12-1.53,1.69-2.28,1.88-2.52,3.93-2.8,6.48-2.08.36.1.7.61.85,1.01.65,1.69.65,1.64,2.39,1.34,2.43-.43,3.67-2.33,5.18-3.92,1.56-1.64,3.16-3.23,4.72-4.85.63-.66,1.19-1.38,1.83-2.03.9-.93,1.04-.96,1.87,0,1.4,1.61,3.12,2.52,5.24,2.62.46.02.66.16.6.64-.24,1.87-.48,3.75-.71,5.62-.14,1.11-1.16,1.49-1.84,2.05-2.6,2.11-5.31,4.09-7.97,6.13-2.25,1.72-2.51,4.55-1.16,6.66.65,1,1.43,2.13.47,3.38-.34.45-.8.89-1.31,1.11-2.53,1.09-5.13,2.02-7.62,3.18-1.61.75-3.62-1.01-3.51-2.55.04-.56,0-1.12,0-1.68Z"/>
      <path class="cls-1" d="M82.74,30.29c1.55-.01,2.6.66,2.88,1.91.22.96.12,2,.31,2.97.14.71.32,1.63.81,1.99.96.69,1.42,1.66,2.04,2.56.84,1.22,2.01,1.34,3.09.34.22-.21.45-.62.65-.6.53.05,1.12.17,1.56.46,1.09.73,2.2,1.52,2.21,3.04,0,.57-.01,1.16-.14,1.71-.18.8-.44,1.58-.7,2.37-.08.25-.21.5-.37.71-1.23,1.63-2.56,3.2-3.69,4.9-.56.84-1.21.88-2.01.8-.67-.06-1.34-.25-1.99-.2-.89.07-1.31-.37-1.61-1.1-.46-1.12-.88-1.34-2-.98-1.98.62-3.35,1.93-4.47,3.66-1.39,2.15-2.96,4.18-4.49,6.23-.54.73-1.17,1.4-1.81,2.05-.94.97-.91.93-1.59-.3-1.03-1.85-2.08-3.7-3.23-5.48-.49-.76-1.23-1.35-1.87-2.01-.99-1.04-.9-1.16.12-2.1,2.66-2.47,5.35-4.92,7.8-7.59,1.56-1.7,1.69-4.21.25-6.37-1.84-2.78-1.88-3.23.78-5.05,2.1-1.44,4.46-2.5,6.71-3.7.3-.16.67-.19.76-.21Z"/>
      <path class="cls-1" d="M33.24,54.08c-5.07,5.63-5.06,6.22-6.64,9.8-1.26-1.54-2.54-2.99-3.69-4.52-1.53-2.05-2.93-4.2-4.46-6.25-1.13-1.5-2.78-2.16-4.59-2.41-.2-.03-.53.35-.68.6-.46.83-.87,1.66-1.91,1.93-1.78.47-3.23-.23-4.35-1.45-1.74-1.91-3.11-4.08-3.81-6.61-.12-.42-.28-.82-.37-1.24-.45-2.05,1.65-4.5,3.69-4.24.51.07.96.51,1.45.77.97.52,1.41.49,2.01-.38.67-.98,1.34-1.87,2.36-2.57.49-.34.63-1.31.75-2.02.12-.74.06-1.52.02-2.27-.07-1.77,1.92-3.63,3.94-2.59,2.52,1.3,5.01,2.66,7.45,4.1.93.55,1.67,1.53.86,3.17-.35.71-.71,1.41-1.14,2.07-1.34,2.03-.54,4.83,1.04,6.26,2.3,2.08,4.56,4.21,6.81,6.34.48.45.86,1.01,1.27,1.51Z"/>
      <path class="cls-1" d="M86.83,79.92c0,1.72,0,3.43,0,5.15,0,1.25-.65,1.67-1.84,1.15-.39-.17-.66-.58-1.05-.76-.66-.31-1.36-.73-2.05-.76-3.54-.15-7.08-.2-10.61-.27-1.63-.03-1.57,0-1.65-1.64-.11-2.22.38-4.29,1.14-6.36.29-.79.67-1.04,1.46-1.04,2.79.03,5.59-.05,8.38.03,1.72.05,3.07-.68,4.25-1.75.59-.53.93-.13,1.44-.02.67.15.52.59.52.99.01,1.76,0,3.51,0,5.27Z"/>
      <path class="cls-1" d="M11.81,79.98c0-1.72-.02-3.43.01-5.15,0-.36.14-1,.27-1.01.47-.06,1.18-.08,1.43.2,1.12,1.29,2.53,1.45,4.1,1.41,2.59-.07,5.19.03,7.78-.04,1.15-.03,1.8.34,2.18,1.47.68,1.99,1.22,3.99,1.16,6.11-.04,1.37-.36,1.69-1.69,1.69-2.51,0-5.04.1-7.54-.04-1.38-.07-2.71-.04-4.07.23-.66.13-1.05.42-1.49.84-.29.27-.66.54-1.04.63-.73.18-1.17-.02-1.13-.96.08-1.79.02-3.59.02-5.39Z"/>
      <path class="cls-1" d="M87.07,96.96c0,1.72.03,3.44-.02,5.16-.01.42-.23,1.15-.43,1.18-.58.09-1.44.11-1.77-.24-1.11-1.16-2.41-1.4-3.89-1.36-1.52.05-3.04.06-4.56-.02-.64-.03-1.43-.17-1.87-.57-1.62-1.46-3.15-3.01-4.63-4.61-.28-.3-.24-.97-.23-1.46.07-2.01.94-2.83,2.95-2.84,3,0,6-.03,9,.01,1.11.02,2.05-.38,2.8-1.07.57-.53,1.13-.61,1.82-.64.73-.03.85.3.84.93-.03,1.84-.01,3.68-.01,5.52Z"/>
      <path class="cls-1" d="M11.81,96.78c0-1.72-.02-3.44.01-5.16,0-.35.18-1.01.27-1.01.52,0,1.07.08,1.55.29.38.17.64.59,1,.82.82.51,1.68.76,2.69.75,1.9-.01,3.81.18,5.72.2,1.26,0,2.53-.17,3.8-.22,1.49-.06,1.54.46,1.91,1.59.82,2.52-.78,3.92-2.36,5.35-.53.48-1.12.89-1.61,1.4-.62.66-1.35.92-2.22.92-1.96,0-3.92.03-5.88-.02-1.01-.02-1.86.24-2.62.9-.26.23-.58.44-.91.53-1.04.28-1.35.01-1.35-1.06,0-1.76,0-3.52,0-5.28Z"/>
      <path class="cls-1" d="M86.83,63.12c0,1.88.01,3.76,0,5.64,0,1.04-.49,1.33-1.45.83-.45-.23-.77-.73-1.23-.91-1.05-.41-2.13-.9-3.24-1-2.37-.21-4.77-.21-7.15-.28-1.29-.03-1.72-.75-.97-1.87.94-1.41,1.99-2.74,3.02-4.09.62-.82,1.28-1.6,1.93-2.4.6-.74,1.36-1.11,2.31-.82,1.9.57,3.41-.12,4.71-1.44.34-.34.54-.75,1.15-.44.55.28.97.49.94,1.27-.08,1.84-.02,3.68-.02,5.52Z"/>
      <path class="cls-1" d="M11.57,63.12c0-1.72-.05-3.44.03-5.15.02-.47.31-1.04.67-1.35.56-.49.97.07,1.41.43,1.22,1,2.56,1.75,4.21,1.55,2.14-.26,3.62.6,4.79,2.37.86,1.31,1.96,2.47,2.93,3.71.19.25.35.53.49.81.6,1.23.19,1.89-1.17,1.9-2.16,0-4.31-.03-6.47.02-.86.02-1.77.06-2.57.35-.86.31-1.6.95-2.43,1.37-.42.22-.96.41-1.39.34-.22-.04-.46-.69-.48-1.07-.05-1.76-.02-3.51-.02-5.27Z"/>
    </g>
  </g>
</svg>