<?xml version="1.0" encoding="UTF-8"?>
<svg id="Layer_2" data-name="Layer 2" xmlns="http://www.w3.org/2000/svg" viewBox="0 0 289.08 273.48" fill="currentColor">
  <defs>
    <style>
      .cls-1 {
        stroke-width: 0px;
      }
    </style>
  </defs>
  <g id="svg8">
    <path class="cls-1" d="M.38,197.22c-.05-.1-.1-.22-.15-.34-.71-1.92.36-2.72,1.4-4.06,2.43-3.13,4.8-6.31,7.26-9.42,1.72-2.16,3.54-4.24,5.33-6.35,2.79-3.29,5.4-6.74,8.41-9.81,5.76-5.86,11.78-11.45,17.62-17.23,3.31-3.27,6.9-6.2,10.56-9.05,4.41-3.43,8.84-6.83,13.26-10.24.93-.72,2.51-1.35,2.64-2.19.17-1.08-.82-2.34-1.32-3.53-.03-.07-.08-.14-.12-.21-3.43-5.51-5.94-11.46-8.22-17.5-1.71-4.54-3-9.28-3.36-14.06-.35-4.7-.45-9.47.26-14.24.61-4.09,1.48-8.1,2.74-12,1.18-3.67,2.59-7.29,4.2-10.8,2.25-4.91,4.55-9.83,7.25-14.5,2.62-4.53,5.62-8.86,8.72-13.08,2.93-3.98,6.09-7.82,9.38-11.51,2.17-2.43,4.67-4.6,7.17-6.7,1.89-1.58,3.96-2.48,6.7-1.61,3.62,1.15,6.76,3.04,9.74,5.25,2.15,1.6,4.12,3.43,6.21,5.11,3.76,3.03,7.33,6.27,10.66,9.77,1.12,1.18,2.11,2.49,3.22,3.67,2.97,3.17,5.97,6.31,8.96,9.47.17.18.35.35.51.54,1.84,2.14,3.68,4.27,5.75,6.67,1.21-1.45,2.25-2.78,3.38-4.03,3.57-3.94,7.05-7.96,10.78-11.74,4.73-4.79,9.59-9.45,14.53-14.03,2.43-2.26,5.07-4.31,7.75-6.27,2.67-1.94,5.49-3.65,8.78-4.5,1.77-.46,3.29-.43,4.85.63,1.96,1.33,3.8,2.77,5.46,4.48,3.01,3.11,6.13,6.11,8.68,9.65,3.01,4.18,6.2,8.24,9.32,12.36.09-.08.31-.35.59-.5,6.25-3.38,12.51-6.75,18.77-10.12,3.98-2.15,7.95-4.31,11.94-6.44,5.64-3,11.28-5.98,16.94-8.94,5.88-3.07,11.78-6.11,17.66-9.17,1.47-.77,2.54-.67,4.26-.64.16.83.33,1.68.17,2.51-.4,2.18-3.88,2.92-5.48,4.09-2.36,1.74-4.27,4-6.12,6.25-3.13,3.8-5.49,8.15-7.78,12.51-2.89,5.51-5.24,11.25-7.35,17.1-.8,2.21-1.91,2.66-3.83,1.4-1.01-.66-2.04-1.01-3.22-.87-1.77.21-3.55.36-5.29.72-6.03,1.24-11.64,3.73-17.33,5.95-1.69.66-3.29,1.57-4.86,2.33.46,1.13.8,2.13,1.26,3.07,2.51,5.17,4.29,10.6,5.76,16.13,1.38,5.18,2.16,10.47,2.22,15.84.02,1.78-.29,3.56-.47,5.34-.17,1.7-.18,3.43-.56,5.08-1.62,7.09-4,13.95-7.29,20.42-2.63,5.17-5.47,10.26-8.53,15.19-3.31,5.35-6.98,10.47-10.49,15.7-.62.93-1.5,1.83-1.69,2.85-.11.62.88,1.43,1.35,2.17,2.81,4.33,5.74,8.59,8.41,13,3.26,5.38,6.41,10.83,9.4,16.37,2.23,4.12,4.06,8.46,6.2,12.62.78,1.52.87,2.71-.44,3.86-2.11.14-2.65-.07-3.71-1.63-1.64-2.4-3.16-4.87-4.88-7.21-4.41-5.99-8.87-11.94-13.35-17.88-3.2-4.24-6.44-8.45-9.7-12.72-.39.36-.66.56-.86.82-2.35,2.99-4.68,6-7.03,8.99-1.35,1.72-2.78,3.38-4.1,5.13-2.88,3.8-5.62,7.71-8.57,11.45-3.67,4.65-6.83,9.61-9.47,14.89-1.69,3.39-3.31,6.83-4.75,10.33-2.76,6.7-5.67,13.36-8,20.2-4.15,12.18-7.93,24.5-11.83,36.77-.48,1.53-.75,3.12-1.11,4.69h-.99c-.03-.57.04-1.18-.11-1.71-1.43-4.86-2.88-9.72-4.37-14.56-1.51-4.92-2.95-9.87-4.62-14.74-1.96-5.71-4.06-11.37-6.23-17-2.23-5.78-4.44-11.58-6.97-17.23-2.05-4.57-4.32-9.08-6.94-13.34-2.74-4.46-5.96-8.64-9.07-12.87-2.16-2.93-4.47-5.75-6.73-8.61-1.38-1.74-2.77-3.47-4.27-5.35-1.28,2.31-2.57,4.36-3.6,6.54-1.85,3.94-3.67,7.9-5.26,11.95-2.64,6.68-4.74,13.52-5.67,20.69-.1.76-.57,1.49-.98,2.17-.43.72-1.19.94-1.94.69-.8-.26-1.45-.81-1.48-1.76-.03-.99-.14-2,.03-2.96.76-4.2,1.57-8.4,2.44-12.58,1.41-6.78,3.23-13.46,5.46-20.02,1.47-4.33,3.14-8.59,4.66-12.72-4.7-6.44-9.34-12.81-14.07-19.29-4.89,3.41-9.69,6.68-14.41,10.06-4.67,3.34-9.28,6.75-13.87,10.2-3.24,2.44-6.39,4.98-9.57,7.49-3.11,2.46-6.25,4.89-9.3,7.43-2.76,2.29-5.41,4.7-8.1,7.08-3.05,2.7-6.1,5.42-9.13,8.15-2.18,1.97-4.32,4.01-6.51,5.98-1.08.97-2.8,1.53-3.59.03ZM259.89,41.48c4.78-12.67,10.11-24.92,19.48-34.95-.63.13-1.2.34-1.74.62-5.72,3.03-11.43,6.07-17.13,9.11-4.35,2.32-8.69,4.65-13.04,6.97-6.91,3.7-13.83,7.37-20.73,11.09-5.47,2.95-10.94,5.93-16.38,8.94-5.72,3.17-11.41,6.4-17.13,9.58-4.8,2.67-9.62,5.3-14.43,7.95-6.15,3.39-12.3,6.79-18.45,10.19-4.59,2.54-9.17,5.1-13.78,7.63-.93.51-1.39,1.14-1.57,2.26-.52,3.34-1.27,6.65-1.85,9.98-.15.82-.02,1.7-.02,2.8,2.82-1.57,5.32-2.86,7.71-4.33,4.69-2.89,9.63-5.3,14.55-7.76.86-.43,1.58-.54,2.54-.18,2.18.83,4.43,1.47,6.65,2.2,5.97,1.97,11.89,4.05,17.56,7.3-.17.6-.27,1.23-.53,1.8-.83,1.83-1.61,3.69-2.62,5.42-3.43,5.91-7.3,11.43-12.67,15.87-3.96,3.27-8.12,6.17-12.66,8.49-3.8,1.94-7.8,3.51-11.96,4.5-3.53.84-7.1,1.89-10.68,1.99-5.56.15-11.14.58-16.71-.34-5.65-.93-11.04-2.37-15.66-5.93-2.66-2.05-5.21-4.2-6.63-7.45.14-.26.34-.53.42-.83,2.23-7.84,5.83-15.08,10.25-21.84,3.63-5.55,7.8-10.72,12.9-15.14,4.46-3.86,9.15-7.21,14.49-9.69.8-.37,1.56-.81,2.59-1.35-.61-.06-.95-.18-1.24-.11-4.24.97-8.43,2.18-12.38,4.01-5.91,2.72-11.33,6.26-16.17,10.62-.87.78-1.65.9-2.64.3-1.51-.92-3.1-1.73-4.59-2.69-4.08-2.64-8.2-5.24-11.69-8.67-3.15-3.08-6.29-6.17-9.33-9.35-1.49-1.55-2.75-3.31-4.2-5.08.17,1.33.24,2.52.48,3.68.99,4.73,3.18,9.02,5.64,13.07,4.01,6.62,8.88,12.62,14.45,18.03.58.56,1.09,1.18,1.66,1.79-.31.72-.48,1.36-.84,1.87-3.19,4.51-5.58,9.44-7.74,14.51-2.03,4.76-3.38,9.73-4.82,14.67-.19.67,0,1.74.45,2.26,1.87,2.17,3.93,4.17,6.48,5.53,3.03,1.62,6.13,3.12,9.46,4.81-11.75,16.02-18.73,34.22-23.27,53.47.4-.46.65-1,.86-1.54.94-2.4,1.73-4.86,2.82-7.19,3.63-7.77,7.55-15.39,12.54-22.39,2.53-3.56,5.19-7.03,7.95-10.42,2.42-2.97,5.06-5.75,7.6-8.63.57-.64,1.19-1.23,2.11-.95,2.03.6,4.1.89,6.21,1.06,2.25.17,4.48.65,6.73.87,2.74.27,5.49.41,8.33.62.41,4.35.24,8.61.49,12.84.56,9.34.45,18.72.62,28.08.07,3.57-.36,7.17.71,10.67,3.24-4.99,6.26-10.14,10.01-14.82,2.54-3.18,5.01-6.36,8.48-8.44-4.93-9.77-5.67-20.19-5.89-30.7,7.3-1.88,13.85-4.75,19.98-8.5,4.82,2.07,8.77,5.33,12.44,8.85,4.5,4.32,8.74,8.91,13.01,13.46,2.51,2.67,4.96,5.41,7.26,8.27,3.35,4.16,6.57,8.42,9.77,12.7,3.78,5.05,7.48,10.16,11.21,15.24.38.52.76,1.04,1.14,1.56.36.49.72.98,1.09,1.47-5.48-12.68-12.65-24.36-20.45-35.64-7.86-11.37-16.62-22.03-26.52-32.1,12.46-10.71,21.6-23.62,28-38.66-8.88-4.74-18.61-7.02-28.31-10.02.36-.4.6-.84.97-1.06,2.15-1.27,4.33-2.5,6.51-3.73,5.96-3.39,11.83-6.97,17.91-10.13,8.39-4.36,16.78-8.76,25.54-12.38,6.63-2.74,13.23-5.49,20.42-6.58,2.67-.4,5.12-.48,7.98.56ZM7.23,190.15c20.68-18.93,42.89-35.86,66.22-51.57-1.4-2.28-2.74-4.47-4.1-6.65-.21-.33-.51-.6-.85-1-23.91,16.23-44.04,36.21-61.27,59.21Z"/>
  </g>
</svg>