<?xml version="1.0" encoding="utf-8"?>
<!-- Generator: Adobe Illustrator 28.2.0, SVG Export Plug-In . SVG Version: 6.00 Build 0)  -->
<svg version="1.1"
	 id="Layer_1" xmlns:rdf="http://www.w3.org/1999/02/22-rdf-syntax-ns#" xmlns:dc="http://purl.org/dc/elements/1.1/" xmlns:cc="http://creativecommons.org/ns#" xmlns:svg="http://www.w3.org/2000/svg"
	 xmlns="http://www.w3.org/2000/svg" xmlns:xlink="http://www.w3.org/1999/xlink" x="0px" y="0px" viewBox="0 0 800 800"
	 style="enable-background:new 0 0 800 800;" xml:space="preserve">
<path d="M792,354.4c-23.3,38.3-56.4,33.5-71.6,12.2c-3.1-6.1-3.8-12.2-2.5-18.5c9.8-43.8,76.8-120.9-1.2-183.6
	c-1,44.8-32.1,57.2-56,46.3c-5.8-3.2-9.9-7.8-11.3-14.7C636,153.4,655.5,53,556.5,37.7c21.5,39.3,0.9,65.5-25.2,68.1
	c-7.1,0-12.9-2.4-17.4-7.2C481,68.2,447.7-28.2,354.4,8c38.3,23.3,33.5,56.4,12.2,71.6c-6.2,3-12.4,3.3-18.5,2.5
	c-43.8-9.8-120.9-76.8-183.6,1.2c44.8,1,57.2,32.1,46.3,56c-3.6,5.1-8.7,8.7-14.7,11.3C153.4,164,53,144.5,37.7,243.5
	c39.3-21.5,65.5-0.9,68.1,25.2c-1,6.1-3.3,12-7.2,17.4C68.2,319-28.2,352.3,8,445.6c23.3-38.3,56.4-33.5,71.6-12.2
	c2.9,5.8,3.6,12,2.5,18.5c-9.8,43.8-76.8,120.9,1.2,183.6c1-44.8,32.1-57.2,56-46.3c5.3,3.4,8.9,8.4,11.3,14.7
	c13.4,42.8-6.1,143.1,92.9,158.4c-21.5-39.3-0.9-65.5,25.2-68.1c6.7-0.2,12.4,2.5,17.4,7.2c33,30.5,66.3,126.8,159.5,90.6
	c-38.3-23.3-33.5-56.4-12.2-71.6c6.2-3.4,12.4-3.7,18.5-2.5c43.8,9.8,120.9,76.8,183.6-1.2c-44.8-1-57.2-32.1-46.3-56
	c3.3-4.9,7.9-8.8,14.7-11.3c42.8-13.4,143.1,6.1,158.4-92.9c-39.3,21.5-65.5,0.9-68.1-25.2c0-7.8,3.2-12.9,7.2-17.4
	C731.8,481,828.2,447.7,792,354.4z M395.4,606.6c-52.9,0-95.7-42.9-95.7-95.7c0-72.9,95.7-358.6,95.7-358.6s95.7,290.2,95.7,358.6
	C491.2,563.8,448.3,606.6,395.4,606.6z"/>
</svg>
