<?xml version="1.0" encoding="UTF-8"?>
<svg id="Layer_2" data-name="Layer 2" xmlns="http://www.w3.org/2000/svg" viewBox="0 0 101.76 150.24" fill="currentColor">
  <defs>
    <style>
      .cls-1 {
        stroke-width: 0px;
      }
    </style>
  </defs>
  <g id="Layer_1-2" data-name="Layer 1">
    <g>
      <path class="cls-1" d="M101.76,112.56c-.52.03-1.03.07-1.55.07-32.89,0-65.77,0-98.66,0-.52,0-1.03-.05-1.55-.07,0-22.16,0-44.32,0-66.48,2.24-.02,4.48-.04,6.71-.07.55,0,.81.23.8.79-.01.4,0,.8,0,1.2,0,18.08,0,36.16-.02,54.23,0,1.09.27,1.7,1.31,2.19,3.74,1.77,7.61,3.03,11.75,3.26,2.94.16,5.9.32,8.85.2,2.69-.1,5.35-.65,8.04-.86,3.21-.25,6.44-.46,9.65-.48,1.09,0,2.17.63,3.27.94.35.1.77.21,1.09.11.97-.29,1.9-.9,2.88-.99,1.82-.17,3.67-.11,5.5-.05,1.1.04,2.2.27,3.3.4,2.05.24,4.09.58,6.15.68,3.67.17,7.35.45,11,.21,4.57-.3,9.01-1.39,13.1-3.65.83-.46,1.1-.93,1.1-1.85-.02-18.16-.02-36.32-.02-54.47,0-2.04-.16-1.87,1.88-1.87,1.8,0,3.6.05,5.39.07v66.48Z"/>
      <path class="cls-1" d="M52.32,0c.87.37,1.8.64,2.6,1.11,2.34,1.39,2.71,4.64.81,6.72-.46.51-.71.99-.7,1.68.03,4.32,0,8.64.02,12.96,0,1.19.01,1.2,1.19,1.2,2.04,0,4.08,0,6.12,0,1.04,0,1.07.05,1.08,1.1.02,1.2-.02,2.4.01,3.6.02.74-.29.99-1,.97-1.6-.03-3.2,0-4.8,0q-1.41,0-1.41,1.47c0,7.52,0,15.04,0,22.55,0,.32-.02.64,0,.96.04.64-.21.95-.89.94-2.96-.02-5.92-.03-8.88,0-1,.01-.94-.6-.94-1.26,0-5.96,0-11.92,0-17.87,0-1.92-.03-3.84.01-5.76.02-.77-.22-1.07-1.02-1.05-1.64.05-3.28-.01-4.92.02-.78.02-1.07-.28-1.04-1.05.04-1.2.04-2.4,0-3.6-.03-.78.28-1.06,1.05-1.04,2.08.03,4.16.02,6.24,0,1.1,0,1.12-.02,1.12-1.16,0-4.32,0-8.64,0-12.96,0-.54-.11-.93-.53-1.36-2.16-2.2-2.01-5.76,1.05-7.31.7-.35,1.46-.6,2.19-.9.88,0,1.76,0,2.64,0Z"/>
      <path class="cls-1" d="M50.64,150.24c-1.21-3.15-2.42-6.3-3.63-9.45-.44-1.15-.91-2.29-1.32-3.45-.13-.36-.16-.78-.16-1.17,0-6.15,0-12.31,0-18.46,0-1.37.01-1.38,1.4-1.38,2.72,0,5.44,0,8.15,0,1.11,0,1.15.04,1.15,1.15,0,6.35,0,12.71,0,19.06,0,.35-.04.72-.17,1.05-1.48,3.9-2.99,7.79-4.49,11.67-.13.33-.3.65-.45.97h-.48Z"/>
      <path class="cls-1" d="M10.24,70.27c0-9.96,0-19.92,0-29.88,0-.32.02-.64,0-.96-.05-.77.29-.84.95-.64,2.09.62,4.17,1.3,6.3,1.75,1.82.38,3.69.6,5.55.63,3.11.04,6.22-.04,9.33-.24,2.49-.16,4.97-.53,7.44-.9,2.44-.37,2.75-.15,2.75,2.3,0,4.88,0,9.76,0,14.64,0,1.27,0,1.27,1.24,1.28,1.56,0,3.12.03,4.68,0,.77-.02,1.11.27,1.04,1.04-.03.36,0,.72,0,1.08,0,13.88,0,27.76,0,41.63,0,.36-.01.72,0,1.08.02.74-.21.9-1.01.77-1.92-.32-3.84-.43-5.81-.14-2.79.41-5.61.55-8.42.77-2.34.19-4.68.3-7.02.49-4.73.4-9.34-.21-13.84-1.68-3.18-1.04-3.17-1.08-3.17-4.35,0-9.56,0-19.12,0-28.68Z"/>
      <path class="cls-1" d="M52.48,103.78c0-.44,0-.87,0-1.3,0-14.23,0-28.46,0-42.7,0-.16,0-.32,0-.48.04-1.01.06-1.04,1.13-1.06,1.44-.02,2.88,0,4.32,0,1.26,0,1.27,0,1.27-1.25,0-5.04,0-10.07,0-15.11,0-.32.02-.64,0-.96-.04-.66.25-.97.91-.92,1.35.1,2.7.17,4.04.3,2.13.2,4.25.5,6.39.64,2.38.16,4.78.22,7.16.25,4.33.05,8.55-.64,12.58-2.3.32-.13.68-.17,1.15-.29.03.52.07.94.07,1.36,0,20.27,0,40.54.02,60.81,0,.93-.27,1.41-1.16,1.77-2.7,1.1-5.46,1.92-8.38,2.17-1.58.14-3.16.43-4.74.43-2.18,0-4.37-.2-6.55-.35-1.07-.07-2.13-.21-3.2-.33-3-.32-5.99-.74-8.99-.92-1.93-.11-3.88.13-6.03.22Z"/>
    </g>
  </g>
</svg>