<?xml version="1.0" encoding="UTF-8"?>
<svg id="Layer_2" data-name="Layer 2" xmlns="http://www.w3.org/2000/svg" viewBox="0 0 233.28 286.35">
  <defs>
    <style>
      .cls-1 {
        stroke-width: 0px;
      }
    </style>
  </defs>
  <g id="Layer_1-2" data-name="Layer 1">
    <g>
      <path class="cls-1" d="M151.56,177.89c2.27,9.52,4.86,18.38,3.13,28.28-2.37,1.2-5.12,2.59-8.16,4.13-1.95-4.89,1.01-10.09-2.85-14.97-3.55,5.44-.25,11.12-2.59,16.64-2.42.64-5.39,1.43-8.51,2.25-2.26-5.02,1.05-10.7-2.95-15.89-2.45,5.79-.43,11.05-1.81,16.6-2.69.34-5.55.71-8.86,1.13-.4-4.99-.75-9.46-1.11-13.93-.55-.03-1.09-.05-1.64-.08-3.61,3.73-.38,8.99-2.39,13.81-2.65-.21-5.51-.43-8.09-.64-2.21-5.52,1.01-11.33-2.23-15.99-.54.01-1.09.03-1.63.04v15.13c-4.07-.95-7.08-1.66-9.88-2.31-1.92-5.36.72-10.98-2.33-16.1-3.39,1.9-1.96,4.68-2.19,6.88-.23,2.25-.05,4.54-.05,7.83-3.65-1.71-6.41-3-8.9-4.16-1.81-10.14.86-19.34,2.75-28.89-1.84-.34-2.92-.65-4-.71-1.49-.07-3,.06-4.5.1-7.05.16-12.61-1.99-15.62-9.07-2.08-4.89-4.95-9.45-7.04-14.33-.67-1.57-.37-3.86.2-5.58.82-2.51,2.03-4.98,3.53-7.15,3.78-5.45,4.07-11.22,3-17.57-1.19-7.05-1.26-14.28-2.34-21.36-2.17-14.22,3.3-25.95,12.03-36.27,25.2-29.81,72.46-30.41,98.68-1.52,5.21,5.74,9.52,12.22,11.6,19.64,1.41,5.01,1.85,10.51,1.6,15.73-.47,9.64-1.67,19.25-2.79,28.85-.34,2.92-.23,5.48,1.3,8.12,2.08,3.6,4.06,7.31,5.51,11.19.73,1.96.95,4.72.13,6.54-2.67,5.9-5.95,11.52-8.96,17.27-1.62,3.1-4.25,4.59-7.63,4.85-3.15.25-6.31.35-9.46.62-1.51.13-3,.53-4.96.9ZM79.64,137.88c-4.51,1.01-8.38,2.87-11.11,6.41-.74.96-.96,3.06-.42,4.14,1.83,3.7,3.92,7.32,6.32,10.68.78,1.09,3.03,2.08,4.24,1.76,7.87-2.11,15.69-4.43,23.38-7.1,1.5-.52,3.25-2.89,3.26-4.41,0-1.39-1.95-3.43-3.49-4.05-5.25-2.11-10.69-3.72-16.07-5.5-2.04-.68-4.11-1.29-6.11-1.91ZM165.64,146.92c-.35-.95-.55-1.75-.92-2.47-1.48-2.84-8.81-7.13-11.88-6.25-7.67,2.21-15.27,4.7-22.74,7.5-3.33,1.25-3.47,4.96-.62,7.22,1.01.8,2.3,1.36,3.56,1.74,6.52,1.99,13.05,3.95,19.61,5.77,1.34.37,3.32.72,4.22.04,4.53-3.42,6.66-8.51,8.77-13.55ZM123.88,178.19c1.65-6.57-.5-13.24-5.21-16.41-.96-.64-2.97-.73-3.95-.15-5.08,3.02-7.3,9.76-5.37,16.61,2.49-1.33,4.85-2.59,7.14-3.81,2.5,1.27,4.87,2.48,7.39,3.76Z"/>
      <path class="cls-1" d="M0,68.06c6.24-3.68,12.69-7.47,19.12-11.28C49.2,38.94,79.28,21.09,109.37,3.25c1.43-.85,2.95-1.53,4.4-2.36,2.61-1.49,4.85-1,7.42.54,19.98,12,40.06,23.84,60.08,35.76,17.3,10.3,34.57,20.66,52.02,31.09v24.48h-48.45c-6.72-37.13-40.85-56.12-69.48-55.36-33.19.88-61.93,23.88-66.86,55.34H0v-24.69Z"/>
      <path class="cls-1" d="M108.17,262.75c2.36,8.25,4.47,15.6,6.57,22.95-.31.22-.61.43-.92.65-35.1-17.72-70.21-35.43-105.31-53.15.14-.33.29-.67.43-1,24.59,7.52,49.18,15.05,73.77,22.57l.82-.79c-4.02-8.22-8.03-16.44-12.62-25.84,21.76,6.7,42.44,13.06,63.12,19.42.26-.37.53-.74.79-1.11-3.53-7.21-7.06-14.42-10.59-21.63.2-.32.4-.65.6-.97,32.57,12.11,65.15,24.22,97.72,36.33-.08.32-.16.64-.23.96-19.68-3.84-39.36-7.67-59.04-11.51-.22.3-.44.6-.66.91,6.02,9.61,12.04,19.22,18.06,28.83-.19.27-.38.55-.56.82-23.66-5.74-47.33-11.48-71.94-17.45Z"/>
      <path class="cls-1" d="M33.85,194.69H3.05c5.2-32.05,10.34-63.7,15.48-95.42,1.71-.18,2.84-.38,3.98-.4,3.65-.04,7.29-.02,11.34-.02v95.84Z"/>
      <path class="cls-1" d="M199.37,194.68v-95.49h15.18c5.13,31.78,10.25,63.44,15.42,95.49h-30.6Z"/>
    </g>
  </g>
</svg>