<?xml version="1.0" encoding="UTF-8"?>
<svg id="Layer_2" data-name="Layer 2" xmlns="http://www.w3.org/2000/svg" viewBox="0 0 81.19 108.16">
  <defs>
    <style>
      .cls-1 {
        stroke-width: 0px;
      }
    </style>
  </defs>
  <g id="Layer_1-2" data-name="Layer 1">
    <g>
      <path class="cls-1" d="M17,108.03v-8.92c1.29-.09,2.48,0,3.66-.02,1.2-.02,2.39,0,3.59,0,1.19,0,2.37,0,3.66,0v-28.4c.13-.14.15-.17.18-.19.02-.02.05-.06.08-.06.3-.03.61-.07.91-.07,7.9,0,15.81.01,23.71.02.09,0,.19.07.42.16.09,4.7.03,9.44.04,14.18.01,4.75,0,9.49,0,14.34h10.7c.32,1.16.43,6.41.2,8.92-.35.04-.73.13-1.12.13-5.65.02-11.29.03-16.94.03-6.77,0-13.55,0-20.32,0-2.57,0-5.13-.01-7.7-.03-.36,0-.73-.06-1.07-.09Z"/>
      <path class="cls-1" d="M64.17,0v8.74c-.49.07-.95.19-1.4.19-2.16.02-4.31,0-6.47.01-.95,0-1.9.07-2.96.11v23.16c-.69.32-1.17,0-1.66-.22-2.6-1.2-5.35-1.86-8.18-2.22-3.51-.45-6.96-.07-10.35.9-1.34.38-2.63.95-3.95,1.42-.4.14-.83.23-1.42.39-.04-1.69-.02-3.21-.02-4.74,0-1.54,0-3.08,0-4.62,0-1.57,0-3.15,0-4.72,0-1.54,0-3.08,0-4.62,0-1.54,0-3.07,0-4.72-.96-.04-1.87-.11-2.78-.12-2.16-.02-4.31,0-6.47-.01-.5,0-1-.11-1.56-.17V0h47.21Z"/>
      <path class="cls-1" d="M23.27,68.79v-6.4c-.76-.26-14.92-.34-16.15-.08-.01,1.01-.03,2.05-.04,3.1,0,1.1,0,2.19,0,3.29,0,1.06,0,2.11,0,3.13-.82.26-5.79.31-6.89.09-.23-.73-.28-15.11-.04-16.32h80.82c.26.78.29,15.26.04,16.26-.7.22-5.41.29-6.94.08-.02-.33-.07-.7-.07-1.06,0-2.5,0-5,0-7.49,0-.37-.04-.73-.06-1.17h-15.97c-.26,2.2.21,4.34-.15,6.56H23.27Z"/>
      <path class="cls-1" d="M63.86,46.06h10.15c.29-1.6.1-3.17.13-4.72.03-1.54,0-3.07,0-4.58.83-.34,5.67-.4,6.79-.11.29,5.34.26,10.69.23,16.14-.42.05-.74.13-1.06.13-7.29,0-14.58,0-21.87,0-.33,0-.66-.05-1.05-.08-.25-3.05-1.06-5.85-2.68-8.38-1.62-2.53-3.77-4.49-6.4-5.91-.19.82-.37,1.67-.57,2.51-.84,3.63-4.17,5.71-7.94,5.24-3.08-.39-5.13-2.09-5.97-5.13-.23-.85-.41-1.72-.63-2.63-5.49,3.15-8.5,7.93-9.06,14.32H.2c-.29-1.06-.22-15.2.05-16.21.84-.23,5.63-.23,6.71.02.02.33.07.69.07,1.05,0,2.4,0,4.79,0,7.19,0,.37.04.73.06,1.15h10.13c.84-2.57,2.29-4.75,4.08-6.7,3.98-4.36,8.96-6.88,14.76-7.82,5.48-.89,10.78-.25,15.83,2.07,4.78,2.19,8.51,5.55,11.04,10.19.2.36.37.74.52,1.12.15.38.26.77.39,1.17Z"/>
      <path class="cls-1" d="M18.78,63.83h2.63c.03.34.08.63.08.93,0,1.44,0,2.87,0,4.31,0,.39.08.79.12,1.21,1.6.28,3.17-.16,4.76.49v16.7h-7.6v-23.62Z"/>
      <path class="cls-1" d="M54.71,87.46v-16.7c1.54-.67,3.15-.24,4.8-.47.18-1.07.06-2.12.08-3.17.02-1.05,0-2.11,0-3.2.92-.25,1.76-.16,2.68-.08v23.62h-7.57Z"/>
      <path class="cls-1" d="M54.91,20.34h7.38c.04.33.09.59.09.85,0,1.23-.02,2.46,0,3.69.01,1.19.1,2.39.09,3.58-.02,3.52-.07,7.03-.13,10.55,0,.3-.13.6-.25,1.14-2.19-2.65-4.47-4.85-7.18-6.49v-13.32Z"/>
      <path class="cls-1" d="M26.18,33.7c-2.68,1.63-4.98,3.79-7.15,6.5-.14-.59-.28-.93-.28-1.26-.02-3.8-.03-7.59-.04-11.39,0-1.98,0-3.97,0-5.95,0-.37,0-.74,0-1.09.81-.28,6.46-.32,7.46-.06v13.25Z"/>
    </g>
  </g>
</svg>