<?xml version="1.0" encoding="UTF-8"?>
<svg id="Layer_2" data-name="Layer 2" xmlns="http://www.w3.org/2000/svg" viewBox="0 0 714.5 554.59" fill="currentColor">
  <defs>
    <style>
      .cls-1 {
        stroke-width: 0px;
      }
    </style>
  </defs>
  <g id="svg8">
    <g id="g6">
      <path id="path4" class="cls-1" d="M10.3.89c1.1,1.5,3,3.6,4.2,4.7s6.4,6.7,11.4,12.5c50.9,58,74.2,109.6,62.2,138.1-5.5,13.1-13.2,17.9-82.6,51.1l-5.5,2.7,9.5.1c46.2.4,76.4,20.4,88.3,58.5,11.3,35.9,1.2,83.1-25.3,118.4-3.8,5-6.4,8.8-5.7,8.4s4.1-2.6,7.7-4.9c50.1-32.1,101.5-32,126,.4,19.4,25.7,35.2,87.4,38.8,150.7l.7,13,5.2-13c10-25.3,17-50.5,20-72,2-14.3,1.5-13.3,6.2-10.7,5.3,3,14,2.9,27.3-.4,9.7-2.3,13.3,7,8.3,21.6-4.7,13.7-2.9,17.9,5.3,12.8,4.9-3,6.6-1.7,7.2,5.8.7,8.1,7.1,11.5,8.6,4.5,2.5-11.9,7.9-13.8,10.5-3.5,2.2,8.6,6.7,9.5,10,1.9,4.1-9.2,11.7-9.2,15.8,0,3.1,7.1,8.1,6.7,9.6-.9,2.3-10.7,8.8-9.8,10.9,1.6.4,2.1,1.2,3.9,1.9,3.9,5.1.5,7.1-1.8,6.8-7.9-.3-6.9,1.7-8.4,7-5.4,9.1,5.3,10.8-.9,4.4-16.3-2.3-5.4-1.6-12.7,1.6-16.1,2.6-2.7,3.3-2.8,14.4-.5,8.5,1.7,16.1,1.3,20.6-1,2.3-1.1,4.2-1.9,4.3-1.7s1,5.7,1.9,12.3c3,21.5,10,46.5,20,72l5.1,13,1.2-18.2c4.1-61.9,19.5-120.4,38.4-145.5,24.5-32.4,75.9-32.5,126-.4,3.6,2.3,7,4.5,7.7,4.9s-1.9-3.4-5.7-8.4c-35.4-47.2-39.8-110.8-10.1-147.5,15.5-19.1,44.6-30.4,75.3-29.2l8.8.3-5.7-2.7c-83.4-39.1-90.6-45.5-86.3-77.6,4-30.8,43.5-95.5,76-124.7,9.3-8.4,6.1-7.5-20.7,5.8-81.1,40-166.5,68-254.6,83.3-9.4,1.6-17.4,55.7-11.3,77.4,5,18.1,16.7,33.1,25.7,33,5.4-.1,18.9-9.9,18.9-13.9,0-1.7,8.6-5.1,12.9-5.1,19,0,19.1,34.5.1,76.4-6.3,13.8-5.6,13.5-10.4,3.8-38.5-78.1-166-78.1-205.1,0l-4.5,9-4.9-10.3c-19.9-42.7-20.4-78.9-1-78.9,4.3,0,12.9,3.4,12.9,5.1,0,4,13.5,13.8,18.9,13.9,9,.1,20.7-14.9,25.7-33,6.1-21.7-1.9-75.8-11.3-77.4C201.7,79.39,116.3,51.39,35.2,11.39,12.7.29,8.7-1.41,10.3.89ZM301.2,392.49c9.6,4.6,19.7,8.2,25.8,9.1,9.9,1.4,14.9,5.6,12,10.1-1.7,2.6-27.2,15.4-30.7,15.4-1.3,0-5.6.7-9.6,1.7-11.7,2.7-15.8-.7-22.8-19.1l-2.7-7,2.3-4.3c5-9.5,13.9-11.5,25.7-5.9ZM431,391.39c2.6,1.4,4.9,3.9,6.5,6.9l2.4,4.6-2.7,6.8c-7.2,18.4-11.3,21.8-22.6,19.1-3.8-.9-8.1-1.7-9.6-1.7-3.8,0-29.2-12.6-31-15.4-2.9-4.3,2.4-8.8,12-10.1,6.4-1,19.5-5.6,27-9.5,7-3.7,12.4-3.9,18-.7ZM362.2,430.29c1.1,1.3,2.8,4.7,3.8,7.6.9,2.9,3.2,7.6,5.1,10.3,3.6,5.4,4.5,10.6,1.9,11.5-2.3.9-5.8-1.9-9.4-7.5-5.3-8.2-8.9-8-14.5.5-4.1,6.1-8.1,8.8-9.7,6.3s-1-5.9,1.7-9.4c1.4-1.9,3.9-6.7,5.5-10.7,4.6-11.2,10.3-14.4,15.6-8.6Z"/>
    </g>
  </g>
</svg>