<?xml version="1.0" encoding="UTF-8"?>
<svg id="Layer_2" data-name="Layer 2" xmlns="http://www.w3.org/2000/svg" viewBox="0 0 219.11 290.3">
  <defs>
    <style>
      .cls-1 {
        stroke-width: 0px;
      }
    </style>
  </defs>
  <g id="Layer_1-2" data-name="Layer 1">
    <g>
      <path class="cls-1" d="M140.16,290.3c-.47-6.15-.9-11.84-1.36-17.87-5.58.73-10.32,1.51-15.09,1.94-4.75.43-9.53.51-15.13.78v-18.91c-2.64-.16-4.5-.26-7.12-.42v19.67c-8.45-1.54-15.95-2.91-23.71-4.33v-24.63c-2.64-.59-4.92-1.1-8.56-1.91v40.9c-15.56-5.27-25.44-18.57-25.72-33.22-.18-9.5-.53-18.99-.85-28.48-.04-1.28-.33-2.56-.52-3.87h-19.19c-1.34-3.54-2.81-7.39-4.24-11.26-3.06-8.28-5.79-16.71-9.27-24.81-2.56-5.97-1.69-11.12,2.01-15.91,3.66-4.74,7.75-9.14,11.61-13.73,4.29-5.1,8.76-10.06,12.73-15.39,4.89-6.57,7.45-14.08,7.67-22.35.22-8.61-1.28-10.74-10.82-13.95,1.95,16.37-2.31,30.17-16.36,40.11-.64-.87-1.43-1.67-1.9-2.63-3.3-6.73-6.76-13.4-9.73-20.27-7.32-16.95-5.02-34.17.36-50.86C17.27,30.78,43.5,8.35,83.17,1.89c1.45-.24,2.93-.28,4.85-.46v104.21h-21.21c-.24.46-.47.92-.71,1.37,13.13,17,26.25,33.99,39.38,50.99l1.29-.37V0c5.71.34,10.74,0,15.44,1.06,12.65,2.83,25.66,4.99,37.63,9.7,32.08,12.62,48.88,38.38,56.73,70.69,4.6,18.93,3.39,37.37-7.08,54.53-3.03,4.96-5.55,10.23-8.32,15.37,2.8,3.76,5.65,7.23,8.11,10.96,4.91,7.46,5.95,15.21,2.08,23.68-5.73,12.56-10.97,25.35-16.56,38.37-7.63-.43-14.88-.83-22.67-1.27-.19,2.36-.47,4.29-.49,6.21-.08,8-.06,16-.13,24-.14,15.46-13.61,32.77-28.58,36.74-.62.16-1.28.12-2.77.24ZM194.51,139.53c10.49-13.56,14.79-27.9,13.24-44.69-3.11-33.81-23.25-73.1-72.33-81.96-2.71-.49-5.43-.89-8.39-1.37v93.86h23.04c-2.61,3.5-4.26,5.77-5.97,7.99-10.86,14.15-21.47,28.49-32.71,42.32-4.91,6.04-3.67,12.19-3.32,18.95,7.61.29,12.81,4.1,16.53,9.74,5.76,8.76,11.42,17.61,16.57,26.74,3.97,7.04.92,17.1-5.98,22.31-8.51,6.43-16.47,6.44-23.54.06-1.02-.92-2.14-1.75-3.56-2.9v14c3.9.37,7.31.7,11.51,1.1v18.4c5.1-.55,9.27-1.01,14.13-1.53v-15.71c4.95-.81,9.24-1.52,13.95-2.29.56,10.82,1.08,20.7,1.59,30.57.45.1.9.21,1.34.31,6.05-5.49,10.82-11.95,11.08-20.56.38-12.15.08-24.33.14-36.5.01-2.06.41-4.12.68-6.71,8.52.6,16.44,1.15,24.94,1.74,5.02-11.92,10.19-23.63,14.76-35.57.86-2.24.1-5.96-1.31-8.02-3.64-5.3-7.5-10.73-12.31-14.91-12.29-10.69-18.17-23.91-18.09-40.02.04-7.27,3.2-10.92,11.32-12.26-1.19,14.04.79,27.05,12.69,36.88ZM89.56,171.69c-.24-.7-.48-1.39-.72-2.09-16.28-2.73-31.05-8.59-43.43-22.1-3.94,6.76-8.03,11.94-10.17,17.83-4.62,12.72,2.3,23.87,15.59,26.42,5.88,1.13,11.95,1.09,16.86-2.45,7.58-5.47,14.61-11.71,21.87-17.62ZM106.82,210.48c4.52,5.51,7.83,9.83,11.45,13.87,3.81,4.25,6.96,4.66,10.91,1.92,3.7-2.57,5.34-7.4,2.96-11.48-4.78-8.18-9.58-16.45-15.31-23.97-6.29-8.26-12.13-8.17-18.84-.14-5.43,6.5-10.29,13.51-15.05,20.54-4.06,6-2.24,13.42,3.66,16.93,5.08,3.02,8.44,1.49,12.98-5.9,2.13-3.48,4.27-6.95,7.23-11.77Z"/>
      <path class="cls-1" d="M167.75,148.04c6.57,6.37,10.94,12.89,12.48,21.05,1.67,8.83-2.64,17.18-10.78,20.98-9.26,4.33-18.38,3.75-26.47-2.26-6.75-5-12.72-11.04-18.98-17.54,16.62-3.67,31.93-9.14,43.75-22.24Z"/>
    </g>
  </g>
</svg>