<svg xmlns="http://www.w3.org/2000/svg" fill="currentColor " viewBox="0 0 200 200"><path d="M91.24 129.59h.19-.44c.08 0 .16.01.25.01ZM88.03 122.27c.09 0 .19 0 .28-.01-.19 0-.37.01-.56 0 .09 0 .18.01.28.01ZM111.9 122.28a4.405 4.405 0 0 0-.06 0h.06ZM108.76 129.59c.09 0 .17 0 .25-.01h-.44.19ZM194.13 86.54c3.65-4.4 5.87-7.23 5.87-7.23h-77.71v4.91s6.7 0 6.7 7.46c0 3.55-4.54 7.62-9.43 8.44-.26 1.1-.61 2.09-.94 3.02-.54 1.5-1.05 2.92-1.13 4.71v.05c-.02.37-.06 1.09 0 1.41.08.1.22.26.34.39.45.5 1.02 1.15 1.34 2.03.81.33 1.42.8 1.42 1.48v16.9s2.67 2.52 6.62 4.44l-.47-18.13c.43-.09.85-.19 1.26-.31l3.25 19.97c1.43.39 2.94.63 4.5.63s3.42-.41 5.35-1.15l-6.76-22.31c.33-.22.66-.45.97-.68l9.31 21.38c2.98-1.58 6.2-3.77 9.53-6.37l-15.12-18.52c.5-.59.96-1.2 1.4-1.83l16.86 17.81c2.41-2.02 4.86-4.21 7.3-6.51L143.4 101.8c.16-.38.32-.77.47-1.16l24.01 14.72c2.69-2.64 5.36-5.36 7.92-8.08l-30.15-12.55c.11-.47.21-.94.3-1.41l34.15 9.32c3.78-4.14 7.25-8.12 10.2-11.58l-43.53-3.48c.03-.36.06-.72.09-1.06h47.25Z"></path><path d="M115.67 109.98c-.19-.59-.14-1.52-.11-2.22.22-4.67 2.83-6.91 2.44-12.07-.22-2.91-1.67-5.97-3.28-7.94-3-3.67-8.2-6.67-14.72-6.67-9.08 0-17.4 6.25-18 14.72-.44 6.17 3.01 8.05 2.33 14.3-1.18 1.02-2.47 3.17-1.38 5.19 1.72 1.21.98 3.7 2.01 5.19.3.44.95 1.11 1.38 1.38.18.11.37.19.57.26.04.01.09.03.13.04.19.05.4.09.6.11h.11c.18.01.37.01.56 0h.16c.22-.02.43-.05.65-.08.05 0 .1-.02.15-.03.18-.03.35-.07.52-.12.06-.01.11-.03.17-.04a8 8 0 0 0 .58-.17.3.3 0 0 0 .1-.04c.16-.05.31-.1.45-.15.05-.02.11-.04.16-.06.14-.05.27-.1.39-.14-.73 2.38-1.64 5.14-1.48 8.05.18.05.38.08.59.1.08 0 .16 0 .25.01h.44c.17 0 .33 0 .5-.01h.63c.15 0 .3 0 .44.01.08-.84-.19-2.03.42-2.33.53.5-.08 1.49.11 2.33h3.07c.13-.86-.33-2.3.42-2.54.46.49-.08 1.64.11 2.54h2.44c.2-.75.06-1.85.42-2.44.36.59.22 1.68.42 2.44h2.44c.24-.9-.48-2.22.21-2.54.56.39.23 1.68.32 2.54h3.07c.23-.82-.53-2 .21-2.33.42.46.28 1.48.32 2.33.14 0 .29-.01.44-.01h.63c.17 0 .34 0 .5.01h.44c.08 0 .17 0 .25-.01.21-.02.42-.05.59-.1.18-2.97-.81-5.69-1.48-8.16.22.12.47.23.72.34.08.03.16.06.23.09.19.07.38.14.58.2.09.03.17.05.26.08.23.06.45.11.68.15.06 0 .11.02.17.03.28.04.56.07.84.07.2 0 .39 0 .58-.03.04 0 .08-.01.12-.02.16-.02.31-.06.46-.1.05-.02.1-.03.15-.05.18-.06.35-.14.5-.24 2.23-1.43 1.57-4.61 3.39-6.56.32-1.02.59-1.66.42-2.54-.23-1.21-1.54-1.97-1.8-2.75Zm-18.66 4.72c-.08.05-.18.1-.26.16-.22.14-.44.27-.67.4-.12.06-.24.12-.36.19-.21.11-.42.22-.64.32-.14.07-.29.12-.43.18-.21.09-.42.18-.63.26-.16.06-.32.11-.48.16-.21.07-.42.14-.64.21-.17.05-.35.09-.53.13l-.66.15c-.19.03-.38.06-.57.08-.23.03-.45.06-.69.08-.2.02-.4.02-.61.03-.16 0-.31.02-.47.02h-.48c-1.32-1.08-2.08-2.72-2.01-5.19.64-.92 1.81-1.3 2.96-1.69 1.85 1.05 3.8 1.99 6.35 2.33.56.53 1.46.73 1.69 1.59-.28.2-.57.4-.87.59Zm3.63 5.76h-1.17c-.57.84-1.26 1.56-2.12 2.12.27-2.67 1.13-5.28 2.75-6.25 1.49 1.44 2.29 3.57 2.54 6.25-.79-.59-1.6-1.15-2.01-2.12Zm10.48-3.39c-.2 0-.39.01-.59.01-.14 0-.28-.02-.42-.02-.2 0-.4-.02-.59-.03-.23-.02-.46-.05-.69-.08-.19-.03-.37-.05-.55-.09-.22-.04-.44-.1-.66-.15-.17-.04-.35-.08-.52-.13a7.75 7.75 0 0 1-.63-.21c-.16-.05-.32-.11-.48-.17-.21-.08-.41-.17-.61-.26-.15-.06-.29-.12-.44-.19-.21-.1-.41-.2-.61-.3-.13-.06-.26-.13-.39-.19-.22-.12-.43-.24-.65-.36-.1-.06-.2-.11-.3-.17-.31-.18-.61-.36-.9-.54.15-.98 1.13-1.13 1.69-1.69 2.56-.34 4.51-1.28 6.36-2.33 1.15.4 2.33.78 2.96 1.69.07 2.47-.69 4.11-2.01 5.19ZM100.05 79.31h5.88V75.9a7.402 7.402 0 0 0 1.57-4.56h6.27v-3.33H103.1V51.75h1.93v-5.16h-1.43c0-1.93-1.56-3.5-3.49-3.51s0 0-.02 0a3.51 3.51 0 0 0-3.49 3.51h-1.43v5.16h1.93v16.26H86.43v3.33h6.27c0 1.72.59 3.3 1.57 4.56v3.41h5.78ZM105.13 131.5H94.45v.1c.01 24.1 4.53 30.08 5.54 31.12v.19s.04-.03.1-.09c.06.06.1.09.1.09v-.19c1.01-1.04 5.53-7.03 5.54-31.14v-.09h-.61Z"></path><path d="M81.38 103.41c-.36-1-.74-2.07-1.01-3.3-4.86-.84-9.37-4.89-9.37-8.43 0-7.46 6.7-7.46 6.7-7.46v-4.91H0s2.22 2.83 5.87 7.23h47.25c.03.34.06.7.09 1.06L9.68 91.08c2.95 3.47 6.43 7.45 10.2 11.58l34.15-9.32c.09.47.19.94.3 1.41L24.18 107.3c2.57 2.72 5.23 5.44 7.92 8.08l24.01-14.72c.15.39.31.77.47 1.16l-21.19 16.73c2.44 2.3 4.89 4.49 7.3 6.51l16.86-17.81c.44.63.9 1.24 1.4 1.83L45.83 127.6c3.33 2.6 6.55 4.79 9.53 6.37l9.31-21.38c.32.24.64.46.97.68l-6.76 22.31c1.94.74 3.74 1.15 5.35 1.15s3.07-.24 4.5-.63l3.25-19.97c.41.11.83.21 1.26.31l-.47 18.13c3.96-1.93 6.62-4.44 6.62-4.44v-16.9c0-.72.68-1.2 1.56-1.53.33-.93.86-1.78 1.49-2.47.14-2.38-.43-3.98-1.08-5.8Z"></path></svg>