<?xml version="1.0" encoding="UTF-8"?>
<svg id="Layer_2" data-name="Layer 2" xmlns="http://www.w3.org/2000/svg" viewBox="0 0 134.88 144.96" fill="currentColor">
  <defs>
    <style>
      .cls-1 {
        stroke-width: 0px;
      }
    </style>
  </defs>
  <g id="Layer_1-2" data-name="Layer 1">
    <g>
      <path class="cls-1" d="M0,66.96c.28-1.06.43-2.15,1-3.13.52-.9,1.01-1.79,1.79-2.51.23-.21.37-.52.58-.74.15-.16.36-.25.54-.38.34.45.17.79.04,1.18-.22.63-.45,1.28-.51,1.94-.13,1.51,1.06,2.28,2.41,1.62,1.57-.77,2.15-2.08,1.74-4.01-.31-1.47-.62-2.94-.99-4.39-.6-2.34.2-4.21,2.04-5.56,1.72-1.26,3.59-2.3,5.59-3.12,1.91-.78,3.74-1.75,5.31-3.12.47-.41.84-.95,1.22-1.45.57-.75,1.11-1.53,1.75-2.42.52.81.41,1.51.15,2.2-.71,1.86-2.06,3.18-3.68,4.25-1.55,1.02-3.13,2.02-4.66,3.08-.81.56-1.54,1.24-2.31,1.86-.79.64-1.09,1.56-1.35,2.47-.12.44-.17.95.26,1.34.51.46,1.07.33,1.26-.33.09-.3.16-.61.25-.91.03-.11.09-.21.15-.34.47-.01.63.26.67.66.23,2.49-.14,4.82-1.65,6.9-.67.93-1.29,1.9-1.88,2.89-.95,1.61-1.42,3.36-1.26,5.24.06.72,1.12,1.73,1.78,1.64.41-.06.73-.33.84-.76.22-.88.46-1.75.62-2.64.21-1.17.35-2.35.98-3.4.24-.4.49-.84,1.09-.7.03.09.09.17.07.22-.62,1.32-.26,2.43.58,3.54.54.71,1.18,1.45,1.22,2.4.06,1.35.21,2.74-.29,4.02-.6,1.55-1.26,3.09-2.07,4.54-.91,1.64-1.76,3.31-2.1,5.15-.33,1.77,0,3.5,1.29,4.87.71.75,1.3.75,2.06.07.18-.16.32-.5.28-.73-.14-.81-.33-1.61-.56-2.4-.1-.33-.34-.62-.6-1.08.38.07.64.08.86.18,1.99.9,3.27,2.47,4.01,4.48.89,2.43.74,4.83-.45,7.14-.56,1.09-1.1,2.19-1.35,3.41-.28,1.34.23,2.79,1.31,3.61.55.42,1.11.38,1.66.1.55-.28,1.02-.69.9-1.4-.18-1.05-.4-2.09-.63-3.13-.26-1.16.14-2.12,1.12-2.58.03-.01.08,0,.19.02.04.1.16.26.12.37-.41,1.16.28,1.87,1.01,2.56.49.46,1.01.89,1.53,1.32.63.53.85,1.23.86,2.01.01,1.08-.06,2.16.02,3.24.14,1.91.57,3.75,1.68,5.36.76,1.1,1.77,1.76,3.16,1.87,2.37.18,3.49.99,4.25,3.29.42,1.27.61,2.61.96,3.9.17.64.45,1.26.72,1.87.49,1.1,1.5,1.04,2.46,1,.89-.04,1.32-.71,1.62-1.4.35-.82.27-1.68-.43-2.31-.49-.45-1.1-.76-1.65-1.16-.6-.44-1.31-.82-1.75-1.39-.9-1.17-.73-2.45.08-3.82.33.39.64.72.9,1.08.37.52.75,1.03,1.03,1.6.36.74,1.03,1.01,1.71,1.14.93.18,1.89.19,2.84.27.32.02.64.03.96,0,1.83-.21,3.16.75,4.49,1.82,1.6,1.29,2.15,3.08,2.64,4.94.29,1.09.77,2.03,1.8,2.68,1.04.66,3.1.64,4.02-.79.18-.28.46-.54.18-.83-.23-.23-.57-.41-.89-.47-.24-.05-.53.14-.8.17-.3.03-.61,0-1.08,0,1.03-1.31,1.99-2.39,3.64-2.49.23-.01.45-.16.68-.18,1.16-.12,2.15-.07,3.15.88,2.55,2.42,5.45,4.28,9.06,4.87,2.23.36,4.35.18,6.42-.6.69-.26,1.34-.71,1.9-1.2,1.04-.92.76-2.35-.53-2.89-.45-.19-.9-.28-1.48-.09-1.08.35-2,.95-2.95,1.5-1.1.64-2.2,1.28-3.55,1.19-1.08-.07-1.66-.72-2.26-1.77.43.1.64.13.85.19,1.24.35,2.34.03,3.3-.76.8-.65,1.64-1.29,2.3-2.07,1.88-2.24,5.32-2.18,7.38-.85,1.22.78,2.48,1.43,3.9,1.67,1.79.3,3.6.29,5.25-.54,1.38-.7,2.46-1.91,1.98-3.96-1.3-.38-1.77,1.12-2.93,1.34,0-.26-.04-.49,0-.69.37-1.41,1.31-2.44,2.38-3.34.31-.26.71-.37,1.21-.27,2.55.52,5.12.54,7.7.17,2.19-.31,4.27-.89,6.09-2.17,1.45-1.03,2.68-2.27,3.05-4.1.21-1.05.3-2.11-.29-3.13-.73-1.27-1.95-1.5-3.07-.53-.73.64-1.23,1.44-1.71,2.27-.49.86-1.03,1.69-1.6,2.49-.56.79-1.32,1.23-2.32,1.16-.62-.04-1.25.12-2-.2.25-.22.39-.39.56-.49,1.24-.75,2.1-1.75,2.4-3.24.28-1.43.74-2.82,1.52-4.08.77-1.24,1.89-2.04,3.19-2.58,1.2-.5,2.48-.82,3.69-1.31.95-.38,1.88-.83,2.76-1.37,1.32-.81,1.98-2.76,1.45-4.18-.16-.43-.51-.79-.76-1.15-1.73.29-1.79,1.65-2.01,2.91-.57.05-.82-.29-.95-.71-.35-1.12-.39-2.3-.21-3.43.09-.56.57-1.14,1.01-1.56,1.35-1.29,2.78-2.5,4.15-3.75,2.17-1.98,4.13-4.13,4.72-7.11.36-1.84.36-3.73-.5-5.48-.24-.48-.64-.91-1.05-1.28-1.01-.94-2.52-.5-2.7.85-.1.71-.2,1.43-.14,2.2.14,1.65.34,3.35-.19,4.99-.35,1.07-.9,1.41-2.04,1.38-.01-.07-.06-.17-.04-.2,1.22-1.37.87-2.85.31-4.35-.25-.67-.49-1.33-.76-1.99-.93-2.27-.36-4.37.84-6.33.95-1.55,2.03-3.02,3.1-4.49.81-1.12,1.34-2.36,1.57-3.69.18-1.07-.08-2.12-.85-2.98-.49-.55-1.13-.92-1.88-.56-.72.34-1.19.95-1.16,1.79.01.35.14.69.22,1.04.06.26.14.52.23.84-.84.22-1.37-.19-1.72-.78-.62-1.07-.99-2.21-1.03-3.49-.05-1.77.24-3.43.85-5.12.79-2.2.62-4.46-.58-6.55-.46-.81-1.07-1.34-2.11-1.22-.87.1-1.51.76-1.36,1.6.16.89.44,1.76.55,2.66.1.82.05,1.66.06,2.49,0,.04-.11.09-.26.2-.09-.16-.17-.31-.24-.46-.25-.53-.44-1.1-.76-1.59-.47-.73-1.07-1.38-1.55-2.1-1.05-1.61-1.39-3.34-.86-5.23.29-1.02.55-2.07.71-3.12.23-1.43-.15-2.53-1.07-3.07-1.24-.72-2.74-.6-3.77.32-.34.3-.43,1.18-.13,1.79.19.38.45.73.72,1.13-.89.25-1.59.06-2.21-.55-.81-.79-1.44-1.67-1.79-2.76-.55-1.73-1.12-3.46-1.75-5.17-.28-.77-.64-1.55-1.12-2.21-.98-1.34-2.41-1.08-3.54-.19-.38.3-.42,1.06-.15,1.55.13.24.3.46.45.7.53.84.44.98-.48,1.06-2.45.22-4.09-.96-5.27-2.96-.68-1.16-1.27-2.38-1.92-3.56-.71-1.28-1.39-2.59-2.17-3.82-.53-.84-1.26-1.51-2.2-1.95-1.54-.71-3.08-.61-4.3.54-1.54,1.46-1.49,3.62.63,4.89.93.56,2.04.86,3.08,1.24,1.99.73,2.83,2.25,2.65,4.03-.01.1-.09.2-.17.36-.63-.2-1.01-.67-1.32-1.15-.78-1.24-1.91-1.72-3.32-1.71-2.16.01-4.32.04-6.48,0-1.73-.04-3.11-.85-4.15-2.2-1.09-1.41-2.11-2.87-3.22-4.26-1.77-2.21-5.3-1.68-7.04-.32-1.15.9-1.26,2.74-.19,3.43.73.47,1.56.8,2.49.53.15-.04.29-.08.44-.12.14.93-.43,1.84-1.37,2.22-1.64.65-3.36.56-5.07.43-.9-.07-1.79-.33-2.69-.39-1.78-.13-3.57-.22-5.36-.25-.85-.01-1.65.27-2.25.92-.94,1.02-.64,1.59-.05,2.3.21.24.48.44.65.7.13.2.14.47.23.78-1.63-.26-3.15-.21-4.64-.12-1.13.07-2.28.36-2.82,1.62-.2.46-.33.9-.11,1.37.23.5.04.79-.41,1.07-.73.47-1.44.98-2.12,1.53-1.29,1.04-2.17,2.36-2.29,4.03-.11,1.57-1.09,2.57-2.03,3.64-.49.56-1,1.11-1.49,1.66.43.71,1.05.75,1.63.85.23.57-.05,1.03-.4,1.29-.59.45-1.26.94-1.96,1.08-1.47.29-2.98.46-4.47.52-1.47.06-2.93.06-4.36.46-.15.04-.33-.07-.64-.15.76-.82,1.64-1.18,2.44-1.65,1.71-1.03,3.34-2.16,4.65-3.69.81-.95,1.28-2.1,1.61-3.29.19-.68.22-1.41.32-2.17.35-.13.7-.31,1.08-.39,2-.44,2.91-3.98,1.15-5.46-.66-.55-1.41-.85-2.2-.63-2.61.73-4.8,2.01-6.04,4.6-.42.89-.5,1.74-.32,2.65.16.81.05,1.08-.73,1.33-.67.21-1.38.33-2.07.49-.69.16-1.39.29-2.07.5-.78.25-1.21.87-1.43,1.62-.12.42,0,.84.53.88.46.04.92,0,1.38-.05.33-.03.66-.13,1.09-.22-1.01,2.12-4.35,3.6-7.77,2.35-1.03.9-.97,2.17-1.1,3.55-.71-.89-1.11-1.77-1.37-2.69-.75-2.62-.93-5.31-.84-8.02.01-.36.19-.53.44-.76,2.02-1.87,4-3.78,5.98-5.7.48-.47.86-1.04,1.31-1.54.33-.36.17-.71-.05-.97-.72-.83-.55-1.73-.15-2.56.39-.81.89-1.61,1.49-2.28,1.2-1.33,2.58-2.46,3.97-3.6,1.47-1.2,2.89-2.53,3.6-4.39.26-.68.71-1.16,1.39-1.39.6-.21.94-.62,1.25-1.18.9-1.6,2.27-2.72,3.83-3.65,2.13-1.26,4.47-2.01,6.76-2.86,2.22-.83,4.48-1.6,6.49-2.9,1.89-1.23,3.3-2.85,4.07-4.98h.24c.06,1.76-.48,3.34-1.47,4.79-1.05,1.54-2.49,2.65-4.02,3.66-2.71,1.78-5.7,3.1-8.18,5.26-.83.73-1.4,1.59-2.13,2.59,1.36-.32,2.45-.68,3.35-1.44.88-.74,1.72-1.54,2.57-2.31,1.03-.93,2.16-1.66,3.72-2.05-.09.47-.12.81-.22,1.12-.13.42-.34.81-.46,1.22-.23.8.01,1.33.8,1.42,1.34.16,2.72.24,3.91-.61,1.06-.76,2.1-1.5,2.9-2.6,1.11-1.54,2.47-2.9,3.6-4.42,1.09-1.46,2.41-2.64,3.96-3.55,1.38-.81,2.88-1.28,4.53-1.24,1.44.03,2.82.39,4.22.62,1.69.27,3.32.22,4.77-.86.28-.21.56-.41.87-.64.08.8.1,1-.23,1.4-.65.8-1.31,1.61-2.07,2.3-.79.72-1.71,1.24-2.89,1.16-.62-.04-1.26.11-1.88.22-.93.17-1.87.32-2.7.84-1.05.66-1.23,1.94-.34,2.68.8.66,1.69.87,2.64.91,2,.08,3.83-.55,5.54-1.53,1.72-.98,3.42-1.99,5.11-3.03,2.17-1.34,4.51-1.91,7.04-1.66.63.06,1.32.06,1.86.68-.45.15-.82.25-1.19.39-1.42.54-2.4,1.51-2.86,2.98-.35,1.13.18,2.4,1.28,2.8.51.19,1.07.24,1.62.32,1.4.21,2.66-.36,3.92-.81,2.08-.75,4.16-1.53,6.2-2.38,1.76-.73,3.58-.72,5.4-.61,1.14.07,2.17.53,2.44,1.87.04.19.08.41.2.55,1.04,1.22,2.25,2.14,3.96,2.11,1.06-.02,2.12-.05,3.33-.08-.17.25-.27.49-.45.62-1.89,1.45-4.02,1.54-6.23.99-1.26-.31-2.51-.7-3.75-1.09-.55-.18-1.03-.08-1.48.2-.92.57-1.18,2.07-.43,2.96.45.54,1.02,1.04,1.63,1.36,1.29.66,2.71.87,4.16.78.43-.03.85-.17,1.28-.22.86-.11,1.74-.15,2.6-.29,2.02-.33,4.05-.4,6.04.07,1.85.44,2.93,1.84,3.93,3.51-.27,0-.37,0-.47,0-.95-.07-1.9-.21-2.83.15-.95.37-1.41,1.02-1.35,1.98.06,1,.49,1.53,1.91,1.73,1.99.29,4.02.33,6.03.52,1.26.12,2.54.21,3.75.52,1.5.39,2.52,1.45,2.67,3.02.18,1.81.92,3.13,2.56,3.99.56.29,1.22.61,1.45,1.31-.07.08-.11.19-.17.2-1.4.34-2.75.34-3.91-.69-.45-.39-.89-.8-1.38-1.12-1.48-.98-3.19-.4-3.78,1.26-.59,1.65,0,3.08.81,4.5.83,1.45,2.32,2.18,4.27,1.75,1.16-.26,2.38-.35,3.55.45,1.31.9,1.78,2.18,2.13,3.57.11.44.17,1-.22,1.52-.38-.41-.66-.79-1.03-1.07-.37-.29-.81-.56-1.32-.31-.73.35-1.56,1.8-1.4,2.61.27,1.39.78,2.67,2.08,3.44.99.59,1.97,1.18,2.98,1.72,2.13,1.15,3.47,2.78,3.24,5.33-.11,1.22-.32,2.43-.52,3.63-.21,1.28-.05,2.53.54,3.66.51.97,1.23,1.83,1.86,2.74v.48c-1.68.24-3.07-.32-4.15-1.58-1.06-1.23-1.45-2.75-1.37-4.31.04-.83-.28-1.25-.82-1.65-.71-.51-1.05-.4-1.53.38-.39.64-.44,1.33-.5,2.05-.17,2.01.33,3.74,1.87,5.13,1.3,1.17,2.57,2.39,3.84,3.59,1,.95,1.66,2.12,2.06,3.43.38,1.25.23,2.54.11,3.79-.05.59-.4,1.24-1.05,1.74-.16-.64-.3-1.16-.43-1.69-.12-.52-.55-.65-.92-.47-.71.34-1.5.68-1.99,1.25-1.14,1.32-1.33,2.91-.85,4.59.39,1.38,1.36,2.4,2.18,3.5.71.95,1.47,1.87,2.09,2.88.56.92.86,2.02.74,3.07-.24,2.11-1.18,3.9-2.76,5.37-.57.53-.97,1.24-1.41,1.9-.45.68-.4,1.44-.23,2.19.12.5.26,1.01.49,1.46.64,1.22.66,2.52.6,3.84-.03.64-.26,1.19-.94,1.46-.05-.15-.1-.23-.1-.3.15-1.68-.54-3-1.74-4.12-.43-.4-.82-.89-1.1-1.4-.71-1.29-.88-2.59-.02-3.93.55-.86,1.15-1.7,1.33-2.76.17-.99-.23-1.54-1.23-1.53-1.23.01-2.59,1.15-3.17,2.53-.76,1.81-.45,3.7-.41,5.55.03,1.42.36,2.83.4,4.24.04,1.18-.08,2.38-.24,3.56-.2,1.54-.91,2.9-2.03,3.94-.89.82-1.99,1.42-3.01,2.1-.12.08-.32.03-.65.05.21-.34.35-.52.45-.72.33-.63.7-1.24.94-1.9.26-.71-.14-1.39-.87-1.62-1.78-.56-3.42-.12-4.79,1.02-2.72,2.26-3.88,5.33-4.19,8.77-.15,1.69-.19,3.41-.5,5.07-.53,2.91-1.92,3.86-4.06,4.37-1.31.31-2.61.62-3.91.95-1,.26-1.79.8-2.3,1.74-.53.97-1.08,1.94-1.73,2.83-1.11,1.52-2.23,2.32-4.58,1.74.18-.16.3-.3.45-.4.5-.32,1.08-.55,1.5-.94,1.32-1.21,1.91-2.81,2.05-4.55.06-.81.2-1.53.96-1.91.49-.25,1.05-.34,1.56-.54.77-.29,1.57-.49,2.18-1.14.56-.6.43-1.3.29-1.92-.14-.63-.79-.89-1.42-.89-.55,0-1.12.07-1.63.24-1.53.51-2.94,1.24-3.78,2.72-.61,1.07-1.15,2.18-1.77,3.24-1.16,1.97-2.69,3.58-4.95,4.21-1.4.39-2.85.59-4.29.85-.37.07-.76,0-1.15,0,.19-.49.46-.77.75-1.03.5-.45,1.05-.86,1.5-1.35.59-.63.67-1.55.25-2.07-.71-.87-1.53-1.55-2.76-1.3-.58.12-1.16.25-1.7.48-1.46.59-2.64,1.61-3.76,2.67-1.27,1.21-2.57,2.37-4.05,3.31-1.47.94-3.05,1.48-4.82,1.47-1.18-.01-2.25-.45-3.34-.77-2.63-.77-5.17-.75-7.56.76-.6.38-1.19.79-1.79,1.17-.17.1-.38.14-.74.27.21-.63.39-1.06.5-1.51.44-1.83,1.66-2.79,3.44-3.15,1.47-.3,2.94-.59,4.39-.98.67-.18,1.33-.51,1.92-.89.69-.44.78-1,.42-1.75-.47-.99-1.28-1.45-2.35-1.56-1.83-.19-3.44.43-4.99,1.29-1.21.67-2.39,1.41-3.62,2.04-1.72.89-3.56,1.37-5.51,1.22-1.81-.15-3.54-.56-4.75-2.1-.18-.24-.59-.45-.29-.78.18-.19.54-.24.84-.29.13-.02.29.12.44.16.74.21,1.01.14,1.37-.5.19-.33.28-.74.32-1.12.18-1.68-2.05-3.62-3.84-3.76-1.47-.12-2.82.35-4.17.82-1.51.53-3.01,1.02-4.64.87-.83-.08-1.67-.1-2.48-.26-2.31-.47-3.96-1.74-4.65-4.07-.06-.21-.01-.45-.02-.67.26.01.53-.02.76.04.42.12.81.34,1.22.46.79.22,1.22-.11,1.25-.91.09-2.03-.89-3.65-3.1-4.39-1.74-.58-3.57-.38-5.33-.16-1.26.15-2.46.16-3.64-.2-.76-.23-1.49-.62-1.84-1.41-.35-.79-.71-1.59-.95-2.42-.51-1.76-.6-3.67-1.86-5.19,1.52-.21,1.75-.11,2.41,1.04.22.38.45.74.67,1.12.46.78,1.29,1.06,2.14.73.7-.28,1.02-.96.76-1.84-.21-.72-.48-1.42-.8-2.1-.58-1.19-1.52-2.04-2.76-2.51-1.4-.53-2.85-.97-4.25-1.49-.89-.33-1.77-.69-2.61-1.13-1.79-.94-2.92-2.42-3.26-4.42-.12-.71-.16-1.47.12-2.29.51.34.91.58,1.27.86.5.38,1.02.35,1.55.12,1.28-.58,1.91-1.61,2.05-2.98.25-2.47-1.08-4.26-2.66-5.86-1.5-1.53-3.23-2.83-4.73-4.36-1.28-1.3-2.01-2.93-1.97-4.83.02-.8-.03-1.6.01-2.4.07-1.22-.06-2.38-.88-3.35.12-.08.18-.15.25-.15,1.08-.07,2.06.76,2.41,2.03.13.49.28.99.45,1.47.28.81.64.96,1.41.66.6-.23.82-.7.92-1.28.21-1.3-.34-2.32-1.21-3.21-.78-.8-1.61-1.56-2.37-2.38-1.07-1.18-2.11-2.4-1.96-4.17,0-.1-.11-.2-.16-.3,0-.48,0-.96,0-1.44ZM23.71,24.89c-1.04-.31-1.96.07-2.84.29-1.97.49-2.83,2.39-2.12,4.37.63-.16,1.26-.31,1.89-.47.06-.02.14-.05.18-.09,1.02-1.29,2.18-2.5,2.89-4.1ZM8.72,41.28c.48-.68.34-1.22.42-1.97-.64.67-.4,1.23-.42,1.97Z"/>
      <path class="cls-1" d="M74.64,144.96c-.93-.36-1.8-.8-2.33-1.7-.05-.09-.04-.22-.08-.4.21-.02.42-.11.58-.05,1.51.52,2.82-.05,4.06-.78,1.22-.72,2.34-1.64,3.74-2.03,1.15-.33,2.16-.03,3.27.78-.4.08-.6.13-.81.16-.59.07-1.09.32-1.37.84-.99,1.85-2.69,2.57-4.59,3.02-.11.03-.2.11-.3.17h-2.16Z"/>
      <path class="cls-1" d="M0,51.6s.08-.05.08-.08c.48-1.84,1.25-2.47,3.15-2.61.23-.02.47,0,.83,0-.12.24-.14.4-.24.48-.9.77-1.07,1.82-1.12,2.9-.05.99.02,1.99-.02,2.99-.04.79-.04,1.61-.3,2.34-.21.6-.76,1.08-1.2,1.58-.09.11-.41.13-.54.05-.12-.07-.22-.38-.16-.51.53-1.16-.18-2.26-.15-3.39C.36,54.66.12,53.97,0,53.28c0-.56,0-1.12,0-1.68Z"/>
      <path class="cls-1" d="M27.46,104.1c.25-1.14.52-2.4.83-3.66.04-.15.24-.35.37-.36.14,0,.4.16.43.29.11.53.3,1.11.19,1.61-.15.66-.01,1.17.37,1.62.45.54.94,1.04,1.46,1.51.56.5,1.15.96,1.78,1.38,1.64,1.11,2.39,2.92,1.7,5.09-.18.56-.57.66-.95.22-.15-.17-.27-.4-.31-.62-.17-1-.82-1.6-1.65-2.04-.77-.41-1.55-.81-2.34-1.16-.83-.37-1.31-1-1.51-1.86-.14-.61-.23-1.24-.37-2.02Z"/>
      <path class="cls-1" d="M90.29,32.58c.34-.15.68-.4,1.03-.44,1.54-.16,3,.04,4.27,1.06.27.22.42.39.47.75.11.74.32,1.46.45,2.2.27,1.52,1.02,2.54,2.64,2.75.06,0,.11.1.23.21-.57.64-1.32.85-2.09.76-.7-.08-1.37-.37-2.05-.57-.83-.25-1.15-.87-1.22-1.68-.06-.63-.14-1.25-.24-1.88-.27-1.74-1.26-2.66-2.99-2.8-.15-.01-.31-.05-.46-.07-.02-.09-.04-.18-.06-.28Z"/>
      <path class="cls-1" d="M80.85,3.16c.53-.87,1.15-1.5,2.3-1.55,1.07-.05,2.03.27,3,.61.71.24,1.41.51,2.1.81,1.2.51,2.23.21,3.19-.57.12-.09.25-.16.44-.28.17.71.15,1.28-.33,1.83-.65.73-1.11,1.58-2.2,1.85-1.46.37-2.62-.1-3.73-.94-.44-.33-.84-.72-1.29-1.04-.88-.62-1.81-.99-2.89-.51-.1.04-.24.02-.35-.01-.06-.02-.11-.1-.23-.2Z"/>
    </g>
  </g>
</svg>