<?xml version="1.0" encoding="UTF-8"?>
<svg id="Layer_2" data-name="Layer 2" xmlns="http://www.w3.org/2000/svg" viewBox="0 0 495.9 497.06">
  <defs>
    <style>
      .cls-1 {
        stroke-width: 0px;
      }
    </style>
  </defs>
  <g id="Layer_1-2" data-name="Layer 1">
    <g id="g4">
      <path id="path2" class="cls-1" d="M0,117.9V0h219.27c.11.88.28,1.82.28,2.7,0,33.77,0,67.55.06,101.37,0,2.04-.72,2.75-2.59,3.31-49.2,14.27-81.26,46.17-92.61,95.92-11.46,50.14,3.25,93.44,42.53,126.99,28.81,24.63,62.64,34.93,100.49,28.7,69.53-11.46,116.3-76.03,106.22-146-7.27-50.58-45.01-92.78-94.49-105.5-2.42-.61-2.86-1.71-2.86-3.91.06-33.44.06-66.83.06-100.27,0-1.1.17-2.2.28-3.25h219.27v117.9c-30.47,0-60.93-.06-91.4-.06-.33,0-.61.22-.83.28,5.51,6.12,11.18,11.85,16.25,18.13,44.79,55.48,60.16,118.4,45.56,188.04-19.39,92.39-95.26,160.6-190.9,171.12-5.34.61-10.74,1.05-16.14,1.6h-20.94c-.88-.17-1.76-.39-2.7-.44-13.39-.77-26.67-2.59-39.72-5.62C82.81,464.99,12.4,360.42,27.33,246.93c6.5-49.36,28.32-91.4,63.36-126.66.61-.61,1.16-1.27,2.09-2.31h-35.48c-19.12-.11-38.24-.06-57.3-.06Z"/>
    </g>
  </g>
</svg>