<svg class="transition-all" xmlns="http://www.w3.org/2000/svg" fill="none" viewBox="0 0 49 48"><g fill="currentColor"><path d="M17.95 14.24 16 12.28c-.9-.9-.5-1.83-.04-2.29l.85-.83-1.23-1.24-3.49 3.46-3.49 3.46 1.23 1.24.84-.84c.46-.46 1.4-.84 2.29.06l2.21 2.23a7.5 7.5 0 0 1 2.77-3.29Zm20.78 17.29-.84.83c-.46.46-1.4.85-2.3-.05l-2.54-2.58.09.13v.17c0 .15 0 1.35-.52 2.31l3.85 3.88 3.49-3.46-1.23-1.23Z"></path><path d="M32.2 32.94a2.2 2.2 0 0 1-1.37.64l1.73 1.74c.9.9.5 1.83.04 2.3-.47.45-.84.83-.84.83l1.22 1.23 3.49-3.46-3.85-3.88c-.11.22-.25.42-.43.6Zm1.3-15.13 2.3-2.28c.9-.9 1.84-.5 2.3-.04.45.47.83.84.83.84l1.24-1.22-3.46-3.49-3.46-3.49L32 9.36l.84.84c.46.46.84 1.4-.06 2.29l-1.93 1.92a7.38 7.38 0 0 1 2.64 3.4ZM15.78 35.12l1.61-1.6c-.39-.1-.73-.3-1.01-.58a2.8 2.8 0 0 1-.57-.87l-3.95 3.91 3.46 3.5 1.24-1.23-.84-.84c-.46-.47-.84-1.4.06-2.3Z"></path><path d="m15.43 30.03.01-.18.1-.15s.13-.2.22-.59l-3 2.97c-.9.9-1.83.5-2.28.04l-.84-.85-1.23 1.23 3.46 3.49 3.95-3.92a5.4 5.4 0 0 1-.38-2.04Z"></path><path d="m33.66 23.26-.59-.42s.36-.63.36-2.13c0-7.07-8.02-7.88-9.14-7.88-1.12 0-9.14.8-9.14 7.88 0 1.5.35 2.13.35 2.13l-.59.42s-.06 0-.06.65c0 2.15 1.57 1.04 1.57 4.38 0 1.18-.4 1.75-.4 1.75v.03c0 .33.05 2.94 1.93 2.94.7 0 .4-.54.98-.68.09-.02.2-.03.32-.03.68 0 .79.61.79.83 0 .21-.18.81-.8.81-.19 0-.27-.05-.27-.05s-.35.8-.4 2.04a8.67 8.67 0 0 0 .03.8c.1 1.36.53 3.05.53 3.05s.82 1.48 2.25 1.74c-1.07-.8-.96-1.17-.96-1.49 0-.63.68-.26.68-.26s-.62-.65-.62-1.27.7-.26.7-.26-.54-.68-.54-1.3v-.1c.04-.5.36-.42.36-.42s.37.12.73.54l.15.2c.2.35.5.57.5.57-.02-.08-.17-.73.53-1.3 0 .87.67 1.34.67 1.34v-.1c-.02-.25.02-.97.7-1.38.7.4.74 1.13.73 1.39l-.01.1s.67-.48.67-1.35c.7.57.55 1.22.52 1.3 0 0 .31-.23.5-.57l.15-.2c.36-.42.74-.54.74-.54s.32-.08.35.42v.1c0 .61-.54 1.3-.54 1.3s.7-.36.7.26-.62 1.27-.62 1.27.68-.37.68.26c0 .32.11.69-.96 1.49 1.43-.26 2.26-1.74 2.26-1.74s.42-1.69.52-3.05l.03-.55v-.25c-.05-1.25-.4-2.04-.4-2.04s-.08.05-.26.05c-.62 0-.8-.6-.8-.81 0-.22.1-.83.79-.83.12 0 .22.01.3.03.6.14.3.68.99.68 1.89 0 1.94-2.61 1.94-2.94v-.03s-.4-.57-.4-1.75c0-3.34 1.56-2.23 1.56-4.38 0-.65-.06-.65-.06-.65Zm-17.11.49c.03-.04.29-.3.85-.3 1.44 0 2.39 1.42 2.9 1.42-.82 0-.41.92-1.51 1.1a2.7 2.7 0 0 1-.85-.03c-1.28-.32-1-2.03-1.39-2.2Zm4.72 5.7-.03.07-.01.02c-.12.26-.52 1.64-1.69 1.64-1.5 0-1.8-1.9-1.8-2.39 0-.46.08-.6.1-.77v-.04c0-.19-.2-.32-.2-.32s.02-.08.41-.09h.08c.14 0 .26.02.38.04 1.15.24 1.61 1.54 2.54 1.54.26 0 .39-.06.39-.06l-.16.36Zm.13-1.28c-1.32 0-1.03-1.59-1.45-1.83v-.02c.06-.05.3-.26.63-.26 1 0 1.63.9 2.08 1.22 0 0-.15.08-.27.2l-.18.22c-.43.43-.81.47-.81.47Zm4.5 5.4-.01.02s.09-.39-.03-.92c-.1-.5-.6-1.07-1.01-1.14h-.08c-.43 0-.48.71-.48.71s-.05-.71-.49-.71h-.08c-.42.07-.9.65-1.01 1.14-.12.53-.03.92-.03.92v-.01c-.05-.08-.49-.74-.49-.88 0-.56.28-.61.53-1.11.25-.5.17-.6.37-1.3.19-.7.45-.88.45-.88s.12.07.14.23c.03.59.54 1.02.6 1.08h.02c.06-.06.57-.49.6-1.08.02-.16.14-.23.14-.23s.26.19.45.89c.2.7.12.8.37 1.29.25.5.52.55.52 1.1 0 .15-.43.8-.48.89Zm.46-5.87a2.83 2.83 0 0 1-.19-.22c-.11-.12-.26-.2-.26-.2.44-.32 1.08-1.22 2.08-1.22.33 0 .57.21.62.26l.01.02c-.42.24-.13 1.83-1.45 1.83 0 0-.39-.04-.81-.47Zm4.38.28v.04c0 .18.09.31.09.77 0 .5-.3 2.39-1.8 2.39-1.16 0-1.56-1.38-1.68-1.64l-.02-.02-.03-.07c-.1-.18-.17-.36-.17-.36s.13.06.4.06c.92 0 1.38-1.3 2.53-1.54.12-.03.24-.04.38-.04h.08c.39.01.4.1.4.1s-.18.12-.18.31Zm-.1-2.04a2.38 2.38 0 0 1-.84.02c-1.12-.17-.71-1.1-1.53-1.1.52 0 1.46-1.42 2.9-1.42.56 0 .82.26.85.3-.39.16-.1 1.88-1.39 2.2Z"></path></g></svg>