<?xml version="1.0" encoding="UTF-8"?>
<svg id="Layer_1" data-name="Layer 1" xmlns="http://www.w3.org/2000/svg" viewBox="0 0 640 640" fill="currentColor">
  <path class="cls-1" d="M224.21,513.33c-2.13,2.17-3.59,1.01-5.06-.13-2.06-1.61-3.78-3.47-4.95-5.88-.77-1.6-2.02-2.97-2.96-4.5-.61-.99-.85-2.29-1.64-3.05-.77-.72-2.05-.88-3.07-1.37-.37-.18-.66-.56-.92-.9-1.12-1.48-2.5-2.28-4.43-2.13-.64.05-1.42-.18-1.94-.56-1.08-.77-2.1-1.1-3.36-.44-.24.12-.87-.07-1.02-.3-.62-.94-1.13-1.96-1.79-3.17-.53,1.31-1.31,2.38-2.87,2.34-3.94,3.21-8,6.3-11.76,9.71-1.04.95-1.55,2.48-3.01,3.25-.56.29-.75,1.3-1.08,2-.29.62-.46,1.31-.81,1.9-.54.9-1.16.95-1.86.21-.23-.25-.38-.58-.58-.85-.19-.26-.42-.5-.9-1.08,0,.82-.18,1.4.03,1.66,1.06,1.33-1.16.45-.78,1.2.43.85.33,1.36-.62,1.83-.65.32-1.05,1.12-1.64,1.6-.28.23-.85.4-1.12.26-.5-.25-.81-.94-1.54-.45-.91.61-1.87,1.17-2.74,1.84-.31.23-.37.96-.65,1.04-2.28.59-2.67,2.47-3.16,4.33-.07.28-.46.75-.6.71-2.1-.49-1.69,1.24-1.88,2.22-.28,1.47-.4,2.89-2,3.65-.31.15-.62.99-.47,1.28.7,1.42-.17,2-1.13,2.72-.66.5-1.35,1.17-1.65,1.91-.5,1.22-1.41,1.5-2.47,1.42-1.36-.1-2.44.25-3.56,1.08-1.73,1.27-1.96,1.14-3.55-.62-.17-.19-.38-.58-.5-.55-2.03.43-2.49-1.44-3.55-2.4-1.09-.98-2.16-2-3.09-3.12-1.68-2.02-1.78-4.39-1.31-6.87.43-2.27.77-4.56,1.18-6.84.05-.3.2-.72.44-.85,2.48-1.36,2.56-4.07,3.53-6.27.37-.83.16-1.89,1.28-2.36.28-.12.39-.69.54-1.07.12-.32.09-.76.3-.97,1.81-1.87,2.61-4.15,2.8-6.69.02-.25.1-.56.27-.71,1.8-1.61,2.22-3.99,3.28-6,1.06-2.02,1.74-4.21,3.52-5.82.4-.36.56-1.07.67-1.66.19-.99.04-2.14,1.4-2.44.17-2.19,2.15-4.07.69-6.59-2.65-4.55-5.06-9.24-7.5-13.9-.98-1.88-1.78-3.85-2.68-5.77-1.63-3.47-3.32-6.92-4.91-10.4-1.62-3.55-3.54-6.91-5.95-9.99-1.97-2.51-3.9-5.06-5.74-7.68-.93-1.33-1.71-2.8-2.38-4.29-1-2.26-.96-4.51.39-6.69,1.4-2.26,2.25-4.65,1.65-7.38-.14-.63.09-1.33.12-1.71-2.83-1.13-5.52-2.21-8.21-3.29-.16-.06-.33-.16-.42-.29-2.04-2.78-4.23-5.45-6.01-8.39-.74-1.22-.41-3.05-.88-4.5-.46-1.42-1.49-2.66-1.98-4.08-.62-1.83-.55-3.77.13-5.59.21-.56.76-1.2,1.3-1.38.61-.21,1.18-.24,1.23-1.01.06-.91.35-1.91.08-2.71-.67-1.97-.8-1.98,1.15-2.91,1.82-.87,2.53-2.74,3.81-4.09.44-.46.02-.91-.6-1.08-1-.28-1.98-.61-2.96-.94-1.74-.57-2.46-1.67-2.27-3.5.05-.51.13-1.04.28-1.53,1.17-3.77.73-7.47-.18-11.23-.36-1.46-.13-3.06-.25-4.6-.07-.91-.31-1.81-.47-2.71-1.25.27-1.74-1.38-2.49-1.3-1.41.14-2.02-.75-2.87-1.4-2.1-1.59-4.31-2.88-7.06-2.87-.34,0-.72,0-1.02-.12-3.37-1.44-7.1-1.19-10.55-2.25-1.51-.46-2.85-.28-4.06.86-1.08,1.03-2.31.99-3.8.73-2.1-.37-4.29-.12-6.44-.24-.92-.05-2.06.52-2.67-.89-.21-.49-1.03-.21-1.1.42-.17,1.35-.71,1.34-1.92,1.04-.99-.25-2.18.1-3.23.38-1.6.43-3.11,1.16-4.43-.65-.22-.3-1.33-.24-1.83.03-1.15.62-2.07.81-2.8-.51-.4-.72-.94-.74-1.74-.59-.89.16-1.87,0-2.78-.16-1.36-.23-2.69-.58-4.04-.88-.34-.07-.7-.1-1-.24-1.87-.88-3.12-2.6-5.31-3.22-1.99-.57-3.69-2.17-5.49-3.35-.25-.16-.37-.52-.55-.79.34-.12.71-.39,1.02-.34,1.01.18,1.15-.66,1.43-1.2.91-1.76,1.77-3.55,2.58-5.36.7-1.58,1.82-2.44,3.58-2.49,1.32-.03,2.53-.27,3.34-1.57.34-.55,1.07-.84,1.6-1.29.72-.61,1.4-.71,1.96.14.77,1.17,1.75,1.12,2.95.78,2.16-.6,4.34-1.13,6.53-1.6,1.86-.4,1.88-.35,3.24,1.21.53-.58.95-1.35,1.61-1.7.71-.38,1.51-.13,1.95.74.06.12.4.15.6.12.13-.02.21-.3.35-.35,2.1-.74,4.23-1.6,5.98.66.9,1.16,1.71.79,2.57-.05.61-.6,1.28-1.14,2.01-1.79.47.45.88.87,1.33,1.25.87.73,1.69,1.15,2.55-.13.28-.41,1.01-.67,1.55-.71,1.37-.11,2.76-.09,4.14-.05.35.01.91.21,1.01.47.37.95.92.36,1.12.07,1.16-1.63,2.68-2.65,4.64-3.05.23-.05.58-.19.61-.34.61-2.7,3.18-1.82,4.82-2.57,1.37-.63,3-.68,4.44-1.2,2.19-.78,4.36-1.63,6.44-2.65.96-.47,1.66-1.43,2.54-2.08,1.13-.85.79-1.93.72-3.06-.08-1.2.01-2.42.15-3.61.39-3.44.77-6.86.11-10.31-.22-1.15-.18-2.35-.21-3.53-.03-1.18,1.26-2.15,2.44-1.84.57.15,1.11.38,1.75.61.21-1.16.39-2.15.55-3.15.04-.22,0-.64-.05-.65-1.85-.34-.5-2.14-1.46-2.92-.9.18-1.91.42-2.93.56-1.42.2-2.13-.42-2-1.81.12-1.29.33-2.57.6-3.84.35-1.64.48-1.63,2.34-1.69.46-.02,1.02-.46,1.32-.87.45-.59.71-1.32,1.3-2.48.49,1.55.83,2.6,1.25,3.9,1.26-4,1.2-4.22-1.59-6.85-1.93-1.82-2.11-2.99-.69-5.18.52-.79,1.2-1.47,1.76-2.23.67-.91,1.29-1.04,2.4-.51,1.2.58,2.62.72,3.96.99.98.2,2.05-.73,2.21-2.01.1-.78-.41-1.75.91-1.97.08-.01.16-.62.07-.89-.6-1.88-.27-3.41,1.59-4.4.96-.51.62-.92.02-1.54-1.42-1.45-3.23-2.79-2.96-5.13.16-1.39.75-2.73,1.2-4.08.06-.17.39-.32.61-.35,1.69-.18,2.06-.63,1.89-2.27-.06-.6-.18-1.22-.06-1.79.2-.93.43-1.97,1.87-1.33.75.34,1.28-.11,1.18-.83-.31-2.11,1.13-3.65,1.73-5.44.44-1.31,1.6-2.37,2.46-3.53.31-.41.62-.89,1.05-1.14,2.67-1.54,4.74-3.85,7.23-5.61,2.11-1.49,2.09-1.49,3.26-3.97.36-.76.84-1.55,1.47-2.1,1-.88,1.35-2.11,1.45-3.21.11-1.19.53-1.68,1.52-1.44,1.72.42,2.34-.59,2.84-1.87.54-1.4,1.42-2.43,2.66-3.37,1.24-.94,2.33-2.25,2.56-3.99.08-.59.15-1.28.48-1.73,1.22-1.7.78-3.42.26-5.17-1.62-5.46-3.21-10.93-4.87-16.39-.7-2.32-1.98-4.31-3.27-6.38-1.39-2.23-3.81-3.27-5.08-5.47-.66-1.14-1.77-1.95-1.45-3.66.14-.78-1.03-1.8-1.61-2.72,2.53-.97,3.34-.52,3.52,1.98.07,1.03-.06,2.07.07,3.09.05.34.65.6.99.9.22-.31.49-.6.66-.93.21-.41.33-.88.53-1.3.82-1.73.72-2.11-.67-3.51-.95-.96-1.82-1.9-1.97-3.48-.1-1.1-.89-2.2-1.58-3.16-.33-.46-1.12-.59-1.71-.88-.1.14-.2.29-.3.43.55.51,1.09,1.01,1.75,1.62-1.05.76-2.67.89-2.87,2.51-.64-.1-1.51.02-1.89-.35-1.33-1.32-2.8-2.66-3.63-4.28-.89-1.75-1.85-3.45-2.82-5.15-1.13-2-1.81-4.27-2.64-6.44-.43-1.12-.62-2.37-1.2-3.4-1.4-2.45-.82-4.7.51-6.83,1.89-3.03,4.84-4.26,8.29-4.58,1.39-.13,2.19.87,3.21,1.46.64.37.9,1.22,2.06.41.82-.58,3.29,1.81,3.07,3.13-.39,2.33,1.22,2.9,3.03,4.1-.78-1.35-1.33-2.29-1.88-3.23,2.4.83,4.22,2.27,5.72,3.96,2.32,2.61,5.14,4.59,7.67,6.93,1.33,1.23,2.57,2.55,3.81,3.86.52.55.96,1.02,1.8,1.27.77.22,1.39,1.18,1.92,1.92,1.07,1.5,2.01,2.97,4.3,2.67.7-.1,1.57.6,2.28,1.07,1.73,1.13,3.45,2.29,5.1,3.54,1.04.8,2.06,1.06,3.36.83.96-.17,1.99.07,2.99.1,1.11.03,2.23,0,3.34.04,1.56.05,3.08.22,4.36,1.92-.59,0-.95.11-1.1-.02-.75-.64-1.3-.3-1.69.35-1.13,1.89-2.14,3.38.88,6.31.14-.79.23-1.4.39-2,.05-.2.28-.47.45-.49.2-.03.56.14.63.31.26.63.34,1.33.65,1.93.24.48.67,1.11,1.09,1.18.44.07,1.23-.33,1.42-.73.24-.53.23-1.35-.02-1.88-.28-.58-1.01-.91-1.44-1.43-1.37-1.65-1.3-1.61.2-3.03.88-.83,1.58-1.02,2.28.09.86,1.36,1.8,1.06,3.07.46,1.36-.65,2.9-1.05,4.4-1.24,1.18-.15,1.83-.82,2.57-1.55,1.26-1.24,1.27-1.23,2.67.42-.11-.76-.04-1.32-.27-1.71-1.24-2.08-.07-3.36,1.37-4.63.71-.62,1.8-.92,1.38-2.42-.14-.48,1.04-1.44,1.74-2.03,1.24-1.04,2.59-1.86,2.9-3.72.19-1.16,1.32-1.88,2.47-2.03,1.61-.22,3.25-.26,4.88-.27,2.07,0,4.13.15,6.2.14,1.23,0,1.23-.08,2.08,1.6.3-2.3,1.88-2.25,3.47-2.39,2.83-.24,5.65-.63,8.47-.93,1.63-.17,2.13.33,1.29,1.6-.98,1.48.4,1.23,1.24,1.97.1-1.48.18-2.69.27-4.06,1.65.35,3.05.24,4.39-.83,1.14-.9,2.64-.96,3.88-.09.89.63,1.6.42,2.37-.03,2.78-1.63,6.14-2.22,8.4-4.77.14-.16.46-.23.69-.23,3.99.01,7.45-1.35,10.59-3.78,1.07-.82,2.37-1.49,3.67-1.82,1.41-.36,2.22-1.07,2.85-2.32,1.06-2.11,1.17-2.16,3.38-1.23.94.39,1.69.17,2.47-.13,1.01-.39.47-1.32.57-2.03.07-.49.22-1.01.49-1.41.9-1.34,1.88-2.64,2.83-3.95.25-.35.46-.9.79-.99,1.24-.32,1.32-.83.78-1.93-.51-1.05-.24-1.26,1.05-1.18,1.63.11,1.98-.23,1.76-1.78-.04-.25-.19-.5-.19-.75,0-.74-.98-1.67.44-2.13,1.4-.46,2-.28,2.79.93.22.34.42.7,1.08.87-.33-.89-.76-1.75-.97-2.67-.18-.8-.46-1.85-.11-2.45,1.14-1.97,1.49-4.11,1.86-6.28.08-.48.49-.91.67-1.38.3-.78.72-1.58.76-2.39.13-3.18,1.09-6.1,2.53-8.89,1.63-3.15,2.71-6.47,3.83-9.84,1.58-4.75,2.02-9.69,3.26-14.48.34-1.32.5-2.76.35-4.11-.2-1.74.32-3.05,1.6-4.1.7-.58.9-1.14.56-2-.63-1.62-.34-3.04,1.07-4.17.32-.26.7-.66.74-1.03.32-2.79,2.71-3.92,4.47-5.45,1.4-1.21,3.3-.83,4.92-.26,2.54.9,4.13,2.71,4.51,5.49.35,2.56.76,5.12,1.22,7.67.6,3.31,1.37,6.59,1.88,9.91.32,2.03-.3,4.42.58,6.09,1.01,1.91,1.32,3.86,1.75,5.82,1.13,5.22,2.07,10.48,3.1,15.73.28,1.42.21,2.74-.94,4.08,1.53.64,1.95,1.88,2.31,3.36.94,3.85,2.14,7.64,3.25,11.45.35,1.21,1.23,2.5-1.14,3.32,2.63.2,2.94,1.81,3.38,3.41,1.56,5.66,4.08,10.81,8.21,15.07.83.86,1.61,1.83,2.95,1.93.24.02.53.14.71.3,2.52,2.36,5.82,3.03,8.9,4.19,1.03.39,1.94,1.12,2.93,1.64,1.22.65,2.41,1.37,3.7,1.82,1.67.58,3.17,1.28,4.08,3.2,1-1.71,2.24-1.64,3.67-1.04,1.48.61,3.11.83,4.32,2.09.41.42,1.27.58,1.93.57,2.28,0,4.14.88,6.02,2.11,1.78,1.17,3.85,1.91,5.84,2.74.41.17,1-.04,1.5-.13,2.02-.35,3.94-.11,5.79.81.6.3,1.27.62,1.92.65,4.26.21,8.28,1.33,12.15,3.08,1.41.64,2.9,1.11,4.33,1.72,1.19.51,2.44.96,3.49,1.69,2.43,1.71,4.7,3.6,7.35,5.07,2.51,1.39,4.66,3.58,6.65,5.7,2.03,2.16,4.66,3.6,6.49,5.98,1.79,2.32,3.89,4.39,5.81,6.61,1.27,1.47,1.25,1.6,3.08.23,2.07-1.55,4.23-2.97,6.4-4.38.71-.46,1.55-.76,2.36-1.05,3.15-1.13,3.4-1.06,5.69,1.52.06-.63.16-1.09.12-1.55-.09-1.05.48-1.57,1.35-1.94,2.37-1.02,4.76-2.01,7.09-3.12,1.22-.59,2.39-1.33,3.47-2.15,1.58-1.2,2.49-3.21,4.61-3.78.35-.1.67-.56.88-.92.65-1.13,1.62-1.67,2.84-2.05,1.56-.49,2.84-1.38,4.01-2.66,1.37-1.5,3.22-2.57,4.86-3.82,1.98-1.51,3.95-3.04,5.95-4.53.39-.3.91-.73,1.3-.67,2.02.3,3.78-.66,5.64-1.1,1.83-.43,3.57-1.26,5.36-1.89,1.71-.6,3.41-1.2,5.14-1.73,1.14-.35,2.1.08,2.59,1.15.54,1.17,1.14,2.38,1.3,3.62.24,1.84.13,3.72.12,5.58,0,1.43-.56,2.37-1.71,3.46-2.92,2.78-5.42,5.98-8.11,9.01-.44.5-.96.92-1.45,1.37-.25.23-.66.38-.76.66-1.2,3.26-4.3,5.26-5.62,8.43-.25.61-.4,1.31-.41,1.98-.03,1.4-.54,2.41-2.02,2.51-2.72.18-4.92,1.76-6.82,3.26-2.01,1.6-4.33,3.4-4.7,6.46-.1.79-.61,1.67-1.2,2.24-1.48,1.43-2.54,3.26-5.02,3.66-1.95.31-3.41,1.91-3.47,4.27-.02.75-.1,1.65-.51,2.23-1.79,2.47-1.28,5.06-.67,7.69.82,3.55,1.63,7.09,2.47,10.64.38,1.59.81,3.17,1.25,4.75.93,3.38,1.63,6.83,2.36,10.23.59,2.74,1.14,5.53,1.67,8.3,2.91,15.1,10.59,35.64,16.51,48.33,1.16,2.48,2.42,4.86,3.76,7.22.6,1.06,1.39,1.78,2.6,2.32,2.99,1.32,5.32,3.57,7.6,5.93,2.31,2.38,4.89,4.49,7.62,6.48,3.11,2.27,6.52,4.06,9.57,6.39.33.25.75.48,1.15.51,2.06.16,3.5,1.36,4.83,2.76.98,1.03,2.24,1.34,3.52,1.85,2.82,1.13,6.05,1.25,8.49,3.44.84.75,2.16,1,3.3,1.39,1.87.63,3.78,1.7,5.64,1.66,2.52-.06,4.52,2.03,7.13,1.23.9-.27,1.47-.44,1.85-1.41.5-1.26,1.36-1.28,2.36-.25.64.65,1.15,1.57,1.92,1.91,1.02.46,1.63-.61,2.36-1.19.34-.27.99-.26,1.48-.22,1.03.08,2.16.03,3.06.43,3.75,1.69,8.15,1.99,11.15,5.38,1.04,1.18,2.5,2,3.37,3.42.93,1.53.94,3.14.43,4.73-.22.69-.75,1.51-1.36,1.8-1.59.76-3.33,1.22-4.96,1.9-1.74.73-3.44,1.55-5.13,2.38-1.2.59-2.23,1.74-3.8.92-.23-.12-.65.11-.98.18-2.09.51-4.16,1.05-6.26,1.51-1.1.25-2.58-.19-2.65,1.7,0,.15-.54.29-.84.42-.61.27-1.32.42-1.82.83-.91.74-1.76.73-2.55.01-1.1-1-1.97-1.46-3.14.02-.77.98-2.01,1.09-2.97.11-.76-.77-1.54-.59-2.38-.38-2.34.58-4.67,1.22-7.03,1.74-.71.15-1.77.26-2.19-.13-1.09-1.01-1.98-.62-2.99-.07-.3.16-.65.26-.93.45-1.63,1.05-3.22,1.14-5.11.48-2.3-.81-4.7-.79-6.98.49-.88.49-1.95.69-2.95.96-2.33.63-4.74,1.03-6.45,3.02-.27.31-.94.41-1.42.4-2.61-.07-4.92.8-7.03,2.25-.83.57-1.57.81-2.63.51-.86-.25-1.88-.12-2.78.05-.9.17-1.52.77-1.51,1.82,0,3.18-1.15,6.08-2.13,9.02-.38,1.15-.67,2.32-1.07,3.46-.25.71-.63,1.37-.98,2.05-.15.3-.58.64-.52.84,1.08,3.23-2.28,4.87-2.67,7.56-.11.74-.31,1.47-.47,2.2-.37,1.65-.47,3.44-1.2,4.92-.92,1.86-1.62,3.71-2.21,5.69-.4,1.36-1.18,2.62-1.35,4.11-.06.52-.6.98-.9,1.49-.24.43-.62.88-.63,1.32-.02,1.2-.61,1.9-1.37,2.81-.95,1.14-1.25,2.91-1.56,4.46-.28,1.43-.9,2.56-1.86,3.6-1.35,1.47-2.42,3.1-2.69,5.17-.07.54-.44,1.09-.79,1.54-2.09,2.68-4.27,5.29-6.3,8.01-.4.53-.54,1.49-.39,2.16.95,3.99,2.28,7.76,5.72,10.45,1.05.82,1.72,2.12,2.6,3.16,1.22,1.44,2.41,2.92,3.73,4.26,1.9,1.93,3.61,3.93,4.5,6.56.16.48.64,1.02,1.11,1.22,2.47,1.03,3.39,3.05,3.71,5.48.07.56-.19,1.28.88.91.21-.07.65.23.84.47.77.99,1.14,2.16,2.29,3.02,1,.75,1.43,2.31,2.02,3.55.36.77.62,1.48,1.42,2.03.73.51,1.18,1.46,1.69,2.26,6.3,9.73,11.58,20.02,16.54,30.47.62,1.32.49,2.35-.5,3.25-.95.86-1.97,1.66-3.05,2.35-1.16.73-2.56,1.14-3.63,1.98-1.57,1.23-3.04.97-4.56.15-.83-.45-1.57-1.05-2.37-1.57-.57-.37-1.13-.9-1.77-1.02-2.29-.44-4.12-1.71-5.94-3.04-.56-.41-1.09-.93-1.73-1.13-2.1-.68-3.45-2.19-4.67-3.88-.79-1.09-1.66-1.88-3.08-2.26-1.27-.34-2.27-1.74-3.87-.75-.19.11-1.09-.52-1.32-.98-.62-1.21-1.6-1.66-2.83-1.96-.9-.22-1.75-.72-2.56-1.2-1.15-.69-2.04-1.93-3.64-1.54-1.71-1.29-3.5-2.31-5.77-2.28-.44,0-.9-.74-1.32-1.17-.84-.88-1.65-1.69-3.04-1.73-.56-.02-1.12-.65-1.63-1.07-.93-.77-1.75-1.68-2.75-2.34-.67-.44-1.59-.77-2.37-.73-2.07.1-3.66-.77-5.16-2.02-.49-.41-1.33-1.05-1.66-.89-1.62.8-2.29-.43-2.96-1.3-.81-1.04-1.76-1.45-3-1.74-3.42-.79-6.73-1.2-10.16.17-1.63.65-3.52.66-5.29.92-1.42.21-2.73.37-3.78,1.69-.73.91-2.07.73-3.12.09-.43-.27-.75-.72-1.19-.99-1.62-1-2.5-.55-2.64,1.32-.01.17,0,.35-.01.52-.22,2.4-1.39,2.96-3.46,1.63-.58-.37-1.1-.85-1.7-1.17-.58-.31-1.22-.53-.98.62.06.3.06.81-.12.93-1.54,1.01-1.85,2.99-3.01,4.07-1.41,1.32-1.97,3.03-3.1,4.43-.63.78-1.18,1.64-1.85,2.58-1.35-1.14-1.06-3.2-3.11-3.86.08,1.09.03,2.01.25,2.87.25.99.16,1.59-.88,2.02-.78.32-1.46.89-2.14,1.41-.95.72-1.89,1.25-3.1,1.63-1.5.46-3,1.33-3.63,3.29-.7,2.18-1.99,4.18-3.12,6.22-.42.77-.85,1.85-2.16,1.11-.1-.05-.65.34-.65.53,0,2.66-2.32,3.69-3.97,4.65-1.88,1.09-2.93,2.53-3.87,4.26-.89,1.63-1.47,2.13-3.3,1.62-2.18-.61-3.47.12-4.94,1.69-1.86,1.99-4.5,2.32-7.17,2.12-.73-.05-1.53-.06-2.2.18-4.11,1.47-8.19,1.36-12.08-.54-1.62-.79-2.74-.49-3.99.49-2.27,1.79-3.08,4.32-3.54,6.99-.26,1.48-.25,2.93-2.22,3.27-.37.07-.79.89-.86,1.41-.4,2.82-.86,5.64-.99,8.48-.08,1.95.34,3.92.56,5.88.09.8.24,1.6.45,2.93-1.27-.87-2.03-1.39-2.96-2.03-.34.3-.79.65-1.2,1.05-.78.75-.31,1.43.22,2.01.13.13.81.02.94-.18.24-.37.27-.88.42-1.47,1.03.53.67,2.17,2.06,2.05.06,0,.3.54.21.65-1,1.35-.03,2.82-.3,4.2-.19.98-.44,1.96-.69,2.93-.1.41-.33.8-.4,1.21-.73,4.15-1.47,8.31-2.14,12.47-.39,2.47-.82,4.95-.89,7.44-.03,1.16-1.24,1.84-.73,3.29.37,1.04-.43,2.48-.65,3.75-.21,1.19-.33,2.39-.53,3.58-.21,1.27-.42,2.55-.73,3.81-.29,1.17-.76,2.29-1.04,3.46-.15.64-.13,1.34-.1,2,.14,2.5-.81,3.17-3.12,2.09-.94-.44-1.81-1-2.7-1.54-1.26-.77-2.52-1.17-3.82-.13-.9.71-1.45.21-1.82-.57-.37-.77-.64-1.6-.89-2.42-.68-2.22-1.28-4.47-1.98-6.68-.6-1.89-1.27-3.76-1.92-5.63-1.07-3.05-1.65-6.16-1.39-9.41.22-2.73-.25-5.27-1.78-7.67-.65-1.01-.78-2.43-.89-3.69-.25-2.82.02-5.72-1.47-8.32-.16-.28-.23-.68-.17-.99.38-2.09-.64-3.83-1.22-5.72-.46-1.49-.38-3.2-.81-4.75-.29-1.05-.76-2.06-1.22-3.05-1.23-2.65-2.56-5.26-3.7-7.94-.24-.56.27-1.4.27-2.11,0-.56.3-1.44-1.04-1.08-.6.16-1.55-.56-2.16-1.09-.57-.49-.97-1.21-1.33-1.9-2.5-4.78-6.85-6.89-11.79-8.02-1.95-.44-3.83.23-5.78.82-3.09.92-5.65,2.35-7.72,4.78-.7.82-1.5.68-2.15-.22-.41-.56-.87-1.08-1.33-1.59-.84-.94-1.62-1.71-3.07-.77-1.27.83-2.27-.35-3.2-1.01-.67-.47-1.12-1.25-1.5-1.69-.65.35-1.28.95-1.95.99-1.93.13-3.54.75-4.72,2.3-.72.93-1.22.58-1.81-.16-1.22-1.55-1.32-1.66-3.07-.61-1.39.83-2.67.97-4.16.5-.64-.21-1.38-.39-2.02-.27-.96.18-1.5.11-2.07-.86-.63-1.06-1.74-1.64-3.09-.98-.3.15-.84.4-.92.3-1.01-1.17-2.24-.48-3.4-.54-1.18-.07-2.32-.62-3.5-.9-1.66-.39-3.29-.97-5.08-.45-.51.15-1.37-.23-1.8-.65-1.12-1.11-2.5-1.28-3.91-1.63-1.57-.38-3.1-1.04-4.53-1.8-1.35-.72-2.19-1.97-2.09-3.61.04-.7-.09-1.33-.85-1.3-1.75.07-1.95-1.04-2.02-2.34-.02-.42-.06-.84-.14-1.9ZM227.92,193.39l.06.04c-.39-.48-.79-.97-1.17-1.44-.57,1.37-1.01,2.55-1.55,3.68-.09.2-.55.32-.84.31-.16,0-.43-.34-.44-.54-.01-.32.3-.7.21-.96-.13-.34-.48-.63-.81-.83-.07-.04-.51.33-.64.58-.39.73-.7,1.49-1.05,2.24.62.52,1.25.99,1.79,1.54.19.19.32.74.2.89-.94,1.1-1.79,2.41-2.98,3.13-2.32,1.4-4.22,3.23-5.94,5.21-1.04,1.19-2.04,2.3-3.47,3-2.09,1.02-3.59,2.64-4.67,4.68-.61,1.14-1.29,2.25-1.97,3.35-.32.51-.65,1.07-1.12,1.41-.76.54-2.38.24-1.82,2.03.02.06-.89.36-1.32.62-1.39.83-2.93,1.52-4.09,2.6-1.63,1.52-3.07,3.28-4.42,5.07-1.19,1.58-2.16,3.31-2.27,5.4-.04.75-.19,1.85-.68,2.15-1.33.82-1.19,2.18-1.68,3.31-.44,1.02-.95,2.02-1.46,3.01-.35.68-.76,1.33-1.16,1.99-.34.57-.57,1.36-1.08,1.62-.54.28-1.34.06-2.19.06,1.19,1.45,1.02,3.05.54,4.67-.37,1.24-.8,2.46-1.11,3.72-.39,1.58-.98,3.2-.94,4.79.06,2.2-.78,3.77-2.2,5.29-2.47,2.65-4.96,5.29-7.24,8.1-.76.94-1.35-.07-1.95.27.09.2.11.41.23.48.29.18.6.32.92.42,2.23.69,2.67,1.31,2.17,3.5-.21.93-.2,1.7.04,2.66.19.75-.56,1.73-.82,2.62-.11.4-.04.86-.02,1.29.07,1.55.22,3.1.2,4.66-.01.84-.18,1.72-.5,2.49-.3.74-.83,1.39-1.72.4-.17-.18-.8-.13-1.11.03-1.43.75-2.86,1.54-2.64,3.54,2.79.44,3.17.88,3.24,3.63.07,2.81-.92,5.6-.18,8.44.08.3-.09.68-.15,1.01-.53,2.97-1.22,5.92-1.55,8.91-.25,2.28-.48,4.74.11,6.89.57,2.07.75,3.99.53,6.07-.38,3.65-.7,7.29,0,10.97.6,3.14.82,6.32-.33,9.44-.61,1.64-.52,1.63,1.11,2.47.9.47,1.9.95,2.53,1.7.47.56.42,1.56.6,2.37-.63.13-1.26.25-1.89.4-.13.03-.24.16-.41.27,1.08.49,2.87.57,2.59,2.05-.3,1.64.43,2.91.64,4.35.3,2.05.64,4.1,1.13,6.1,1.85,7.52,5.11,14.11,12.22,18.1.22.12.42.3.75.54-2.5,2.52-1.91,5.26-.95,8.05.28.82.58,1.63.79,2.46.19.77.47,1.26,1.4,1.1.29-.05.72.08.93.29,2.66,2.67,6.91,3.62,8.31,7.66.08.22.37.36.53.56.97,1.2,1.98,2.38,2.89,3.63,1.73,2.37,3.34,4.83,5.12,7.16,1.73,2.26,3.54,4.47,5.45,6.58,1.97,2.17,4.41,3.97,6.08,6.33,1.81,2.56,4.9,3.07,6.91,5.17.83.87,1.82,1.58,2.78,2.32,2.82,2.15,4.75,5.29,8.46,6.54,2,.67,3.56,2.61,5.84,3.28,2.03.6,3.94,1.76,5.77,2.88,1.67,1.03,3.21,2.29,4.72,3.55.55.45.89.97,1.74.68,1.38-.47,2.28.22,2.99,1.39.24.39.69.8,1.13.91,3.24.89,6.47,1.9,9.77,2.48,2.33.41,4.47,1.19,6.65,2.01,6.02,2.27,12.2,3.76,18.69,3.56,1.7-.05,3.3,0,4.07,1.42,1.42-.44,2.61-.87,3.82-1.15,1.09-.26,1.68-.77,1.56-1.96-.07-.69,0-1.39-.12-2.07-.24-1.33-.16-2.55,1.33-3.58-2.34-.77-2.28-2.37-1.98-4.1.19-1.11-.19-2.15-.37-3.23-.44-2.74-.34-5.56-.46-8.35,1.1-1.16.53-2.33.11-3.56-.21-.62-.34-1.47-.09-2.03.85-1.88.45-3.89.83-5.81.15-.75.34-1.74-.02-2.28-.85-1.29-.43-2.67-.57-3.97-.1-.96.21-2.15.76-2.93.27-.38,1.52-.07,2.48-.07-.68-.86-1.15-1.93-1.96-2.36-1.43-.76-1.9-2.01-1.61-3.22.84-3.46-.03-6.72-.49-10.09-.36-2.65.5-5.4-.1-8.12-.15-.7.19-1.52.37-2.27.31-1.34.77-2.66.96-4.02.14-.99.15-2.08-.11-3.04-1.09-4.03-.92-8.15-1.14-12.25-.01-.25.13-.51.13-.76,0-1.88.02-3.76-.02-5.64-.02-1.29-.44-2.68-.09-3.84.76-2.49.52-4.95.38-7.44-.3-5.08-.56-10.16-.91-15.23-.19-2.83-.58-5.65-.79-8.48-.12-1.54-.33-3.13-.03-4.61.32-1.59.95-3.11.81-4.79-.05-.66.21-1.17,1.01-1.22.44-.03.88-.14,1.42-.24-.23-.45-.3-.72-.47-.9-1.5-1.59-2.28-3.37-1.98-5.64.12-.9-.17-1.9-.5-2.77-.14-.36-.85-.59-1.34-.67-.17-.03-.62.53-.64.85-.1,1.29-.05,2.59-.12,3.88-.03.62-.37,1.25-.29,1.83.19,1.36.55,2.69.83,4.04.47,2.28-.29,4.13-1.97,5.68-.36.33-.85.85-.82,1.24.16,2.01-1.32,2.92-2.58,3.86-1.12.83-1.37,1.67-.81,2.86l.04-.06c-.41.24-.87.73-1.23.67-1.41-.22-2.08.54-2.62,1.62-.19.39-.34.79-.54,1.17-.4.76-.93.97-1.67.4-.29-.22-.61-.41-1.52-1.02.82,1.69.33,2.45-.7,2.39-1.78-.11-2.57.81-3.4,2.19-.48.8-1.56,1.3-2.47,1.74-.46.22-1.38.23-1.65-.06-.86-.94-1.14-.53-1.65.31-.98,1.63-2.14,2.76-4.42,2.82-2.16.06-4.03,1.41-5,3.56-.56,1.24-.32,2.96-2.11,3.45.1,1.67-1.44,1.92-2.39,2.6.84,2.36.87,2.4-1.14,3.79-.77.53-.98,1.3-1.41,2.01-1.09,1.8-1.39,3.86-2.25,5.71-.83,1.8-1.9,3.5-1.65,5.62.04.37-.23.82-.46,1.17-.84,1.27-1.2,2.64-1.2,4.16,0,.53-.27,1.19-.65,1.58-1.42,1.49-1.77,3.3-1.8,5.25-.02,1.55.08,3.12-.12,4.66-.13,1.06-.37,2.47-1.09,3.03-1.58,1.22-2.24,2.63-2.5,4.54-.26,1.82-.78,2.08-2.65,2.13-1.29.03-2.59-.01-3.88-.07-4.65-.21-9.31-.45-13.96-.63-.85-.03-1.9-.11-2.52.32-1.65,1.17-3.24.69-4.94.37-1.98-.38-3.82-1.44-6.01-.91-1.07.26-2.16-.45-2.9-1.41-.64-.84-.64-1.68-.2-2.66.21-.46-.1-1.13-.11-1.7-.02-.84.01-1.69.05-2.53.01-.27.26-.69.15-.79-1.11-1.1-.63-2.4-.57-3.67.07-1.63.16-3.29,0-4.91-.1-1.05-.31-1.85,1.1-2.03.23-.03.51-.61.57-.96.13-.81.58-1.02,1.27-.8.51.16.91.15.73-.47-.07-.25-.66-.57-.94-.51-.9.19-1.77.53-2.8.86-.1-.7-.23-1.2-.24-1.69-.21-8.89-.39-17.77-.6-26.66-.03-1.39-.17-2.72.85-3.92.38-.45.34-1.28.46-1.94.08-.47.1-.95.15-1.42.57.1,1.27.04,1.68.35.66.5,1.18,1.21,1.69,1.89.47.61.79,1.34,1.3,1.91.22.24.86.41,1.12.27,1.07-.6,2.06-1.32,3.08-2-1.31-.13-2.04-2.02-3.53-1-.13.09-.58-.23-.83-.42-1.45-1.08-2.86-2.2-4.32-3.26-.59-.43-.89-.75-.83-1.63.33-4.81.64-9.64.64-14.46,0-1.96-.01-3.69,1.37-4.77-.69-.99-1.33-1.74-1.76-2.59-.74-1.46-1.22-3.06-2.03-4.47-.73-1.27-.91-2.48-.77-3.94.33-3.32,1.17-6.57.9-9.97-.13-1.67.41-3.39.59-5.1.1-.92.24-1.88.1-2.78-.88-5.76-2.43-11.46-1.18-17.36.05-.22-.16-.48-.21-.73-.28-1.4,0-2.01,1.06-2.43,1.35-.53.15,1.55,1.18,1.25,1.51-1.22,1.2-3.44,2.79-4.55.1-.07,0-.72-.19-.89-.57-.51-1.44-.11-1.8.73-.13.31-.29.71-.55.84-.38.19-.88.24-1.31.19-.09,0-.2-.67-.16-1.02.05-.39.43-.79.36-1.12-.35-1.66-.85-3.29-1.2-4.95-.15-.72-.25-1.55-.05-2.23.72-2.37.88-4.72.39-7.15-.13-.65-.12-1.34-.07-2,.13-1.62.33-3.24.5-4.86.04-.41,0-1.16.13-1.19,1.92-.49,1.26-2.47,2.13-3.55.76-.95.53-1.9-.08-2.83l.04.05c-.16-.93-.32-1.86-.47-2.79-.22-1.36-.56-2.71-.61-4.07-.03-.79.42-1.6.66-2.4.62.34,1.21.75,1.87,1.01.42.16.92.09,1.39.13-.21-.48-.39-.98-.63-1.45-.07-.13-.28-.21-.44-.26-1.51-.45-2.12-1.33-1.53-2.91.14-.38,0-.85,0-1.28.05-2.3.41-2.49,2.66-2.87,1.76-.3,3.75-.5,4.94-2.08,1.13-1.51,2.33-1.78,4.03-1.13.74.29,1.87.48,2.45.11,1.27-.81,2.5-.46,3.75-.39,1.41.08,1.4.12,1.52,1.71,1.05-2.02,1.21-2.18,3.5-2.19,1.63,0,3.26.15,4.89.33.88.1,1.64.11,2.44-.44,1.54-1.07,3.16-1.86,4.93-.31.24.21.81-.03,1.22.04,1.74.31,3.78,2.08,3.62,3.53-.12,1.1.39,1.77.75,2.61.31.71.62,1.43.81,2.18.11.44.17,1.2-.05,1.34-.35.22-.98.14-1.44,0-.73-.2-1.4-.68-2.13-.81-1.06-.19-1.45.33-1.15,1.32.15.49.4.95.58,1.44,1.44,3.88,2.87,7.76,4.29,11.64.2.56.58,1.37.36,1.71-1.13,1.69.09,2.63,1.11,3.41.9.69,1.25,1.56,1.71,2.48.88,1.77,1.83,3.51,2.85,5.2.4.65.66.11.81-.32l.04-.04c1.47.44,1.95,1.66,2.65,3.12-.69-.3-1.05-.45-1.4-.61,1.02,1.79,2.23,3.42,3.67,4.81,3.67,3.53,7.43,6.95,11.17,10.41,1.07.99,1.71,2.73,3.71,2.13.12-.04.39.1.44.22,1.02,2.12,3.04,2.74,5.04,3.39.08.03.14.1.2.16.83.84,1.85,1.1,3,1.3,1.25.22,2.45.8,3.63,1.31,1.27.55,2.46,1.25,3.73,1.79,1.32.57,3.15.66,3.89,1.63.77,1,.5,2.8.67,4.25.12,1.03.26,2.06.3,3.09.03.68-.04,1.37-.17,2.04-.41,2.01-.87,4.01-1.33,6.01-.75,3.28.24,9.4,2,12.4.07-.88-.19-2.05.28-2.7.9-1.26.5-2.41.29-3.63-.23-1.36-.66-2.71-.7-4.07-.05-2.05-.2-4.2.35-6.13,1.27-4.46,1.47-6.37.18-11.22-.08-.29.05-.65.12-.98.17-.8.5-1.6.51-2.4.02-1.8-.16-3.61-.18-5.41-.08-6.22-.52-12.41-1.5-18.55-.09-.57-.19-1.32.08-1.74.78-1.18.34-2.3.16-3.48-.22-1.44-.31-2.9-.4-4.36-.05-.85.58-.63,1.07-.57.01.06.01.13.04.18.02.03.09.03.13.04l-.21-.18c.51-1.78,1.84-3.47.52-5.46-.2-.29-.08-.86.02-1.27.06-.25.41-.64.56-.61.51.09,1.05.46.85-.54-.36-1.79,1.06-3.76-.72-5.48-.37-.36.08-1.6.18-2.43.17-1.37.47-2.73.54-4.1.09-1.53.94-2.44,2.25-2.83,1.05-.31,2.2-.34,3.31-.4.86-.05,1.74.16,2.58.03,1.06-.16,1.99-.22,2.96.41.89.57,1.68.31,2.49-.53.8-.83,1.86-1.55,2.94-1.96,2.51-.93,3.27-.44,3.83,2.18,3.85-3.16,8.4-3.04,12.97-2.94.63.01,1.27-.14,1.89-.27,1.17-.26,2.37-.92,3.47-.78,2.01.27,4.05.81,5.92,1.59,1.79.75,3.31.64,4.9-.32.77-.46,1.56-1.28,2.49-.18.08.09.43,0,.63-.08,2.34-.92,4.72-.61,7.08-.13.73.15,1.37.71,2.37,1.26-2.11,0-3.72-.04-5.32.01-1.63.05-1.72.19-1.94,2.15,3.08-.26,6.31-1.35,8.82,1.61.14.17.78.09,1.08-.07,1.84-.97,2.83-.94,3.84.74.68,1.12,1,2.55,1.17,3.87.26,2.13.16,4.3.42,6.43.11.93.36,1.64-.69,2.15-.23.11-.46.75-.35.97.5.94.54,1.58-.63,2.01-.21.08-.28.71-.29,1.09-.03,1.1-.06,2.21.03,3.3.05.55.36,1.08.55,1.63,1.82-.94,1.59.9,1.99,1.62.44.79.48,1.8.72,2.71.23.89.19,1.53-.99,1.57-.28.01-.73.46-.77.76-.26,1.78-.41,3.58-.63,5.36-.07.58-.1,1.21-.35,1.72-.45.93-.65,1.69.15,2.58.76.84.8,1.66-.05,2.72-.6.76-.72,2.07-.7,3.13.03,1.36.46,2.72.66,4.08.07.48.12,1.33-.1,1.43-1.36.63-.53,1.28-.2,2.04.24.57.5,1.53.22,1.85-1.1,1.23-.77,2.57-.65,3.93.05.6.22,1.29,0,1.79-.65,1.44-.31,2.88-.22,4.33.19,3.01.57,6.01-.25,9.01-.21.78.05,1.69.16,2.54.3,2.39.81,4.76.92,7.15.15,3.44.06,6.89-.04,10.33-.02.54-.53,1.22-1.01,1.55-.89.62-1.25,1.25-.85,2.43.45-.62.76-1.05,1.08-1.48.28.49.66.94.81,1.47.14.48.09,1.03.03,1.54-.3,2.83-.06,5.63.27,8.44.21,1.79.68,3.73.24,5.39-.67,2.55-.45,4.84.37,7.23.15.42.13,1.23-.12,1.4-1.01.68-.8,1.65-.83,2.56-.14,3.97-.22,7.93-.39,11.9-.03.66-.31,1.31-.51,1.95-.18.57-.48,1.12-.59,1.7-.09.5-.09,1.05.03,1.54.21.86-.47.98-.93,1.29.39.4.82.77,1.16,1.21.12.15-.02.49-.01.74.04,1-.07,2.05.17,3,.3,1.18-.19,2.18-.27,3.25-.07.98.81,2,1.19,3.03.1.28-.22.68-.16,1,.38,2.31-.43,4.44-.96,6.6-.65,2.62-1.2,5.22-.28,7.89.13.37.11.89-.05,1.24-1.22,2.74-.59,5.39.25,8.07.24.76.15,1.63.24,2.44.21,1.89-.73,3.88.79,5.67.69.81-.2,1.64-.86,2.16-.78.61-.96,1.31-.87,2.25.16,1.72.23,3.44.29,5.16.05,1.66-.77,3.3-.03,4.98.12.26-.11.67-.14,1.01-.09.82-.24,1.65-.24,2.47.02,2.33.13,4.66.14,6.99.01,2.25-1.13,4.51.14,6.75.14.25-.06.68-.06,1.02,0,1.11-.79,2.11.08,3.39.59.86.39,2.28.49,3.45.11,1.28.19,2.56.21,3.84.01.65-.14,1.3-.22,2,1.04-.13,2.03-.58,2.69-.28,2.07.93,3.01-.2,4.34-1.5.9-.88,2.04-2.79,4.02-1.32.21.16.95-.19,1.32-.47,1.36-1.04,2.57-2.31,4.02-3.2,1.88-1.16,4.09-1.83,5.87-3.1,2.81-2.01,6.71-2.33,8.66-5.63.08-.14.26-.26.42-.29,2.69-.66,4.15-2.57,5.1-5.01.09-.23.28-.43.44-.64,1.21-1.56,1.47-1.54,2.7.16.06.09.25.09.38.14q-.22-3.83,3.09-6.52c.27-.22.62-.39.78-.67.4-.72.9-1.46,1.01-2.24.41-2.77,3.39-4.54,6.07-3.44.69.28,1.19.37,1.91,0,.72-.38,1.62-.41,2.45-.6.41-.09,1.04-.06,1.18-.31.96-1.62,3.69-1.27,3.98-3.61.01-.12.26-.31.39-.29,1.61.16,1.91-1.24,2.55-2.17,1.27-1.84,2.55-3.68,3.65-5.62.41-.72.73-1.06,1.53-.97,2.05.22,2.05-.26,2.57-2.09.41-1.43.8-2.86,2.07-3.78.72-.52.59-1.21.82-1.88.77-2.24,1.5-4.86,3.14-6.35,2.06-1.87,3.83-3.94,5.56-6.04,1.18-1.42,1.99-3.22,2.64-4.97.53-1.43.79-2.88,1.81-4.17.84-1.06,1.89-2.27,1.43-3.94-.09-.32.22-.85.49-1.16,1.1-1.23,1.39-2.64,1.42-4.28.02-1.24.62-2.49,1.01-3.71.15-.48.58-.9.66-1.39.42-2.66.75-5.33,1.16-7.99.09-.58.41-1.12.59-1.68.59-1.79,1.34-3.56,1.71-5.4.78-3.97,1.41-7.98,1.99-11.99.14-.99.04-2.07-.2-3.05-1.06-4.46-1.89-8.94-1.33-13.56.05-.42.02-.87-.1-1.27-.42-1.4-.48-2.75-.3-4.25.16-1.32-.67-2.76-1.04-4.15-.07-.24-.06-.52-.03-.77.24-2.56-.51-4.94-1.26-7.34-.64-2.06-1.04-4.19-1.66-6.25-1.2-4.02-2.33-8.08-3.78-12.02-1.03-2.79-2.14-5.5-2.07-8.54.01-.57-.3-1.16-.51-1.72-.38-1.06-.84-2.09-1.17-3.15-2.13-6.75-4.16-13.53-6.36-20.25-1.56-4.76-3.43-9.41-6.27-13.59-1.01-1.48-2.28-2.84-2.06-4.87-.33.59-.47,1.4-1.21.52-2.06-2.44-4.08-4.91-6.1-7.37-.54-.66-1-1.41-1.61-1.99-2.24-2.15-4.52-4.25-6.8-6.37-.95-.88-1.82-1.89-2.9-2.58-2.68-1.7-4.7-4.02-6.67-6.42-.36-.43-.85-.88-1.36-1.04-1.73-.55-2.92-1.72-4.07-3.05-1.23-1.43-2.41-3.14-4.01-3.96-1.92-.99-3.45-2.38-4.62-3.94-1.2-1.61-3.44-2.45-3.7-4.77-1.66-1.13-3.32-2.25-4.99-3.38-1.09.53-1.49-.3-2.09-.94-.88-.94-1.8-1.88-2.86-2.6-2-1.35-4.14-2.49-6.17-3.8-2.66-1.71-5.39-3.29-7.33-5.95-1.05-1.44-2.53-2.6-3.95-3.71-2.05-1.58-3.16-1.12-3.69,1.34-.59,2.74-1.7,3.15-4.19,1.72-1.18-.68-2.44-1.34-3.75-1.63-1.01-.23-1.72-.47-2.22-1.43-.48-.93-1.33-1.21-2.1-.37-1.37,1.51-2.88.83-4.11.12-.89-.52-1.45-.66-2.29-.13-.87.55-1.62.38-2.16-.58-.24-.43-.6-.8-.9-1.21-1.7,1.57-2.18,1.78-3.3.63-1.38-1.42-2.97-1.83-4.82-1.95-1.19-.08-2.36-.49-3.55-.7-2.14-.38-4.23-.55-6.37.28-.97.37-2.18.27-3.26.15-1.58-.17-3.09-.24-4.54.54-1.31.71-2.66,1.21-4.21.94-.37-.06-.98.07-1.17.34-.98,1.41-2.35,1.09-3.73,1.08-1.63-.01-3.26.25-4.9.35-1.8.11-3.63.35-5.41.22-1.41-.11-2.67.19-4.01.43-2.77.49-5.06,1.37-6.26,4.17-.33.78-1.07,1.35-2.12,1.04-1.68-.51-3.18-.11-4.63.85-.62.41-1.44.55-2.19.75-1.75.47-3.5.92-5.26,1.33-.47.11-1.15.23-1.44-.02-1.06-.9-1.38-.17-1.94.59-1.23,1.66-2.62,2.2-3.94,1.31-1.18-.8-1.63-.47-2.49.46-2.09,2.26-5.09,2.1-7.16-.18-.74-.81-1.48-1.61-2.2-2.4-1.94,1.92,1.27,2.26.85,3.93-2.29-1.02-4.11.23-6.05,1.08-1.1.48-2.31.72-3.44,1.13-.72.26-1.39.68-2.11.96-1.1.42-2.21.83-3.34,1.17-1.23.36-2.6.42-3.7,1.01-1.27.67-2.45.85-3.7.35-1.05-.42-2-.45-2.96.14Z"/>
  <path class="cls-1" d="M119.16,249.9c.27-.29.49-.69.82-.86.9-.47,1.4-.21,1.25.88-.03.05-.07.09-.1.14.02-.06.04-.12.06-.18,1.2.24.95.93.5,1.66-.4.65-.83.45-1.16-.06-.38-.59-.66-.71-.94.05-.17-.18-.45-.34-.5-.55-.08-.32,0-.67.02-1.01,0,0,.04-.07.04-.07Z"/>
  <path class="cls-1" d="M123.7,241.59c.34.89.73,1.7.94,2.55.06.27-.37.66-.58,1-.28-.22-.75-.39-.79-.65-.18-.96-1.09-2.09.44-2.9Z"/>
  <path class="cls-1" d="M119.11,249.97c-.32.37-.61.77-.97,1.08-.2.18-.72.35-.78.27-.29-.36-.47-.8-.69-1.22.26-.13.52-.35.78-.36.57,0,1.14.1,1.71.16l-.04.07Z"/>
  <path class="cls-1" d="M119.73,247.3c-.37.16-.57.31-.77.32-.13,0-.35-.14-.41-.27-.27-.6-.5-1.21-.75-1.82.22-.07.58-.24.63-.18.44.6.83,1.23,1.3,1.96Z"/>
  <path class="cls-1" d="M110.78,279.47c-.45-.38-.77-.52-.79-.7-.05-.55,0-1.12.05-1.68,0-.05.42-.12.42-.1.16.46.32.93.42,1.41.05.23-.04.48-.1,1.07Z"/>
  <path class="cls-1" d="M318.7,551.54c-.53.35-.9.59-1.26.84-.09-.21-.31-.54-.24-.62.25-.29.59-.51.92-.71.05-.03.27.23.58.49Z"/>
  <path class="cls-1" d="M122.02,246.47c-.26.16-.47.39-.61.35-.2-.06-.34-.31-.5-.47.16-.14.34-.41.46-.39.2.04.37.27.65.51Z"/>
  <path class="cls-1" d="M110.13,377.69c-.41.3-.62.52-.88.61-.08.03-.42-.33-.39-.46.04-.2.27-.43.47-.49.15-.05.38.15.81.35Z"/>
  <path class="cls-1" d="M312.65,550.71c-.1.08-.2.21-.31.23-.06.01-.16-.16-.22-.26,0-.01.11-.15.14-.14.14.04.26.11.39.17Z"/>
  <path class="cls-1" d="M421.89,313.96c.37-.21.69-.28.76-.45.53-1.27,1.27-.96,1.96-.23,1.53,1.62,3,3.3,4.5,4.95.51.57.97,1.21,1.58,1.66,1.12.83,2.19,1.3,2.12,3.25-.06,1.52,1.32,3.1,2.09,4.64.09.19.4.35.62.37,1.29.13,1.26.76.53,1.51-.69.71-.25,1,.18,1.64,2.04,3.02,3.92,6.1,4.35,9.91.26,2.29,1.4,4.49,1.61,6.78.24,2.58.85,5.21.12,7.84-.25.91-.33,1.87-.46,2.81-.05.33-.14.88.01.97,1.72,1.05.71,2.59.79,3.94.11,1.72.32,3.43.41,5.16.04.82-.15,1.65-.13,2.47.01.46.19.95.39,1.37.39.84,1.36,1.79,1.18,2.45-.4,1.53-.06,3.31-1.37,4.6-.6.6-1.07,1.36-1.52,2.09-.4.65-.7,1.37-1.13,2.24-.37-.21-.76-.34-1.04-.61-.6-.58-1.05-.42-1.48.17-1.03,1.45-2.18,2.83-3.03,4.38-.43.78-.86.86-1.37.51-.77-.52-1.49-1.16-2.08-1.86-.91-1.08-1.94-1.73-3.31-2.27-2-.79-4.55-.5-5.96-2.68-.1-.16-.59-.15-.89-.11-1.04.14-1.28-.63-1.09-1.26.97-3.11-.97-5.47-1.95-8.07-.14-.38-.46-.77-.8-.97-1.6-.93-2.43-2.42-3-4.08-.3-.86-.74-1.42-1.62-1.84-.71-.34-1.28-1.12-1.72-1.82-1.17-1.86-2.51-3.41-4.6-4.38-1.26-.58-2.31-1.74-3.28-2.8-.96-1.04-1.7-1.13-2.85-.24-1.36,1.05-2.36.98-3.5.05-.23-.19-.48-.56-.46-.82.03-.44.28-.86.44-1.29-1.57-.26-1.84-1.91-2.89-2.71-.06-.05-.19-.07-.25-.03-1.92,1.3-1.95-.64-2.6-1.51-.71-.95-1.26-2.1-2.81-1.84-.26.04-.6-.48-.92-.71-1.15-.82-2.29-1.72-3.77-.59-.15.11-.53.15-.65.04-2.16-1.83-4.51-1.26-6.88-.59-.06.02-.14-.08-.38-.22.25-.56.51-1.15.81-1.83h-1.75c-.04-.24-.13-.48-.1-.71.11-.83.35-1.64.39-2.47.12-2.41.18-4.81.25-7.22.04-1.46.13-2.92.1-4.38-.04-2.29-.22-4.57-.24-6.86-.01-1.22-.44-2.64,1.13-3.4.15-.07.09-.59.11-.9.12-1.81.18-3.63.38-5.43.09-.8.51-1.33,1.37-.53.14.13.69.09.71.02.13-.37.27-.81.16-1.16-.08-.25-.53-.56-.81-.55-2.22.06-2.31-1.62-2.63-3.12-.07-.33-.12-.7-.07-1.03.35-2.5.26-4.98-.42-7.42-.11-.41-.15-.88-.06-1.29.7-3.18-.15-6.33-.18-9.49-.02-2.06.11-4.14.33-6.19.17-1.6.94-2.09,2.53-1.66,1.23.33,2.38.98,3.63,0,.17-.13.73.23,1.11.37-.17.23-.41.43-.5.68-.08.22-.1.58.02.74,1.27,1.51,2.55,3.01,3.91,4.44.34.36,1.08.76,1.43.62,1.53-.64,2.22.1,2.84,1.34.25.5.77.93,1.26,1.21.27.15,1.07-.02,1.1-.16.3-1.45.84-.98,1.42-.23.75.97,1.5,1.34,2.56.36.76-.7,1.51-.13,2.07.37,1.09.98,2.11,2.02,3.67,2.19.15.02.38.14.42.27.54,1.69,2.43,1.68,3.44,2.79,1.1,1.21,2.26,2.38,3.49,3.46.81.72,1.81,1.22,2.69,1.86.82.6,1.61,1.24,2.37,1.9.12.11.12.53,0,.68-.11.15-.45.23-.67.21-.76-.08-1.52-.28-2.29-.32-.25-.01-.69.34-.72.56-.03.23.32.72.53.74,1.01.06,2.07.19,3.02-.06.96-.25,1.64-.18,2.32.52,1.2,1.23,3.1,2.03,2.5,4.34-.05.21.56.86.81.83,1.86-.24,1.63,1.05,1.66,2.15.02.6,0,1.19,0,1.95Z"/>
  <path class="cls-1" d="M248.54,234.1c2.93,1.98,2.95,5.39,4.12,8.25-2.18-2.34-2.76-5.48-4.12-8.25Z"/>
  <path class="cls-1" d="M371.68,349.85c-1.26-1.67-1.75-3.6-1.7-5.69,0-.18.26-.49.41-.5.2-.01.55.18.6.35.48,1.87.92,3.76,1.37,5.64-.23.07-.45.14-.68.21Z"/>
  <path class="cls-1" d="M369.52,226.89c-1.68-.45-2.91,1.38-4.53,0,.76-.45,1.44-.85,2.12-1.26q1.33-.8,2.41,1.26Z"/>
  <path class="cls-1" d="M202.82,303.39c-1.61-.96-1.53-2.33-1.77-3.52-.03-.15.43-.56.67-.56.27,0,.74.29.77.5.16,1.07.21,2.17.33,3.57Z"/>
  <path class="cls-1" d="M227.92,193.39c.43.74,1.5,1.33.63,2.37-.22.26-.69.43-1.05.42-.19,0-.48-.44-.54-.72-.22-.93.11-1.64,1.02-2.03l-.06-.04Z"/>
  <path class="cls-1" d="M208.26,243.18c-.13.61-.26,1.21-.39,1.82-.37-.5-.85-.97-1.08-1.53-.17-.41-.03-.96-.03-1.97.73.82,1.13,1.28,1.54,1.74l-.04-.05Z"/>
  <path class="cls-1" d="M290.67,341.69c.41-.47,1.09-1.4,1.2-1.34.88.5.15,1.16-.03,1.73-.15.48-.46.9-.7,1.35-.14-.6-.29-1.2-.43-1.8l-.04.06Z"/>
  <path class="cls-1" d="M205.82,243.46c.38.93.76,1.85,1.15,2.78-1.49-.42-1.75-1.43-1.89-2.49l.74-.3Z"/>
  <path class="cls-1" d="M372.15,351.75c-.12.45-.12.74-.26.93-.22.29-.54.51-.82.75-.09-.36-.2-.72-.27-1.09-.03-.16.02-.35.09-.49.2-.39.44-.77.66-1.15.22.39.45.79.6,1.05Z"/>
  <path class="cls-1" d="M203.93,310.3c-.37.48-.64.82-.91,1.16-.23-.41-.66-.83-.65-1.23.02-.49.42-.95.66-1.43.28.46.56.93.9,1.5Z"/>
  <path class="cls-1" d="M262.45,263.76c-.49-.46-.98-.92-1.46-1.4-.02-.02.15-.24.24-.37.52.46,1.05.92,1.57,1.38-.12.13-.24.25-.35.38Z"/>
  <path class="cls-1" d="M372.82,230.19c.38.57.77,1.13,1.15,1.7-.2.13-.4.26-.59.4-.36-.58-.73-1.15-1.09-1.73.18-.12.36-.24.54-.36Z"/>
  <path class="cls-1" d="M297.79,246.04c-.16-.3-.37-.5-.35-.68.02-.18.27-.33.41-.49.15.18.42.35.42.53,0,.18-.26.36-.49.65Z"/>
  <path class="cls-1" d="M205.45,242.33c-.13-.21-.29-.38-.33-.57-.02-.1.16-.25.25-.38.13.17.31.31.38.5.03.08-.16.24-.3.45Z"/>
  <path class="cls-1" d="M256.98,257.71c-.06-.05-.13-.09-.19-.14l.23.09s-.04.04-.04.04Z"/>
</svg>