<?xml version="1.0" encoding="utf-8"?>
<!-- Generator: Adobe Illustrator 28.2.0, SVG Export Plug-In . SVG Version: 6.00 Build 0)  -->
<svg version="1.1" id="Layer_1" xmlns="http://www.w3.org/2000/svg" xmlns:xlink="http://www.w3.org/1999/xlink" x="0px" y="0px"
	 viewBox="0 0 640 640" style="enable-background:new 0 0 640 640;" xml:space="preserve">
<path d="M278.6,562.3c-14-3.1-26.9-6.2-38.4-9.4c-3.6,0-14-1.4-31.4-4.3c-17.4-2.9-36-6-55.8-9.4c-19.8-3.3-37.7-6-53.5-8
	c-15.8-2-24-2.3-24.4-1c2.2-4.9,4.9-9.4,8-13.4c3.1-4,6.5-8,10-12l4.7-4.7c0.9-0.4,2.4-2,4.7-4.7c2.2-2.7,4.6-5.5,7-8.4
	c2.4-2.9,4.8-5.6,7-8c2.2-2.4,3.6-3.9,4-4.4l18.1-18h2.7c2.2,1.3,6.7,2.6,13.4,3.7c6.7,1.1,11.4,1.7,14,1.7s7.1,0.5,13.4,1.3
	c6.2,0.9,10.2,1.3,12,1.3h23.4c4-1.8,6.7-3.2,8-4.4c1.3-1.1,4.4-5.7,9.4-13.7c3.6-5.8,6.4-13.9,8.4-24.4c2-10.5,3.6-21.4,4.7-32.8
	c1.1-11.4,1.8-22.5,2-33.4c0.2-10.9,0.3-19.7,0.3-26.4v-73.5c0-6.2-0.9-15.9-2.7-29.1c-1.8-13.1-2.7-23.7-2.7-31.8v-4.7
	c0-10.2-1.6-17.6-4.7-22.1c-3.1-4.4-7-7.7-11.7-9.7s-9.6-3.2-14.7-3.7c-5.1-0.4-9.9-1.3-14.4-2.7c-16.1-5.8-26.3-13.3-30.8-22.4
	c-4.5-9.1-6.7-18.2-6.7-27.1c8,0,12,5.4,12,16.1c0,8.9,3.7,15.5,11,19.7c7.4,4.2,13.9,6.4,19.7,6.4c11.1,0,22.1-1.9,32.8-5.7
	c10.7-3.8,20.8-8.2,30.4-13.4c9.6-5.1,18.7-10.2,27.4-15.4c8.7-5.1,16.4-9,23.1-11.7c3.6,0,7.8-1.6,12.7-4.7
	c4.9-3.1,10-6.6,15.4-10.4c5.4-3.8,10.7-7.2,16-10.4c5.4-3.1,10.2-4.7,14.7-4.7c10.7-6.7,19.4-11.7,26.1-15c6.7-3.3,12.7-5.7,18-7
	c5.4-1.3,10.5-2.1,15.4-2.3c4.9-0.2,11.1-0.5,18.7-1h2.7c0.9,0,3.5,0.3,7.7,1c4.2,0.7,6.8,1,7.7,1h2.7c0.9,0.5,3.7,1.5,8.4,3
	c4.7,1.6,9.6,3.6,14.7,6c5.1,2.5,9.7,5.2,13.7,8.4c4,3.1,6,6.7,6,10.7v30.8l-2.7,2c0-4.9-0.5-10.8-1.3-17.7c-0.9-6.9-2-11-3.3-12.4
	l-10-10c-2.2-2.2-6.3-5.4-12.4-9.4s-12.1-6-18.4-6h-30.1c-0.9,0-3.1,0.6-6.7,1.7c-3.6,1.1-7.4,2.7-11.4,4.7s-7.6,4.5-10.7,7.3
	c-3.1,2.9-4.7,5.9-4.7,9v246c0,3.6-2.9,9-8.7,16.4c-5.8,7.4-12.4,15-19.7,23.1s-14.6,15.6-21.7,22.7c-7.1,7.1-12.3,11.8-15.4,14
	l-5.4,5.4c-2.2,0-4.4,1.2-6.4,3.7c-2,2.5-4.1,3.7-6.4,3.7H321c-3.1,1.3-5.2,2.6-6.4,3.7c-1.1,1.1-3.8,3.3-8,6.7
	c-4.2,3.3-11.1,8.2-20.7,14.7c-9.6,6.5-24.2,15.9-43.8,28.4l-4.7,4.7v2.7c0,0.9,1.6,1.8,4.7,2.7c3.1,0.9,6.9,1.9,11.4,3
	c4.5,1.1,9,2,13.7,2.7s8.4,1.2,11,1.7h2c11.1,2.7,24,6,38.4,10c14.5,4,29,7.9,43.5,11.7c14.5,3.8,28,7.1,40.5,10
	c12.5,2.9,22.5,4.4,30.1,4.4h35.4c2.7-1.3,6-2.3,10-3c4-0.7,8-1.9,12-3.7c4-1.8,7.3-4.5,10-8c2.7-3.6,4-8.9,4-16
	c0-10.2-3.3-18.3-10-24.1c-6.7-5.8-13.6-12.2-20.7-19.4c1.3,0,0.3-0.5-3-1.7c-3.3-1.1-7.2-2.4-11.7-4c-4.5-1.6-8.7-3.5-12.7-5.7
	c-4-2.2-6-4.7-6-7.4c0.9,0,3.1,0.1,6.7,0.3c3.6,0.2,5.8,0.6,6.7,1c-1.8,0,0.2,0.6,6,1.7c5.8,1.1,12.5,3.5,20.1,7
	c7.6,3.6,14.8,9,21.7,16.4c6.9,7.4,10.4,17.5,10.4,30.4c0,2.7-0.2,5.7-0.7,9c-0.5,3.3-2.5,8.8-6,16.4c-3.6,7.6-9.5,18.2-17.7,31.8
	c-8.2,13.6-20.4,31.8-36.4,54.5H438c-0.5,0.5-1.3,1.5-2.7,3c-1.3,1.6-2.2,2.3-2.7,2.3H426c-6.7,0-13.3-1.2-19.7-3.7
	c-6.5-2.4-12.8-3.7-19.1-3.7c0.4,0-2.6-0.7-9-2c-6.5-1.3-13.6-2.9-21.4-4.7c-7.8-1.8-15.2-3.6-22.1-5.3c-6.9-1.8-10.6-2.9-11-3.3
	L321,571C306.8,568.4,292.6,565.5,278.6,562.3L278.6,562.3z M315.7,371.5c-1.8,7.4-2.7,14.8-2.7,22.4c0.9,0.9,2,0.7,3.3-0.7
	c1.3-1.3,2.9-2,4.7-2l5.4-2.7c0-4,0.5-7.8,1.7-11.4c1.1-3.6,2.3-7.8,3.7-12.7c1.3-4.9,2.4-10.9,3.3-18c0.9-7.1,1.3-16,1.3-26.7
	v-80.9c0-2.7-0.1-9.7-0.3-21.1c-0.2-11.4-0.5-23.4-0.7-36.1c-0.2-12.7-0.6-24.7-1-36.1c-0.5-11.4-0.7-18.4-0.7-21.1v-2.7
	c0-0.4-0.3-2.2-1-5.3c-0.7-3.1-1.2-4.7-1.7-4.7h-4.7c-0.5,0-1.9,0.3-4.4,1c-2.5,0.7-3.7,1.2-3.7,1.7v40.8c0,1.3,0.2,4.5,0.7,9.4
	c0.4,4.9,0.8,10.1,1,15.7c0.2,5.6,0.4,10.9,0.7,16c0.2,5.1,0.3,8.4,0.3,9.7v70.9c0,2.7-0.1,7.4-0.3,14c-0.2,6.7-0.5,13.8-0.7,21.4
	c-0.2,7.6-0.6,14.7-1,21.4c-0.5,6.7-0.7,11.4-0.7,14C318.4,356.2,317.5,364.1,315.7,371.5L315.7,371.5z"/>
</svg>
