<?xml version="1.0" encoding="utf-8"?>
<!-- Generator: Adobe Illustrator 28.2.0, SVG Export Plug-In . SVG Version: 6.00 Build 0)  -->
<svg version="1.1" id="Layer_1" xmlns="http://www.w3.org/2000/svg" xmlns:xlink="http://www.w3.org/1999/xlink" x="0px" y="0px"
	 viewBox="0 0 640 640" style="enable-background:new 0 0 640 640;" xml:space="preserve">
<path d="M437.3,177.2c-14.8,0-29.2,4-41.8,11.3c-14.1-14.3-30.5-26.2-48.6-35.2c25.2-21.4,57.2-33.2,90.4-33.2
	c77.1,0,139.7,62.5,139.7,139.7c0,37-14.7,72.5-40.9,98.7l-63.4,63.4c-26.1,26.1-61.7,40.9-98.7,40.9
	c-77.1,0-139.7-62.5-139.7-139.7c0-1.3,0-2.7,0.1-4c0.4-15.8,13.6-28.2,29.4-27.8s28.2,13.6,27.8,29.4c0,0.8,0,1.6,0,2.3
	c0,45.6,36.9,82.5,82.5,82.5c21.9,0,42.8-8.7,58.4-24.2l63.4-63.4c15.4-15.4,24.2-36.5,24.2-58.4c0-45.6-36.9-82.5-82.5-82.5
	L437.3,177.2z M308.6,246.2c-1.7-0.7-3.4-1.7-4.9-2.8c-11.2-5.8-24.1-9.1-37.6-9.1c-21.9,0-42.8,8.7-58.4,24.2L144.3,322
	c-15.4,15.4-24.2,36.5-24.2,58.4c0,45.6,36.9,82.5,82.5,82.5c14.7,0,29.1-3.9,41.7-11.2c14.1,14.3,30.5,26.2,48.7,35.2
	c-25.2,21.3-57.1,33.2-90.4,33.2C125.6,520.1,63,457.6,63,380.4c0-37,14.7-72.5,40.9-98.7l63.4-63.4c26.1-26.1,61.7-40.9,98.7-40.9
	c77.3,0,139.7,63,139.7,140c0,1.2,0,2.3,0,3.5c-0.4,15.8-13.5,28.2-29.3,27.8c-15.8-0.4-28.2-13.5-27.8-29.3c0-0.7,0-1.3,0-2.1
	c0-30.1-16.1-56.5-40-71V246.2z"/>
</svg>
